<?xml version="1.0" encoding="utf-8"?>
<svg x="135.3pt" y="57.9pt" width="268.8pt" height="188.1pt" viewBox="135.3 57.9 268.8 188.1" xmlns="http://www.w3.org/2000/svg" xmlns:xlink="http://www.w3.org/1999/xlink">
  <g id="1">
    <title>Group</title>
    <g id="2">
      <title>Group</title>
      <g id="3">
        <title>Group</title>
        <g id="4">
          <title>Group</title>
          <defs>
            <title>Shape 76</title>
            <g id="5">
              <defs>
                <path id="6" d="M218.5,165.8 C209.6,165.8,200.7,165.8,191.8,165.8 C189.4,165.8,187.5,163.9,187.5,161.5 C187.5,161.5,187.5,146,187.5,146 C187.5,143.6,189.4,141.7,191.8,141.7 C200.7,141.7,209.6,141.7,218.5,141.7 C220.9,141.7,222.8,143.6,222.8,146 C222.8,151.2,222.8,156.4,222.8,161.6 C222.8,163.9,220.9,165.8,218.5,165.8 z"/>
              </defs>
              <use xlink:href="#6" style="fill:none;opacity:1;stroke:#cfd4de;stroke-linecap:butt;stroke-linejoin:miter;stroke-miterlimit:10;stroke-opacity:1;stroke-width:4;"/>
            </g>
          </defs>
          <use xlink:href="#5"/>
          <defs>
            <title>Shape 77</title>
            <g id="7">
              <defs>
                <path id="8" d="M193.3,135.5 C193.3,132.4,193.3,129.3,193.3,126.2 C193.3,123.8,195.2,121.9,197.6,121.9 C202.633,121.9,207.667,121.9,212.7,121.9 C215.1,121.9,217,123.8,217,126.2 C217,129.3,217,132.4,217,135.5"/>
              </defs>
              <use xlink:href="#8" style="fill:none;opacity:1;stroke:#cfd4de;stroke-linecap:butt;stroke-linejoin:miter;stroke-miterlimit:10;stroke-opacity:1;stroke-width:4;"/>
            </g>
          </defs>
          <use xlink:href="#7"/>
        </g>
        <defs>
          <title>Shape 78</title>
          <g id="9">
            <defs>
              <path id="10" d="M209.1,151 C209.1,148.8,207.4,147.1,205.2,147.1 C203,147.1,201.3,148.8,201.3,151 C201.3,152.2,201.9,153.3,202.8,154 C202.8,155.267,202.8,156.533,202.8,157.8 C202.8,159.1,203.9,160.2,205.2,160.2 C206.5,160.2,207.6,159.1,207.6,157.8 C207.6,156.533,207.6,155.267,207.6,154 C208.5,153.4,209.1,152.3,209.1,151 z"/>
            </defs>
            <use xlink:href="#10" style="fill:#cfd4de;fill-opacity:1;fill-rule:evenodd;opacity:1;stroke:none;"/>
          </g>
        </defs>
        <use xlink:href="#9"/>
      </g>
      <defs>
        <title>Shape 79</title>
        <g id="11">
          <defs>
            <path id="12" d="M398.4,190.9 C398.067,190.9,397.733,190.9,397.4,190.9 C396,190.9,394.7,190,394.3,188.6 C393.4,185.3,392,182.2,390.3,179.4 C389.5,178.1,389.7,176.5,390.8,175.4 C391.067,175.133,391.333,174.867,391.6,174.6 C392.9,173.3,392.9,171.2,391.6,170 C389.467,167.867,387.333,165.733,385.2,163.6 C383.9,162.3,381.8,162.3,380.6,163.6 C380.267,163.933,379.933,164.267,379.6,164.6 C378.6,165.6,377,165.9,375.7,165.1 C372.9,163.5,369.9,162.3,366.7,161.4 C365.3,161,364.3,159.7,364.3,158.3 C364.3,157.767,364.3,157.233,364.3,156.7 C364.3,154.9,362.8,153.4,361,153.4 C357.967,153.4,354.933,153.4,351.9,153.4 C350.1,153.4,348.6,154.9,348.6,156.7 C348.6,157.233,348.6,157.767,348.6,158.3 C348.6,159.8,347.6,161.1,346.2,161.4 C343,162.3,340,163.5,337.2,165.1 C335.9,165.8,334.3,165.6,333.3,164.6 C332.967,164.267,332.633,163.933,332.3,163.6 C331,162.3,328.9,162.3,327.7,163.6 C325.567,165.733,323.433,167.867,321.3,170 C320,171.3,320,173.4,321.3,174.6 C321.567,174.867,321.833,175.133,322.1,175.4 C323.2,176.5,323.4,178.1,322.6,179.4 C320.9,182.3,319.5,185.4,318.6,188.6 C318.2,190,316.9,190.9,315.5,190.9 C315.167,190.9,314.833,190.9,314.5,190.9 C312.7,190.9,311.2,192.4,311.2,194.2 C311.2,197.233,311.2,200.267,311.2,203.3 C311.2,205.1,312.7,206.6,314.5,206.6 C314.7,206.6,314.9,206.6,315.1,206.6 C316.6,206.6,317.9,207.6,318.3,209.1 C319.2,212.6,320.5,215.8,322.2,218.8 C322.9,220.1,322.7,221.7,321.6,222.7 C321.5,222.8,321.4,222.9,321.3,223 C320,224.3,320,226.4,321.3,227.6 C323.433,229.733,325.567,231.867,327.7,234 C329,235.3,331.1,235.3,332.3,234 C332.333,233.967,332.367,233.933,332.4,233.9 C333.5,232.8,335.1,232.6,336.4,233.4 C339.5,235.2,342.8,236.7,346.4,237.6 C347.8,238,348.8,239.3,348.8,240.7 C348.8,242.5,350.3,244,352.1,244 C355.133,244,358.167,244,361.2,244 C363,244,364.5,242.5,364.5,240.7 C364.5,239.2,365.5,237.9,366.9,237.6 C370.4,236.7,373.8,235.2,376.9,233.4 C378.2,232.6,379.8,232.9,380.9,233.9 C380.933,233.933,380.967,233.967,381,234 C382.3,235.3,384.4,235.3,385.6,234 C387.733,231.867,389.867,229.733,392,227.6 C393.3,226.3,393.3,224.2,392,223 C391.9,222.9,391.8,222.8,391.7,222.7 C390.7,221.7,390.4,220.1,391.1,218.8 C392.8,215.8,394.1,212.5,395,209.1 C395.4,207.7,396.7,206.6,398.2,206.6 C398.4,206.6,398.6,206.6,398.8,206.6 C400.6,206.6,402.1,205.1,402.1,203.3 C402.1,200.267,402.1,197.233,402.1,194.2 C401.7,192.4,400.3,190.9,398.4,190.9 z M356.4,216.5 C347,216.5,339.5,208.9,339.5,199.6 C339.5,190.2,347.1,182.7,356.4,182.7 C365.7,182.7,373.3,190.3,373.3,199.6 C373.4,208.9,365.8,216.5,356.4,216.5 z"/>
          </defs>
          <use xlink:href="#12" style="fill:none;opacity:1;stroke:#cfd4de;stroke-linecap:butt;stroke-linejoin:miter;stroke-miterlimit:10;stroke-opacity:1;stroke-width:4;"/>
        </g>
      </defs>
      <use xlink:href="#11"/>
      <g id="13">
        <title>Group</title>
        <g id="14">
          <title>Group</title>
          <defs>
            <title>Shape 80</title>
            <g id="15">
              <defs>
                <path id="16" d="M384.4,117.9 C384.4,117.9,384.4,122.9,384.4,122.9"/>
              </defs>
              <use xlink:href="#16" style="fill:none;opacity:1;stroke:#65f7cf;stroke-linecap:butt;stroke-linejoin:round;stroke-miterlimit:4;stroke-opacity:1;stroke-width:2;"/>
            </g>
          </defs>
          <use xlink:href="#15"/>
          <defs>
            <title>Shape 81</title>
            <g id="17">
              <defs>
                <path id="18" d="M384.4,126.8 C384.4,127.733,384.4,128.667,384.4,129.6 C384.4,130.7,383.5,131.6,382.4,131.6 C376.067,131.6,369.733,131.6,363.4,131.6"/>
              </defs>
              <use xlink:href="#18" style="fill:none;opacity:1;stroke:#65f7cf;stroke-dasharray:9.6207, 3.8483;stroke-dashoffset:0;stroke-linecap:butt;stroke-linejoin:round;stroke-miterlimit:4;stroke-opacity:1;stroke-width:2;"/>
            </g>
          </defs>
          <use xlink:href="#17"/>
          <defs>
            <title>Shape 82</title>
            <g id="19">
              <defs>
                <path id="20" d="M361.4,131.7 C361.4,131.7,356.4,131.7,356.4,131.7"/>
              </defs>
              <use xlink:href="#20" style="fill:none;opacity:1;stroke:#65f7cf;stroke-linecap:butt;stroke-linejoin:round;stroke-miterlimit:4;stroke-opacity:1;stroke-width:2;"/>
            </g>
          </defs>
          <use xlink:href="#19"/>
        </g>
      </g>
      <g id="21">
        <title>Group</title>
        <g id="22">
          <title>Group</title>
          <defs>
            <title>Shape 83</title>
            <g id="23">
              <defs>
                <path id="24" d="M181.1,72.8 C181.1,72.8,177.6,72.8,177.6,72.8"/>
              </defs>
              <use xlink:href="#24" style="fill:none;opacity:1;stroke:#65f7cf;stroke-linecap:butt;stroke-linejoin:round;stroke-miterlimit:4;stroke-opacity:1;stroke-width:2;"/>
            </g>
          </defs>
          <use xlink:href="#23"/>
          <defs>
            <title>Shape 84</title>
            <g id="25">
              <defs>
                <path id="26" d="M171.9,72.8 C167.767,72.8,163.633,72.8,159.5,72.8 C158.4,72.8,157.5,73.7,157.5,74.8 C157.5,82.7,157.5,90.6,157.5,98.5 C157.5,99.6,158.4,100.5,159.5,100.5 C174.033,100.5,188.567,100.5,203.1,100.5 C204.2,100.5,205.1,101.4,205.1,102.5 C205.1,104.9,205.1,107.3,205.1,109.7"/>
              </defs>
              <use xlink:href="#26" style="fill:none;opacity:1;stroke:#65f7cf;stroke-dasharray:6.6906, 5.7348;stroke-dashoffset:0;stroke-linecap:butt;stroke-linejoin:round;stroke-miterlimit:4;stroke-opacity:1;stroke-width:2;"/>
            </g>
          </defs>
          <use xlink:href="#25"/>
          <defs>
            <title>Shape 85</title>
            <g id="27">
              <defs>
                <path id="28" d="M205.2,112.7 C205.2,112.7,205.2,116.2,205.2,116.2"/>
              </defs>
              <use xlink:href="#28" style="fill:none;opacity:1;stroke:#65f7cf;stroke-linecap:butt;stroke-linejoin:round;stroke-miterlimit:4;stroke-opacity:1;stroke-width:2;"/>
            </g>
          </defs>
          <use xlink:href="#27"/>
        </g>
      </g>
      <g id="29">
        <title>Group</title>
        <g id="30">
          <title>Group</title>
          <defs>
            <title>Shape 86</title>
            <g id="31">
              <defs>
                <path id="32" d="M159,165.4 C159,165.4,159,169.9,159,169.9"/>
              </defs>
              <use xlink:href="#32" style="fill:none;opacity:1;stroke:#65f7cf;stroke-linecap:butt;stroke-linejoin:round;stroke-miterlimit:4;stroke-opacity:1;stroke-width:2;"/>
            </g>
          </defs>
          <use xlink:href="#31"/>
          <defs>
            <title>Shape 87</title>
            <g id="33">
              <defs>
                <path id="34" d="M159,175.8 C159,177.067,159,178.333,159,179.6 C159,180.7,159.9,181.7,161.1,181.6 C177.3,181.333,193.5,181.067,209.7,180.8"/>
              </defs>
              <use xlink:href="#34" style="fill:none;opacity:1;stroke:#65f7cf;stroke-dasharray:8.7879, 5.8586;stroke-dashoffset:0;stroke-linecap:butt;stroke-linejoin:round;stroke-miterlimit:4;stroke-opacity:1;stroke-width:2;"/>
            </g>
          </defs>
          <use xlink:href="#33"/>
          <defs>
            <title>Shape 88</title>
            <g id="35">
              <defs>
                <path id="36" d="M212.6,180.8 C212.6,180.8,217.1,180.7,217.1,180.7"/>
              </defs>
              <use xlink:href="#36" style="fill:none;opacity:1;stroke:#65f7cf;stroke-linecap:butt;stroke-linejoin:round;stroke-miterlimit:4;stroke-opacity:1;stroke-width:2;"/>
            </g>
          </defs>
          <use xlink:href="#35"/>
        </g>
      </g>
      <g id="37">
        <title>Group</title>
        <g id="38">
          <title>Group</title>
          <defs>
            <title>Shape 89</title>
            <g id="39">
              <defs>
                <path id="40" d="M363.4,94.8 C363.9,94.8,364.5,94.8,365,94.9 C367.7,91.5,371.9,89.3,376.6,89.3 C383.6,89.3,389.4,94.2,391,100.7 C391.5,100.6,392,100.6,392.5,100.6 C397.6,100.6,401.7,104.7,401.7,109.8 C401.7,114.9,397.6,119,392.5,119 C382.8,119,373.1,119,363.4,119 C356.7,119,351.3,113.6,351.3,106.9 C351.4,100.2,356.8,94.8,363.4,94.8 z"/>
              </defs>
              <use xlink:href="#40" style="fill:#e6ecff;fill-opacity:1;fill-rule:evenodd;opacity:1;stroke:none;"/>
            </g>
          </defs>
          <use xlink:href="#39"/>
        </g>
      </g>
      <g id="41">
        <title>Group</title>
        <g id="42">
          <title>Group</title>
          <g id="43">
            <title>Group</title>
            <defs>
              <title>Shape 90</title>
              <g id="44">
                <defs>
                  <path id="45" d="M346.4,203.5 C346.4,203.5,220.3,203.5,220.3,203.5 C216,203.5,212.4,200,212.4,195.6 C212.4,195.6,212.4,92.1,212.4,92.1 C212.4,87.8,215.9,84.2,220.3,84.2 C262.367,84.2,304.433,84.2,346.5,84.2 C350.8,84.2,354.4,87.7,354.4,92.1 C354.4,126.633,354.4,161.167,354.4,195.7 C354.3,200,350.8,203.5,346.4,203.5 z"/>
                </defs>
                <use xlink:href="#45" style="fill:#000000;fill-opacity:1;fill-rule:evenodd;opacity:1;stroke:none;"/>
              </g>
            </defs>
            <use xlink:href="#44"/>
          </g>
          <g id="46">
            <title>Group</title>
            <defs>
              <title>Shape 91</title>
              <g id="47">
                <defs>
                  <path id="48" d="M351.1,200.7 C351.1,200.7,225,200.7,225,200.7 C220.7,200.7,217.1,197.2,217.1,192.8 C217.1,192.8,217.1,89.2,217.1,89.2 C217.1,84.9,220.6,81.3,225,81.3 C267.067,81.3,309.133,81.3,351.2,81.3 C355.5,81.3,359.1,84.8,359.1,89.2 C359.1,123.733,359.1,158.267,359.1,192.8 C359,197.2,355.5,200.7,351.1,200.7 z"/>
                </defs>
                <use xlink:href="#48" style="fill:#e3f3f7;fill-opacity:1;fill-rule:evenodd;opacity:1;stroke:none;"/>
              </g>
            </defs>
            <use xlink:href="#47"/>
          </g>
          <g id="49">
            <title>Group</title>
            <defs>
              <title>Shape 92</title>
              <g id="50">
                <defs>
                  <path id="51" d="M351.1,81.4 C351.1,81.4,225,81.4,225,81.4 C220.7,81.4,217.1,84.9,217.1,89.3 C217.1,90.4667,217.1,91.6333,217.1,92.8 C217.1,92.8,359,92.8,359,92.8 C359,91.6333,359,90.4667,359,89.3 C359,84.9,355.5,81.4,351.1,81.4 z"/>
                </defs>
                <use xlink:href="#51" style="fill:#6cf779;fill-opacity:1;fill-rule:evenodd;opacity:1;stroke:none;"/>
              </g>
            </defs>
            <use xlink:href="#50"/>
          </g>
          <g id="52">
            <title>Group</title>
            <defs>
              <title>Shape 93</title>
              <g id="53">
                <defs>
                  <path id="54" d="M229.3,87.1 C229.3,88.3703,228.27,89.4,227,89.4 C225.73,89.4,224.7,88.3703,224.7,87.1 C224.7,85.8297,225.73,84.8,227,84.8 C228.27,84.8,229.3,85.8297,229.3,87.1"/>
                </defs>
                <use xlink:href="#54" style="fill:#3d90ff;fill-opacity:1;fill-rule:evenodd;opacity:1;stroke:none;"/>
              </g>
            </defs>
            <use xlink:href="#53"/>
          </g>
          <g id="55">
            <title>Group</title>
            <defs>
              <title>Shape 94</title>
              <g id="56">
                <defs>
                  <path id="57" d="M235.7,87.1 C235.7,88.3703,234.67,89.4,233.4,89.4 C232.13,89.4,231.1,88.3703,231.1,87.1 C231.1,85.8297,232.13,84.8,233.4,84.8 C234.67,84.8,235.7,85.8297,235.7,87.1"/>
                </defs>
                <use xlink:href="#57" style="fill:#3d90ff;fill-opacity:1;fill-rule:evenodd;opacity:1;stroke:none;"/>
              </g>
            </defs>
            <use xlink:href="#56"/>
          </g>
          <g id="58">
            <title>Group</title>
            <defs>
              <title>Shape 95</title>
              <g id="59">
                <defs>
                  <path id="60" d="M242.1,87.1 C242.1,88.3703,241.07,89.4,239.8,89.4 C238.53,89.4,237.5,88.3703,237.5,87.1 C237.5,85.8297,238.53,84.8,239.8,84.8 C241.07,84.8,242.1,85.8297,242.1,87.1"/>
                </defs>
                <use xlink:href="#60" style="fill:#3d90ff;fill-opacity:1;fill-rule:evenodd;opacity:1;stroke:none;"/>
              </g>
            </defs>
            <use xlink:href="#59"/>
          </g>
        </g>
        <g id="61">
          <title>Group</title>
          <defs>
            <title>Shape 96</title>
            <g id="62">
              <defs>
                <path id="63" d="M227,104.3 C227,104.3,267.9,104.3,267.9,104.3"/>
              </defs>
              <use xlink:href="#63" style="fill:none;opacity:1;stroke:#c5dfe3;stroke-linecap:butt;stroke-linejoin:miter;stroke-miterlimit:10;stroke-opacity:1;stroke-width:2;"/>
            </g>
          </defs>
          <use xlink:href="#62"/>
          <defs>
            <title>Shape 97</title>
            <g id="64">
              <defs>
                <path id="65" d="M242.9,110.4 C242.9,110.4,295.9,110.4,295.9,110.4"/>
              </defs>
              <use xlink:href="#65" style="fill:none;opacity:1;stroke:#c5dfe3;stroke-linecap:butt;stroke-linejoin:miter;stroke-miterlimit:10;stroke-opacity:1;stroke-width:2;"/>
            </g>
          </defs>
          <use xlink:href="#64"/>
          <defs>
            <title>Shape 98</title>
            <g id="66">
              <defs>
                <path id="67" d="M227,110.4 C227,110.4,235.6,110.4,235.6,110.4"/>
              </defs>
              <use xlink:href="#67" style="fill:none;opacity:1;stroke:#c5dfe3;stroke-linecap:butt;stroke-linejoin:miter;stroke-miterlimit:10;stroke-opacity:1;stroke-width:2;"/>
            </g>
          </defs>
          <use xlink:href="#66"/>
          <defs>
            <title>Shape 99</title>
            <g id="68">
              <defs>
                <path id="69" d="M227,122.5 C227,122.5,270,122.5,270,122.5"/>
              </defs>
              <use xlink:href="#69" style="fill:none;opacity:1;stroke:#c5dfe3;stroke-linecap:butt;stroke-linejoin:miter;stroke-miterlimit:10;stroke-opacity:1;stroke-width:2;"/>
            </g>
          </defs>
          <use xlink:href="#68"/>
          <defs>
            <title>Shape 100</title>
            <g id="70">
              <defs>
                <path id="71" d="M275.2,122.5 C275.2,122.5,309,122.5,309,122.5"/>
              </defs>
              <use xlink:href="#71" style="fill:none;opacity:1;stroke:#c5dfe3;stroke-linecap:butt;stroke-linejoin:miter;stroke-miterlimit:10;stroke-opacity:1;stroke-width:2;"/>
            </g>
          </defs>
          <use xlink:href="#70"/>
          <defs>
            <title>Shape 101</title>
            <g id="72">
              <defs>
                <path id="73" d="M227,116.4 C227,116.4,247.7,116.4,247.7,116.4"/>
              </defs>
              <use xlink:href="#73" style="fill:none;opacity:1;stroke:#c5dfe3;stroke-linecap:butt;stroke-linejoin:miter;stroke-miterlimit:10;stroke-opacity:1;stroke-width:2;"/>
            </g>
          </defs>
          <use xlink:href="#72"/>
          <defs>
            <title>Shape 102</title>
            <g id="74">
              <defs>
                <path id="75" d="M256.9,116.4 C256.9,116.4,276.7,116.4,276.7,116.4"/>
              </defs>
              <use xlink:href="#75" style="fill:none;opacity:1;stroke:#c5dfe3;stroke-linecap:butt;stroke-linejoin:miter;stroke-miterlimit:10;stroke-opacity:1;stroke-width:2;"/>
            </g>
          </defs>
          <use xlink:href="#74"/>
        </g>
        <g id="76">
          <title>Group</title>
          <defs>
            <title>Shape 103</title>
            <g id="77">
              <defs>
                <path id="78" d="M321,104.1 C329.167,104.1,337.333,104.1,345.5,104.1 C345.5,117.833,345.5,131.567,345.5,145.3 C337.333,145.3,329.167,145.3,321,145.3 C321,131.567,321,117.833,321,104.1 z"/>
              </defs>
              <use xlink:href="#78" style="fill:#c5dfe3;fill-opacity:1;fill-rule:evenodd;opacity:1;stroke:none;"/>
            </g>
          </defs>
          <use xlink:href="#77"/>
        </g>
        <g id="79">
          <title>Group</title>
          <defs>
            <title>Shape 104</title>
            <g id="80">
              <defs>
                <path id="81" d="M321,149.4 C324.467,149.4,327.933,149.4,331.4,149.4 C331.4,151.733,331.4,154.067,331.4,156.4 C327.933,156.4,324.467,156.4,321,156.4 C321,154.067,321,151.733,321,149.4 z"/>
              </defs>
              <use xlink:href="#81" style="fill:#c5dfe3;fill-opacity:1;fill-rule:evenodd;opacity:1;stroke:none;"/>
            </g>
          </defs>
          <use xlink:href="#80"/>
        </g>
        <g id="82">
          <title>Group</title>
          <defs>
            <title>Shape 105</title>
            <g id="83">
              <defs>
                <path id="84" d="M335.2,149.4 C338.667,149.4,342.133,149.4,345.6,149.4 C345.6,151.733,345.6,154.067,345.6,156.4 C342.133,156.4,338.667,156.4,335.2,156.4 C335.2,154.067,335.2,151.733,335.2,149.4 z"/>
              </defs>
              <use xlink:href="#84" style="fill:#c5dfe3;fill-opacity:1;fill-rule:evenodd;opacity:1;stroke:none;"/>
            </g>
          </defs>
          <use xlink:href="#83"/>
        </g>
        <g id="85">
          <title>Group</title>
          <defs>
            <title>Shape 106</title>
            <g id="86">
              <defs>
                <path id="87" d="M321,160.2 C324.467,160.2,327.933,160.2,331.4,160.2 C331.4,162.533,331.4,164.867,331.4,167.2 C327.933,167.2,324.467,167.2,321,167.2 C321,164.867,321,162.533,321,160.2 z"/>
              </defs>
              <use xlink:href="#87" style="fill:#c5dfe3;fill-opacity:1;fill-rule:evenodd;opacity:1;stroke:none;"/>
            </g>
          </defs>
          <use xlink:href="#86"/>
        </g>
        <g id="88">
          <title>Group</title>
          <defs>
            <title>Shape 107</title>
            <g id="89">
              <defs>
                <path id="90" d="M335.2,160.2 C338.667,160.2,342.133,160.2,345.6,160.2 C345.6,162.533,345.6,164.867,345.6,167.2 C342.133,167.2,338.667,167.2,335.2,167.2 C335.2,164.867,335.2,162.533,335.2,160.2 z"/>
              </defs>
              <use xlink:href="#90" style="fill:#c5dfe3;fill-opacity:1;fill-rule:evenodd;opacity:1;stroke:none;"/>
            </g>
          </defs>
          <use xlink:href="#89"/>
        </g>
      </g>
      <g id="91">
        <title>Group</title>
        <g id="92">
          <title>Group</title>
          <defs>
            <title>Shape 108</title>
            <g id="93">
              <defs>
                <path id="94" d="M186.4,63.4 C186.9,63.4,187.5,63.4,188,63.5 C190.7,60.1,194.9,57.9,199.6,57.9 C206.6,57.9,212.4,62.8,214,69.3 C214.5,69.2,215,69.2,215.5,69.2 C220.6,69.2,224.7,73.3,224.7,78.4 C224.7,83.5,220.6,87.6,215.5,87.6 C205.8,87.6,196.1,87.6,186.4,87.6 C179.7,87.6,174.3,82.2,174.3,75.5 C174.3,68.9,179.8,63.4,186.4,63.4 z"/>
              </defs>
              <use xlink:href="#94" style="fill:#3ccdf1;fill-opacity:1;fill-rule:evenodd;opacity:1;stroke:none;"/>
            </g>
          </defs>
          <use xlink:href="#93"/>
        </g>
      </g>
      <g id="95">
        <title>Group</title>
        <defs>
          <title>Shape 109</title>
          <g id="96">
            <defs>
              <path id="97" d="M180.5,141.3 C180,141.3,179.4,141.3,178.9,141.4 C176.2,138,172,135.8,167.3,135.8 C161,135.8,155.6,139.8,153.5,145.3 C152.7,145.1,151.9,145,151.1,145 C146.3,145,142.4,148.3,141.2,152.7 C137.9,152.9,135.3,155.7,135.3,159.1 C135.3,162.6,138.2,165.5,141.7,165.5 C154.633,165.5,167.567,165.5,180.5,165.5 C187.2,165.5,192.6,160.1,192.6,153.4 C192.6,146.7,187.2,141.3,180.5,141.3 z"/>
            </defs>
            <use xlink:href="#97" style="fill:#e3f3f7;fill-opacity:1;fill-rule:evenodd;opacity:1;stroke:none;"/>
          </g>
        </defs>
        <use xlink:href="#96"/>
      </g>
      <g id="98">
        <title>Group</title>
        <g id="99">
          <title>Group</title>
          <g id="100">
            <title>Group</title>
            <g id="101">
              <title>Group</title>
              <defs>
                <title>Shape 110</title>
                <g id="102">
                  <defs>
                    <path id="103" d="M295.2,170.9 C295.2,170.9,295.2,139,295.2,139 C295.2,137.4,294.3,135.9,293,135.1 C283.8,129.767,274.6,124.433,265.4,119.1 C264,118.3,262.3,118.3,260.9,119.1 C251.7,124.433,242.5,129.767,233.3,135.1 C231.9,135.9,231.1,137.4,231.1,139 C231.1,149.633,231.1,160.267,231.1,170.9 C231.1,172.5,232,174,233.3,174.8 C242.5,180.133,251.7,185.467,260.9,190.8 C262.3,191.6,264,191.6,265.4,190.8 C274.6,185.467,283.8,180.133,293,174.8 C294.3,174,295.2,172.5,295.2,170.9 z"/>
                  </defs>
                  <use xlink:href="#103" style="fill:#3ccdf1;fill-opacity:1;fill-rule:evenodd;opacity:1;stroke:none;"/>
                </g>
              </defs>
              <use xlink:href="#102"/>
            </g>
          </g>
          <g id="104">
            <title>Group</title>
            <defs>
              <title>Shape 111</title>
              <g id="105">
                <defs>
                  <path id="106" d="M256.5,159.2 C254.367,159.2,252.233,159.2,250.1,159.2 C249.7,160.3,249.3,161.4,248.9,162.5 C248.033,162.5,247.167,162.5,246.3,162.5 C248.167,157.567,250.033,152.633,251.9,147.7 C252.833,147.7,253.767,147.7,254.7,147.7 C256.533,152.633,258.367,157.567,260.2,162.5 C259.333,162.5,258.467,162.5,257.6,162.5 C257.6,162.5,256.5,159.2,256.5,159.2 z M255.8,157.3 C254.967,154.967,254.133,152.633,253.3,150.3 C252.467,152.633,251.633,154.967,250.8,157.3 C250.8,157.3,255.8,157.3,255.8,157.3 z"/>
                </defs>
                <use xlink:href="#106" style="fill:#ffffff;fill-opacity:1;fill-rule:evenodd;opacity:1;stroke:none;"/>
              </g>
            </defs>
            <use xlink:href="#105"/>
            <defs>
              <title>Shape 112</title>
              <g id="107">
                <defs>
                  <path id="108" d="M264.5,156.6 C264.5,158.533,264.5,160.467,264.5,162.4 C263.7,162.4,262.9,162.4,262.1,162.4 C262.1,157.367,262.1,152.333,262.1,147.3 C263.8,147.3,265.5,147.3,267.2,147.3 C268.9,147.3,270.2,147.7,271.1,148.5 C272,149.3,272.4,150.5,272.4,151.9 C272.4,153.3,272,154.4,271.1,155.3 C270.2,156.1,268.9,156.5,267.2,156.5 C267.2,156.5,264.5,156.5,264.5,156.5 z M269.9,152 C269.9,151.1,269.7,150.5,269.2,150 C268.7,149.6,268,149.3,266.9,149.3 C266.1,149.3,265.3,149.3,264.5,149.3 C264.5,151.033,264.5,152.767,264.5,154.5 C265.3,154.5,266.1,154.5,266.9,154.5 C268.9,154.6,269.9,153.8,269.9,152 z"/>
                </defs>
                <use xlink:href="#108" style="fill:#ffffff;fill-opacity:1;fill-rule:evenodd;opacity:1;stroke:none;"/>
              </g>
            </defs>
            <use xlink:href="#107"/>
            <defs>
              <title>Shape 113</title>
              <g id="109">
                <defs>
                  <path id="110" d="M277,147.4 C277,152.433,277,157.467,277,162.5 C276.2,162.5,275.4,162.5,274.6,162.5 C274.6,157.467,274.6,152.433,274.6,147.4 C274.6,147.4,277,147.4,277,147.4 z"/>
                </defs>
                <use xlink:href="#110" style="fill:#ffffff;fill-opacity:1;fill-rule:evenodd;opacity:1;stroke:none;"/>
              </g>
            </defs>
            <use xlink:href="#109"/>
          </g>
        </g>
        <g id="111">
          <title>Group</title>
          <g id="112">
            <title>Group</title>
            <defs>
              <title>Shape 114</title>
              <g id="113">
                <defs>
                  <path id="114" d="M309.8,189 C309.7,188.533,309.6,188.067,309.5,187.6 C309.3,186.6,308.7,185.7,307.9,185 C306.4,183.8,304.2,183.6,302.5,184.7 C301.267,185.433,300.033,186.167,298.8,186.9 C298.4,185,297,183.3,295.1,182.6 C294,182.2,292.8,182.2,291.7,182.6 C286.533,184.533,281.367,186.467,276.2,188.4 C261,185.9,245.8,183.4,230.6,180.9 C229,180.7,227.3,181,225.7,181.9 C217.567,186.533,209.433,191.167,201.3,195.8 C201,195.9,200.9,196.2,200.8,196.5 C200.7,196.8,200.8,197.1,200.9,197.3 C205.633,205.5,210.367,213.7,215.1,221.9 C215.4,222.4,216,222.6,216.5,222.3 C219.5,220.9,222.5,219.5,225.5,218.1 C226.8,217.5,228.4,217.4,229.7,217.9 C229.8,217.9,229.8,217.9,229.9,217.9 C240.067,219.867,250.233,221.833,260.4,223.8 C261.2,224.1,261.9,224.2,262.7,224.2 C263.3,224.2,263.9,224.1,264.5,224 C265.1,223.867,265.7,223.733,266.3,223.6 C267.7,223.2,269,222.6,270.1,221.8 C282.6,212.9,295.1,204,307.6,195.1 C309.4,193.6,310.3,191.3,309.8,189 z"/>
                </defs>
                <use xlink:href="#114" style="fill:#e7edff;fill-opacity:1;fill-rule:evenodd;opacity:1;stroke:none;"/>
              </g>
            </defs>
            <use xlink:href="#113"/>
          </g>
          <g id="115">
            <title>Group</title>
            <defs>
              <title>Shape 115</title>
              <g id="116">
                <defs>
                  <path id="117" d="M277.6,189 C282.4,187.2,287.2,185.4,292,183.6 C292,183.6,300.7,184,296.4,189.5 C287.2,194.967,278,200.433,268.8,205.9 C263.933,203.5,259.067,201.1,254.2,198.7 C261.7,198.867,269.2,199.033,276.7,199.2 C277.8,198.533,278.9,197.867,280,197.2 C280.167,195.567,280.333,193.933,280.5,192.3 C280.5,192.3,277.6,189,277.6,189 z"/>
                </defs>
                <use xlink:href="#117" style="fill:#d1d6e3;fill-opacity:1;fill-rule:evenodd;opacity:1;stroke:none;"/>
              </g>
            </defs>
            <use xlink:href="#116"/>
          </g>
          <g id="118">
            <title>Group</title>
            <g id="119">
              <title>Group</title>
              <defs>
                <title>Shape 116</title>
                <g id="120">
                  <defs>
                    <path id="121" d="M255.6,199.1 C259.533,201.367,263.467,203.633,267.4,205.9 C267.8,206.1,268.3,206.1,268.7,205.9 C278.333,200.167,287.967,194.433,297.6,188.7 C299.367,187.667,301.133,186.633,302.9,185.6 C304.2,184.8,305.9,184.8,307.1,185.8 C307.7,186.3,308.1,187,308.3,187.8 C308.4,188.267,308.5,188.733,308.6,189.2 C309,191,308.3,192.9,306.8,194 C294.3,202.9,281.8,211.8,269.3,220.7 C268.3,221.4,267.1,222,265.8,222.3 C265.2,222.433,264.6,222.567,264,222.7 C262.8,223,261.6,223,260.4,222.6 C250.2,220.633,240,218.667,229.8,216.7 C228.1,216.1,226.3,216.2,224.7,217 C221.7,218.4,218.7,219.8,215.7,221.2"/>
                  </defs>
                  <use xlink:href="#121" style="fill:none;opacity:1;stroke:#3d90ff;stroke-linecap:round;stroke-linejoin:round;stroke-miterlimit:10;stroke-opacity:1;stroke-width:2;"/>
                </g>
              </defs>
              <use xlink:href="#120"/>
              <defs>
                <title>Shape 117</title>
                <g id="122">
                  <defs>
                    <path id="123" d="M201.8,196.7 C209.933,192.067,218.067,187.433,226.2,182.8 C227.5,182.1,228.9,181.7,230.4,181.9 C230.4,181.9,230.4,181.9,230.4,181.9 C245.7,184.4,261,186.9,276.3,189.4 C276.833,189.5,277.367,189.6,277.9,189.7 C279.7,190,281,191.6,280.8,193.4 C280.733,194.133,280.667,194.867,280.6,195.6 C280.4,197.6,278.7,199.1,276.8,199 C269.8,199,262.8,199,255.8,199 C252.967,198.833,250.133,198.667,247.3,198.5"/>
                  </defs>
                  <use xlink:href="#123" style="fill:none;opacity:1;stroke:#3d90ff;stroke-linecap:round;stroke-linejoin:round;stroke-miterlimit:10;stroke-opacity:1;stroke-width:2;"/>
                </g>
              </defs>
              <use xlink:href="#122"/>
              <defs>
                <title>Shape 118</title>
                <g id="124">
                  <defs>
                    <path id="125" d="M297.7,188.7 C297.7,188.533,297.7,188.367,297.7,188.2 C297.7,186.2,296.5,184.3,294.6,183.6 C294.6,183.6,294.6,183.6,294.6,183.6 C293.8,183.3,292.8,183.3,292,183.6 C286.733,185.567,281.467,187.533,276.2,189.5"/>
                  </defs>
                  <use xlink:href="#125" style="fill:none;opacity:1;stroke:#3d90ff;stroke-linecap:round;stroke-linejoin:round;stroke-miterlimit:10;stroke-opacity:1;stroke-width:2;"/>
                </g>
              </defs>
              <use xlink:href="#124"/>
              <defs>
                <title>Shape 119</title>
                <g id="126">
                  <defs>
                    <path id="127" d="M189.6,199.4 C195.2,209.1,200.8,218.8,206.4,228.5 C206.8,229.1,207.5,229.3,208.2,229 C210.9,227.433,213.6,225.867,216.3,224.3 C216.9,223.9,217.1,223.2,216.8,222.5 C211.2,212.8,205.6,203.1,200,193.4 C199.6,192.8,198.9,192.6,198.2,192.9 C195.5,194.467,192.8,196.033,190.1,197.6 C189.4,198,189.2,198.8,189.6,199.4 z"/>
                  </defs>
                  <use xlink:href="#127" style="fill:#3ccdf1;fill-opacity:1;fill-rule:evenodd;opacity:1;stroke:none;"/>
                  <use xlink:href="#127" style="fill:none;opacity:1;stroke:#3d90ff;stroke-linecap:round;stroke-linejoin:round;stroke-miterlimit:10;stroke-opacity:1;stroke-width:2;"/>
                </g>
              </defs>
              <use xlink:href="#126"/>
              <defs>
                <title>Shape 120</title>
                <g id="128">
                  <defs>
                    <path id="129" d="M206.5,228.7 C206.5,228.7,199.1,233,199.1,233"/>
                  </defs>
                  <use xlink:href="#129" style="fill:none;opacity:1;stroke:#3d90ff;stroke-linecap:round;stroke-linejoin:round;stroke-miterlimit:10;stroke-opacity:1;stroke-width:2;"/>
                </g>
              </defs>
              <use xlink:href="#128"/>
              <defs>
                <title>Shape 121</title>
                <g id="130">
                  <defs>
                    <path id="131" d="M190.2,200.5 C190.2,200.5,182.8,204.8,182.8,204.8"/>
                  </defs>
                  <use xlink:href="#131" style="fill:none;opacity:1;stroke:#3d90ff;stroke-linecap:round;stroke-linejoin:round;stroke-miterlimit:10;stroke-opacity:1;stroke-width:2;"/>
                </g>
              </defs>
              <use xlink:href="#130"/>
            </g>
          </g>
        </g>
      </g>
    </g>
  </g>
</svg>
