<?xml version="1.0" encoding="utf-8"?>
<svg x="141.874pt" y="217.491pt" width="295.231pt" height="86.9146pt" viewBox="141.874 217.491 295.231 86.9146" xmlns="http://www.w3.org/2000/svg" xmlns:xlink="http://www.w3.org/1999/xlink">
  <g id="1">
    <title>Group Copy</title>
    <g id="2">
      <title>Group</title>
      <defs>
        <title>Shape 27</title>
        <g id="3">
          <defs>
            <path id="4" d="M218.132,239.22 C218.132,239.22,180.003,260.949,180.003,260.949 C180.003,260.949,180.003,304.406,180.003,304.406 C180.003,304.406,218.132,282.677,218.132,282.677 C218.132,282.677,218.132,239.22,218.132,239.22"/>
          </defs>
          <use xlink:href="#4" style="fill:#0066cc;fill-opacity:0.104083;fill-rule:evenodd;opacity:1;stroke:none;"/>
        </g>
      </defs>
      <use xlink:href="#3"/>
      <defs>
        <title>Shape 28</title>
        <g id="5">
          <defs>
            <path id="6" d="M180.003,260.949 C180.003,260.949,141.874,239.22,141.874,239.22 C141.874,239.22,141.874,282.677,141.874,282.677 C141.874,282.677,180.003,304.406,180.003,304.406 C180.003,304.406,180.003,260.949,180.003,260.949"/>
          </defs>
          <use xlink:href="#6" style="fill:#0066cc;fill-opacity:0.104083;fill-rule:evenodd;opacity:1;stroke:none;"/>
        </g>
      </defs>
      <use xlink:href="#5"/>
      <defs>
        <title>Shape 29</title>
        <g id="7">
          <defs>
            <path id="8" d="M180.003,260.949 C180.003,260.949,141.874,239.22,141.874,239.22 C141.874,239.22,180.003,217.491,180.003,217.491 C180.003,217.491,218.132,239.22,218.132,239.22 C218.132,239.22,180.003,260.949,180.003,260.949"/>
          </defs>
          <use xlink:href="#8" style="fill:#0066cc;fill-opacity:0.104083;fill-rule:evenodd;opacity:1;stroke:none;"/>
        </g>
      </defs>
      <use xlink:href="#7"/>
    </g>
    <g id="9">
      <title>White Overlay</title>
      <defs>
        <title>Smart Polygon Copy Copy</title>
        <g id="10">
          <defs>
            <path id="11" d="M180.003,239.22 C180.003,239.22,199.068,250.084,199.068,250.084 C199.068,250.084,199.068,271.813,199.068,271.813 C199.068,271.813,180.003,282.677,180.003,282.677 C180.003,282.677,160.939,271.813,160.939,271.813 C160.939,271.813,160.939,250.084,160.939,250.084 C160.939,250.084,180.003,239.22,180.003,239.22 z"/>
          </defs>
          <use xlink:href="#11" style="fill:#ffffff;fill-opacity:0.853805;fill-rule:nonzero;opacity:1;stroke:none;"/>
        </g>
      </defs>
      <use xlink:href="#10"/>
      <defs>
        <title>Shape 49</title>
        <g id="12">
          <defs>
            <path id="13" d="M160.939,271.813 C160.939,271.813,160.939,269.128,160.939,269.128 C160.939,269.128,141.874,279.903,141.874,279.903 C141.874,279.903,141.874,282.677,141.874,282.677 C141.874,282.677,144.238,284.024,144.238,284.024 C144.238,284.024,163.504,273.275,163.504,273.275 C163.504,273.275,160.939,271.813,160.939,271.813 z"/>
          </defs>
          <use xlink:href="#13" style="fill:#ffffff;fill-opacity:0.851966;fill-rule:evenodd;opacity:1;stroke:none;"/>
        </g>
      </defs>
      <use xlink:href="#12"/>
      <defs>
        <title>Shape 49 Copy</title>
        <g id="14">
          <defs>
            <path id="15" d="M180.003,239.22 C180.003,239.22,182.454,240.611,182.454,240.611 C182.454,240.611,182.454,218.888,182.454,218.888 C182.454,218.888,180.003,217.491,180.003,217.491 C180.003,217.491,177.553,218.888,177.553,218.888 C177.553,218.888,177.562,240.611,177.562,240.611 C177.562,240.611,180.003,239.22,180.003,239.22 z"/>
          </defs>
          <use xlink:href="#15" style="fill:#ffffff;fill-opacity:0.851966;fill-rule:evenodd;opacity:1;stroke:none;"/>
        </g>
      </defs>
      <use xlink:href="#14"/>
      <defs>
        <title>Shape 49 Copy</title>
        <g id="16">
          <defs>
            <path id="17" d="M199.068,271.813 C199.068,271.813,199.068,269.128,199.068,269.128 C199.068,269.128,218.132,280.001,218.132,280.001 C218.132,280.001,218.132,282.636,218.132,282.636 C218.132,282.636,215.712,284.018,215.712,284.018 C215.712,284.018,196.64,273.196,196.64,273.196 C196.64,273.196,199.068,271.813,199.068,271.813 z"/>
          </defs>
          <use xlink:href="#17" style="fill:#ffffff;fill-opacity:0.851966;fill-rule:evenodd;opacity:1;stroke:none;"/>
        </g>
      </defs>
      <use xlink:href="#16"/>
    </g>
  </g>
  <g id="18">
    <title>Group Copy Copy</title>
    <g id="19">
      <title>Group</title>
      <defs>
        <title>Shape 27</title>
        <g id="20">
          <defs>
            <path id="21" d="M253.811,239.22 C253.811,239.22,215.682,260.949,215.682,260.949 C215.682,260.949,215.682,304.406,215.682,304.406 C215.682,304.406,253.811,282.677,253.811,282.677 C253.811,282.677,253.811,239.22,253.811,239.22"/>
          </defs>
          <use xlink:href="#21" style="fill:#0066cc;fill-opacity:0.251462;fill-rule:evenodd;opacity:1;stroke:none;"/>
        </g>
      </defs>
      <use xlink:href="#20"/>
      <defs>
        <title>Shape 28</title>
        <g id="22">
          <defs>
            <path id="23" d="M215.682,260.949 C215.682,260.949,177.553,239.22,177.553,239.22 C177.553,239.22,177.553,282.677,177.553,282.677 C177.553,282.677,215.682,304.406,215.682,304.406 C215.682,304.406,215.682,260.949,215.682,260.949"/>
          </defs>
          <use xlink:href="#23" style="fill:#0066cc;fill-opacity:0.251462;fill-rule:evenodd;opacity:1;stroke:none;"/>
        </g>
      </defs>
      <use xlink:href="#22"/>
      <defs>
        <title>Shape 29</title>
        <g id="24">
          <defs>
            <path id="25" d="M215.682,260.949 C215.682,260.949,177.553,239.22,177.553,239.22 C177.553,239.22,215.682,217.491,215.682,217.491 C215.682,217.491,253.811,239.22,253.811,239.22 C253.811,239.22,215.682,260.949,215.682,260.949"/>
          </defs>
          <use xlink:href="#25" style="fill:#0066cc;fill-opacity:0.251462;fill-rule:evenodd;opacity:1;stroke:none;"/>
        </g>
      </defs>
      <use xlink:href="#24"/>
    </g>
    <g id="26">
      <title>White Overlay</title>
      <defs>
        <title>Smart Polygon Copy Copy</title>
        <g id="27">
          <defs>
            <path id="28" d="M215.682,239.22 C215.682,239.22,234.746,250.084,234.746,250.084 C234.746,250.084,234.746,271.813,234.746,271.813 C234.746,271.813,215.682,282.677,215.682,282.677 C215.682,282.677,196.617,271.813,196.617,271.813 C196.617,271.813,196.617,250.084,196.617,250.084 C196.617,250.084,215.682,239.22,215.682,239.22 z"/>
          </defs>
          <use xlink:href="#28" style="fill:#ffffff;fill-opacity:0.853805;fill-rule:nonzero;opacity:1;stroke:none;"/>
        </g>
      </defs>
      <use xlink:href="#27"/>
      <defs>
        <title>Shape 49</title>
        <g id="29">
          <defs>
            <path id="30" d="M196.617,271.813 C196.617,271.813,196.617,269.128,196.617,269.128 C196.617,269.128,177.553,279.903,177.553,279.903 C177.553,279.903,177.553,282.677,177.553,282.677 C177.553,282.677,179.917,284.024,179.917,284.024 C179.917,284.024,199.183,273.275,199.183,273.275 C199.183,273.275,196.617,271.813,196.617,271.813 z"/>
          </defs>
          <use xlink:href="#30" style="fill:#ffffff;fill-opacity:0.851966;fill-rule:evenodd;opacity:1;stroke:none;"/>
        </g>
      </defs>
      <use xlink:href="#29"/>
      <defs>
        <title>Shape 49 Copy</title>
        <g id="31">
          <defs>
            <path id="32" d="M215.682,239.22 C215.682,239.22,218.132,240.611,218.132,240.611 C218.132,240.611,218.132,218.888,218.132,218.888 C218.132,218.888,215.682,217.491,215.682,217.491 C215.682,217.491,213.232,218.888,213.232,218.888 C213.232,218.888,213.24,240.611,213.24,240.611 C213.24,240.611,215.682,239.22,215.682,239.22 z"/>
          </defs>
          <use xlink:href="#32" style="fill:#ffffff;fill-opacity:0.851966;fill-rule:evenodd;opacity:1;stroke:none;"/>
        </g>
      </defs>
      <use xlink:href="#31"/>
      <defs>
        <title>Shape 49 Copy</title>
        <g id="33">
          <defs>
            <path id="34" d="M234.746,271.813 C234.746,271.813,234.746,269.128,234.746,269.128 C234.746,269.128,253.811,280.001,253.811,280.001 C253.811,280.001,253.811,282.636,253.811,282.636 C253.811,282.636,251.39,284.018,251.39,284.018 C251.39,284.018,232.319,273.196,232.319,273.196 C232.319,273.196,234.746,271.813,234.746,271.813 z"/>
          </defs>
          <use xlink:href="#34" style="fill:#ffffff;fill-opacity:0.851966;fill-rule:evenodd;opacity:1;stroke:none;"/>
        </g>
      </defs>
      <use xlink:href="#33"/>
    </g>
  </g>
  <g id="35">
    <title>Group Copy Copy Copy</title>
    <g id="36">
      <title>Group</title>
      <defs>
        <title>Shape 27</title>
        <g id="37">
          <defs>
            <path id="38" d="M289.49,239.22 C289.49,239.22,251.361,260.949,251.361,260.949 C251.361,260.949,251.361,304.406,251.361,304.406 C251.361,304.406,289.49,282.677,289.49,282.677 C289.49,282.677,289.49,239.22,289.49,239.22"/>
          </defs>
          <use xlink:href="#38" style="fill:#0066cc;fill-opacity:0.398236;fill-rule:evenodd;opacity:1;stroke:none;"/>
        </g>
      </defs>
      <use xlink:href="#37"/>
      <defs>
        <title>Shape 28</title>
        <g id="39">
          <defs>
            <path id="40" d="M251.361,260.949 C251.361,260.949,213.232,239.22,213.232,239.22 C213.232,239.22,213.232,282.677,213.232,282.677 C213.232,282.677,251.361,304.406,251.361,304.406 C251.361,304.406,251.361,260.949,251.361,260.949"/>
          </defs>
          <use xlink:href="#40" style="fill:#0066cc;fill-opacity:0.398236;fill-rule:evenodd;opacity:1;stroke:none;"/>
        </g>
      </defs>
      <use xlink:href="#39"/>
      <defs>
        <title>Shape 29</title>
        <g id="41">
          <defs>
            <path id="42" d="M251.361,260.949 C251.361,260.949,213.232,239.22,213.232,239.22 C213.232,239.22,251.361,217.491,251.361,217.491 C251.361,217.491,289.49,239.22,289.49,239.22 C289.49,239.22,251.361,260.949,251.361,260.949"/>
          </defs>
          <use xlink:href="#42" style="fill:#0066cc;fill-opacity:0.398236;fill-rule:evenodd;opacity:1;stroke:none;"/>
        </g>
      </defs>
      <use xlink:href="#41"/>
    </g>
    <g id="43">
      <title>White Overlay</title>
      <defs>
        <title>Smart Polygon Copy Copy</title>
        <g id="44">
          <defs>
            <path id="45" d="M251.361,239.22 C251.361,239.22,270.425,250.084,270.425,250.084 C270.425,250.084,270.425,271.813,270.425,271.813 C270.425,271.813,251.361,282.677,251.361,282.677 C251.361,282.677,232.296,271.813,232.296,271.813 C232.296,271.813,232.296,250.084,232.296,250.084 C232.296,250.084,251.361,239.22,251.361,239.22 z"/>
          </defs>
          <use xlink:href="#45" style="fill:#ffffff;fill-opacity:0.853805;fill-rule:nonzero;opacity:1;stroke:none;"/>
        </g>
      </defs>
      <use xlink:href="#44"/>
      <defs>
        <title>Shape 49</title>
        <g id="46">
          <defs>
            <path id="47" d="M232.296,271.813 C232.296,271.813,232.296,269.128,232.296,269.128 C232.296,269.128,213.232,279.903,213.232,279.903 C213.232,279.903,213.232,282.677,213.232,282.677 C213.232,282.677,215.596,284.024,215.596,284.024 C215.596,284.024,234.861,273.275,234.861,273.275 C234.861,273.275,232.296,271.813,232.296,271.813 z"/>
          </defs>
          <use xlink:href="#47" style="fill:#ffffff;fill-opacity:0.851966;fill-rule:evenodd;opacity:1;stroke:none;"/>
        </g>
      </defs>
      <use xlink:href="#46"/>
      <defs>
        <title>Shape 49 Copy</title>
        <g id="48">
          <defs>
            <path id="49" d="M251.361,239.22 C251.361,239.22,253.811,240.611,253.811,240.611 C253.811,240.611,253.811,218.888,253.811,218.888 C253.811,218.888,251.361,217.491,251.361,217.491 C251.361,217.491,248.91,218.888,248.91,218.888 C248.91,218.888,248.919,240.611,248.919,240.611 C248.919,240.611,251.361,239.22,251.361,239.22 z"/>
          </defs>
          <use xlink:href="#49" style="fill:#ffffff;fill-opacity:0.851966;fill-rule:evenodd;opacity:1;stroke:none;"/>
        </g>
      </defs>
      <use xlink:href="#48"/>
      <defs>
        <title>Shape 49 Copy</title>
        <g id="50">
          <defs>
            <path id="51" d="M270.425,271.813 C270.425,271.813,270.425,269.128,270.425,269.128 C270.425,269.128,289.49,280.001,289.49,280.001 C289.49,280.001,289.49,282.636,289.49,282.636 C289.49,282.636,287.069,284.018,287.069,284.018 C287.069,284.018,267.998,273.196,267.998,273.196 C267.998,273.196,270.425,271.813,270.425,271.813 z"/>
          </defs>
          <use xlink:href="#51" style="fill:#ffffff;fill-opacity:0.851966;fill-rule:evenodd;opacity:1;stroke:none;"/>
        </g>
      </defs>
      <use xlink:href="#50"/>
    </g>
  </g>
  <g id="52">
    <title>Group Copy Copy Copy Copy</title>
    <g id="53">
      <title>Group</title>
      <defs>
        <title>Shape 27</title>
        <g id="54">
          <defs>
            <path id="55" d="M325.168,239.22 C325.168,239.22,287.039,260.949,287.039,260.949 C287.039,260.949,287.039,304.406,287.039,304.406 C287.039,304.406,325.168,282.677,325.168,282.677 C325.168,282.677,325.168,239.22,325.168,239.22"/>
          </defs>
          <use xlink:href="#55" style="fill:#0066cc;fill-opacity:0.548059;fill-rule:evenodd;opacity:1;stroke:none;"/>
        </g>
      </defs>
      <use xlink:href="#54"/>
      <defs>
        <title>Shape 28</title>
        <g id="56">
          <defs>
            <path id="57" d="M287.039,260.949 C287.039,260.949,248.91,239.22,248.91,239.22 C248.91,239.22,248.91,282.677,248.91,282.677 C248.91,282.677,287.039,304.406,287.039,304.406 C287.039,304.406,287.039,260.949,287.039,260.949"/>
          </defs>
          <use xlink:href="#57" style="fill:#0066cc;fill-opacity:0.548059;fill-rule:evenodd;opacity:1;stroke:none;"/>
        </g>
      </defs>
      <use xlink:href="#56"/>
      <defs>
        <title>Shape 29</title>
        <g id="58">
          <defs>
            <path id="59" d="M287.039,260.949 C287.039,260.949,248.91,239.22,248.91,239.22 C248.91,239.22,287.039,217.491,287.039,217.491 C287.039,217.491,325.168,239.22,325.168,239.22 C325.168,239.22,287.039,260.949,287.039,260.949"/>
          </defs>
          <use xlink:href="#59" style="fill:#0066cc;fill-opacity:0.548059;fill-rule:evenodd;opacity:1;stroke:none;"/>
        </g>
      </defs>
      <use xlink:href="#58"/>
    </g>
    <g id="60">
      <title>White Overlay</title>
      <defs>
        <title>Smart Polygon Copy Copy</title>
        <g id="61">
          <defs>
            <path id="62" d="M287.039,239.22 C287.039,239.22,306.104,250.084,306.104,250.084 C306.104,250.084,306.104,271.813,306.104,271.813 C306.104,271.813,287.039,282.677,287.039,282.677 C287.039,282.677,267.975,271.813,267.975,271.813 C267.975,271.813,267.975,250.084,267.975,250.084 C267.975,250.084,287.039,239.22,287.039,239.22 z"/>
          </defs>
          <use xlink:href="#62" style="fill:#ffffff;fill-opacity:0.853805;fill-rule:nonzero;opacity:1;stroke:none;"/>
        </g>
      </defs>
      <use xlink:href="#61"/>
      <defs>
        <title>Shape 49</title>
        <g id="63">
          <defs>
            <path id="64" d="M267.975,271.813 C267.975,271.813,267.975,269.128,267.975,269.128 C267.975,269.128,248.91,279.903,248.91,279.903 C248.91,279.903,248.91,282.677,248.91,282.677 C248.91,282.677,251.274,284.024,251.274,284.024 C251.274,284.024,270.54,273.275,270.54,273.275 C270.54,273.275,267.975,271.813,267.975,271.813 z"/>
          </defs>
          <use xlink:href="#64" style="fill:#ffffff;fill-opacity:0.851966;fill-rule:evenodd;opacity:1;stroke:none;"/>
        </g>
      </defs>
      <use xlink:href="#63"/>
      <defs>
        <title>Shape 49 Copy</title>
        <g id="65">
          <defs>
            <path id="66" d="M287.039,239.22 C287.039,239.22,289.49,240.611,289.49,240.611 C289.49,240.611,289.49,218.888,289.49,218.888 C289.49,218.888,287.039,217.491,287.039,217.491 C287.039,217.491,284.589,218.888,284.589,218.888 C284.589,218.888,284.598,240.611,284.598,240.611 C284.598,240.611,287.039,239.22,287.039,239.22 z"/>
          </defs>
          <use xlink:href="#66" style="fill:#ffffff;fill-opacity:0.851966;fill-rule:evenodd;opacity:1;stroke:none;"/>
        </g>
      </defs>
      <use xlink:href="#65"/>
      <defs>
        <title>Shape 49 Copy</title>
        <g id="67">
          <defs>
            <path id="68" d="M306.104,271.813 C306.104,271.813,306.104,269.128,306.104,269.128 C306.104,269.128,325.168,280.001,325.168,280.001 C325.168,280.001,325.168,282.636,325.168,282.636 C325.168,282.636,322.748,284.018,322.748,284.018 C322.748,284.018,303.676,273.196,303.676,273.196 C303.676,273.196,306.104,271.813,306.104,271.813 z"/>
          </defs>
          <use xlink:href="#68" style="fill:#ffffff;fill-opacity:0.851966;fill-rule:evenodd;opacity:1;stroke:none;"/>
        </g>
      </defs>
      <use xlink:href="#67"/>
    </g>
  </g>
  <g id="69">
    <title>Group Copy Copy Copy Copy Copy</title>
    <g id="70">
      <title>Group</title>
      <defs>
        <title>Shape 27</title>
        <g id="71">
          <defs>
            <path id="72" d="M363.297,239.22 C363.297,239.22,325.168,260.949,325.168,260.949 C325.168,260.949,325.168,304.406,325.168,304.406 C325.168,304.406,363.297,282.677,363.297,282.677 C363.297,282.677,363.297,239.22,363.297,239.22"/>
          </defs>
          <use xlink:href="#72" style="fill:#0066cc;fill-opacity:0.704839;fill-rule:evenodd;opacity:1;stroke:none;"/>
        </g>
      </defs>
      <use xlink:href="#71"/>
      <defs>
        <title>Shape 28</title>
        <g id="73">
          <defs>
            <path id="74" d="M325.168,260.949 C325.168,260.949,287.039,239.22,287.039,239.22 C287.039,239.22,287.039,282.677,287.039,282.677 C287.039,282.677,325.168,304.406,325.168,304.406 C325.168,304.406,325.168,260.949,325.168,260.949"/>
          </defs>
          <use xlink:href="#74" style="fill:#0066cc;fill-opacity:0.704839;fill-rule:evenodd;opacity:1;stroke:none;"/>
        </g>
      </defs>
      <use xlink:href="#73"/>
      <defs>
        <title>Shape 29</title>
        <g id="75">
          <defs>
            <path id="76" d="M325.168,260.949 C325.168,260.949,287.039,239.22,287.039,239.22 C287.039,239.22,325.168,217.491,325.168,217.491 C325.168,217.491,363.297,239.22,363.297,239.22 C363.297,239.22,325.168,260.949,325.168,260.949"/>
          </defs>
          <use xlink:href="#76" style="fill:#0066cc;fill-opacity:0.704839;fill-rule:evenodd;opacity:1;stroke:none;"/>
        </g>
      </defs>
      <use xlink:href="#75"/>
    </g>
    <g id="77">
      <title>White Overlay</title>
      <defs>
        <title>Smart Polygon Copy Copy</title>
        <g id="78">
          <defs>
            <path id="79" d="M325.168,239.22 C325.168,239.22,344.233,250.084,344.233,250.084 C344.233,250.084,344.233,271.813,344.233,271.813 C344.233,271.813,325.168,282.677,325.168,282.677 C325.168,282.677,306.104,271.813,306.104,271.813 C306.104,271.813,306.104,250.084,306.104,250.084 C306.104,250.084,325.168,239.22,325.168,239.22 z"/>
          </defs>
          <use xlink:href="#79" style="fill:#ffffff;fill-opacity:0.853805;fill-rule:nonzero;opacity:1;stroke:none;"/>
        </g>
      </defs>
      <use xlink:href="#78"/>
      <defs>
        <title>Shape 49</title>
        <g id="80">
          <defs>
            <path id="81" d="M306.104,271.813 C306.104,271.813,306.104,269.128,306.104,269.128 C306.104,269.128,287.039,279.903,287.039,279.903 C287.039,279.903,287.039,282.677,287.039,282.677 C287.039,282.677,289.403,284.024,289.403,284.024 C289.403,284.024,308.669,273.275,308.669,273.275 C308.669,273.275,306.104,271.813,306.104,271.813 z"/>
          </defs>
          <use xlink:href="#81" style="fill:#ffffff;fill-opacity:0.851966;fill-rule:evenodd;opacity:1;stroke:none;"/>
        </g>
      </defs>
      <use xlink:href="#80"/>
      <defs>
        <title>Shape 49 Copy</title>
        <g id="82">
          <defs>
            <path id="83" d="M325.168,239.22 C325.168,239.22,327.619,240.611,327.619,240.611 C327.619,240.611,327.619,218.888,327.619,218.888 C327.619,218.888,325.168,217.491,325.168,217.491 C325.168,217.491,322.718,218.888,322.718,218.888 C322.718,218.888,322.727,240.611,322.727,240.611 C322.727,240.611,325.168,239.22,325.168,239.22 z"/>
          </defs>
          <use xlink:href="#83" style="fill:#ffffff;fill-opacity:0.851966;fill-rule:evenodd;opacity:1;stroke:none;"/>
        </g>
      </defs>
      <use xlink:href="#82"/>
      <defs>
        <title>Shape 49 Copy</title>
        <g id="84">
          <defs>
            <path id="85" d="M344.233,271.813 C344.233,271.813,344.233,269.128,344.233,269.128 C344.233,269.128,363.297,280.001,363.297,280.001 C363.297,280.001,363.297,282.636,363.297,282.636 C363.297,282.636,360.877,284.018,360.877,284.018 C360.877,284.018,341.805,273.196,341.805,273.196 C341.805,273.196,344.233,271.813,344.233,271.813 z"/>
          </defs>
          <use xlink:href="#85" style="fill:#ffffff;fill-opacity:0.851966;fill-rule:evenodd;opacity:1;stroke:none;"/>
        </g>
      </defs>
      <use xlink:href="#84"/>
    </g>
  </g>
  <g id="86">
    <title>Group Copy Copy Copy Copy Copy Copy</title>
    <g id="87">
      <title>Group</title>
      <defs>
        <title>Shape 27</title>
        <g id="88">
          <defs>
            <path id="89" d="M398.976,239.22 C398.976,239.22,360.847,260.949,360.847,260.949 C360.847,260.949,360.847,304.406,360.847,304.406 C360.847,304.406,398.976,282.677,398.976,282.677 C398.976,282.677,398.976,239.22,398.976,239.22"/>
          </defs>
          <use xlink:href="#89" style="fill:#0066cc;fill-opacity:0.855393;fill-rule:evenodd;opacity:1;stroke:none;"/>
        </g>
      </defs>
      <use xlink:href="#88"/>
      <defs>
        <title>Shape 28</title>
        <g id="90">
          <defs>
            <path id="91" d="M360.847,260.949 C360.847,260.949,322.718,239.22,322.718,239.22 C322.718,239.22,322.718,282.677,322.718,282.677 C322.718,282.677,360.847,304.406,360.847,304.406 C360.847,304.406,360.847,260.949,360.847,260.949"/>
          </defs>
          <use xlink:href="#91" style="fill:#0066cc;fill-opacity:0.855393;fill-rule:evenodd;opacity:1;stroke:none;"/>
        </g>
      </defs>
      <use xlink:href="#90"/>
      <defs>
        <title>Shape 29</title>
        <g id="92">
          <defs>
            <path id="93" d="M360.847,260.949 C360.847,260.949,322.718,239.22,322.718,239.22 C322.718,239.22,360.847,217.491,360.847,217.491 C360.847,217.491,398.976,239.22,398.976,239.22 C398.976,239.22,360.847,260.949,360.847,260.949"/>
          </defs>
          <use xlink:href="#93" style="fill:#0066cc;fill-opacity:0.855393;fill-rule:evenodd;opacity:1;stroke:none;"/>
        </g>
      </defs>
      <use xlink:href="#92"/>
    </g>
    <g id="94">
      <title>White Overlay</title>
      <defs>
        <title>Smart Polygon Copy Copy</title>
        <g id="95">
          <defs>
            <path id="96" d="M360.847,239.22 C360.847,239.22,379.911,250.084,379.911,250.084 C379.911,250.084,379.911,271.813,379.911,271.813 C379.911,271.813,360.847,282.677,360.847,282.677 C360.847,282.677,341.782,271.813,341.782,271.813 C341.782,271.813,341.782,250.084,341.782,250.084 C341.782,250.084,360.847,239.22,360.847,239.22 z"/>
          </defs>
          <use xlink:href="#96" style="fill:#ffffff;fill-opacity:0.853805;fill-rule:nonzero;opacity:1;stroke:none;"/>
        </g>
      </defs>
      <use xlink:href="#95"/>
      <defs>
        <title>Shape 49</title>
        <g id="97">
          <defs>
            <path id="98" d="M341.782,271.813 C341.782,271.813,341.783,269.128,341.783,269.128 C341.783,269.128,322.718,279.903,322.718,279.903 C322.718,279.903,322.718,282.677,322.718,282.677 C322.718,282.677,325.082,284.024,325.082,284.024 C325.082,284.024,344.348,273.275,344.348,273.275 C344.348,273.275,341.782,271.813,341.782,271.813 z"/>
          </defs>
          <use xlink:href="#98" style="fill:#ffffff;fill-opacity:0.851966;fill-rule:evenodd;opacity:1;stroke:none;"/>
        </g>
      </defs>
      <use xlink:href="#97"/>
      <defs>
        <title>Shape 49 Copy</title>
        <g id="99">
          <defs>
            <path id="100" d="M360.847,239.22 C360.847,239.22,363.297,240.611,363.297,240.611 C363.297,240.611,363.297,218.888,363.297,218.888 C363.297,218.888,360.847,217.491,360.847,217.491 C360.847,217.491,358.397,218.888,358.397,218.888 C358.397,218.888,358.405,240.611,358.405,240.611 C358.405,240.611,360.847,239.22,360.847,239.22 z"/>
          </defs>
          <use xlink:href="#100" style="fill:#ffffff;fill-opacity:0.851966;fill-rule:evenodd;opacity:1;stroke:none;"/>
        </g>
      </defs>
      <use xlink:href="#99"/>
      <defs>
        <title>Shape 49 Copy</title>
        <g id="101">
          <defs>
            <path id="102" d="M379.911,271.813 C379.911,271.813,379.911,269.128,379.911,269.128 C379.911,269.128,398.976,280.001,398.976,280.001 C398.976,280.001,398.976,282.636,398.976,282.636 C398.976,282.636,396.555,284.018,396.555,284.018 C396.555,284.018,377.484,273.196,377.484,273.196 C377.484,273.196,379.911,271.813,379.911,271.813 z"/>
          </defs>
          <use xlink:href="#102" style="fill:#ffffff;fill-opacity:0.851966;fill-rule:evenodd;opacity:1;stroke:none;"/>
        </g>
      </defs>
      <use xlink:href="#101"/>
    </g>
  </g>
  <g id="103">
    <title>Group Copy Copy Copy Copy Copy Copy Copy</title>
    <g id="104">
      <title>Group</title>
      <defs>
        <title>Shape 27</title>
        <g id="105">
          <defs>
            <path id="106" d="M437.105,239.22 C437.105,239.22,398.976,260.949,398.976,260.949 C398.976,260.949,398.976,304.406,398.976,304.406 C398.976,304.406,437.105,282.677,437.105,282.677 C437.105,282.677,437.105,239.22,437.105,239.22"/>
          </defs>
          <use xlink:href="#106" style="fill:#0066cc;fill-opacity:1;fill-rule:evenodd;opacity:1;stroke:none;"/>
        </g>
      </defs>
      <use xlink:href="#105"/>
      <defs>
        <title>Shape 28</title>
        <g id="107">
          <defs>
            <path id="108" d="M398.976,260.949 C398.976,260.949,360.847,239.22,360.847,239.22 C360.847,239.22,360.847,282.677,360.847,282.677 C360.847,282.677,398.976,304.406,398.976,304.406 C398.976,304.406,398.976,260.949,398.976,260.949"/>
          </defs>
          <use xlink:href="#108" style="fill:#0066cc;fill-opacity:1;fill-rule:evenodd;opacity:1;stroke:none;"/>
        </g>
      </defs>
      <use xlink:href="#107"/>
      <defs>
        <title>Shape 29</title>
        <g id="109">
          <defs>
            <path id="110" d="M398.976,260.949 C398.976,260.949,360.847,239.22,360.847,239.22 C360.847,239.22,398.976,217.491,398.976,217.491 C398.976,217.491,437.105,239.22,437.105,239.22 C437.105,239.22,398.976,260.949,398.976,260.949"/>
          </defs>
          <use xlink:href="#110" style="fill:#0066cc;fill-opacity:1;fill-rule:evenodd;opacity:1;stroke:none;"/>
        </g>
      </defs>
      <use xlink:href="#109"/>
    </g>
    <g id="111">
      <title>White Overlay</title>
      <defs>
        <title>Smart Polygon Copy Copy</title>
        <g id="112">
          <defs>
            <path id="113" d="M398.976,239.22 C398.976,239.22,418.04,250.084,418.04,250.084 C418.04,250.084,418.04,271.813,418.04,271.813 C418.04,271.813,398.976,282.677,398.976,282.677 C398.976,282.677,379.911,271.813,379.911,271.813 C379.911,271.813,379.911,250.084,379.911,250.084 C379.911,250.084,398.976,239.22,398.976,239.22 z"/>
          </defs>
          <use xlink:href="#113" style="fill:#ffffff;fill-opacity:0.853805;fill-rule:nonzero;opacity:1;stroke:none;"/>
        </g>
      </defs>
      <use xlink:href="#112"/>
      <defs>
        <title>Shape 49</title>
        <g id="114">
          <defs>
            <path id="115" d="M379.911,271.813 C379.911,271.813,379.911,269.128,379.911,269.128 C379.911,269.128,360.847,279.903,360.847,279.903 C360.847,279.903,360.847,282.677,360.847,282.677 C360.847,282.677,363.211,284.024,363.211,284.024 C363.211,284.024,382.477,273.275,382.477,273.275 C382.477,273.275,379.911,271.813,379.911,271.813 z"/>
          </defs>
          <use xlink:href="#115" style="fill:#ffffff;fill-opacity:0.851966;fill-rule:evenodd;opacity:1;stroke:none;"/>
        </g>
      </defs>
      <use xlink:href="#114"/>
      <defs>
        <title>Shape 49 Copy</title>
        <g id="116">
          <defs>
            <path id="117" d="M398.976,239.22 C398.976,239.22,401.426,240.611,401.426,240.611 C401.426,240.611,401.426,218.888,401.426,218.888 C401.426,218.888,398.976,217.491,398.976,217.491 C398.976,217.491,396.526,218.888,396.526,218.888 C396.526,218.888,396.534,240.611,396.534,240.611 C396.534,240.611,398.976,239.22,398.976,239.22 z"/>
          </defs>
          <use xlink:href="#117" style="fill:#ffffff;fill-opacity:0.851966;fill-rule:evenodd;opacity:1;stroke:none;"/>
        </g>
      </defs>
      <use xlink:href="#116"/>
      <defs>
        <title>Shape 49 Copy</title>
        <g id="118">
          <defs>
            <path id="119" d="M418.04,271.813 C418.04,271.813,418.04,269.128,418.04,269.128 C418.04,269.128,437.105,280.001,437.105,280.001 C437.105,280.001,437.105,282.636,437.105,282.636 C437.105,282.636,434.684,284.018,434.684,284.018 C434.684,284.018,415.613,273.196,415.613,273.196 C415.613,273.196,418.04,271.813,418.04,271.813 z"/>
          </defs>
          <use xlink:href="#119" style="fill:#ffffff;fill-opacity:0.851966;fill-rule:evenodd;opacity:1;stroke:none;"/>
        </g>
      </defs>
      <use xlink:href="#118"/>
    </g>
  </g>
</svg>
