<?xml version="1.0" encoding="utf-8"?>
<svg x="126.533pt" y="123.557pt" width="512pt" height="512pt" viewBox="126.533 123.557 512 512" xmlns="http://www.w3.org/2000/svg" xmlns:xlink="http://www.w3.org/1999/xlink">
  <g id="1">
    <title>Grünblau</title>
    <g id="2">
      <title>Group</title>
      <g id="3">
        <title>Group</title>
        <linearGradient x1="591.933" y1="501.213" x2="391.962" y2="376.781" gradientUnits="userSpaceOnUse" id="6">
          <stop offset="0.527429" style="stop-color:#3cd3f6;stop-opacity:1;"/>
          <stop offset="1" style="stop-color:#aaedff;stop-opacity:1;"/>
        </linearGradient>
        <defs>
          <title>Shape 27</title>
          <g id="4">
            <defs>
              <path id="5" d="M598.349,257.09 C598.349,257.09,385.545,378.361,385.545,378.361 C385.545,378.361,385.545,620.904,385.545,620.904 C385.545,620.904,598.349,499.403,598.349,499.403 C598.349,499.403,598.349,257.09,598.349,257.09"/>
            </defs>
            <use xlink:href="#5" style="fill:url(#6);fill-opacity:1;fill-rule:evenodd;opacity:1;stroke:none;"/>
          </g>
        </defs>
        <use xlink:href="#4"/>
        <linearGradient x1="172.741" y1="438.997" x2="385.545" y2="438.997" gradientUnits="userSpaceOnUse" id="9">
          <stop style="stop-color:#54ff85;stop-opacity:1;"/>
          <stop offset="1" style="stop-color:#aff456;stop-opacity:1;"/>
        </linearGradient>
        <defs>
          <title>Shape 28</title>
          <g id="7">
            <defs>
              <path id="8" d="M385.545,378.361 C385.545,378.361,172.741,257.09,172.741,257.09 C172.741,257.09,172.741,499.632,172.741,499.632 C172.741,499.632,385.545,620.904,385.545,620.904 C385.545,620.904,385.545,378.361,385.545,378.361"/>
            </defs>
            <use xlink:href="#8" style="fill:url(#9);fill-opacity:1;fill-rule:evenodd;opacity:1;stroke:none;"/>
          </g>
        </defs>
        <use xlink:href="#7"/>
        <linearGradient x1="389.259" y1="135.837" x2="381.831" y2="378.343" gradientUnits="userSpaceOnUse" id="12">
          <stop offset="0.0024966" style="stop-color:#3d50ff;stop-opacity:1;"/>
          <stop offset="0.40625" style="stop-color:#3d97ff;stop-opacity:1;"/>
          <stop offset="1" style="stop-color:#e1d1ff;stop-opacity:1;"/>
        </linearGradient>
        <defs>
          <title>Shape 29</title>
          <g id="10">
            <defs>
              <path id="11" d="M385.545,378.361 C385.545,378.361,172.741,257.09,172.741,257.09 C172.741,257.09,385.545,135.819,385.545,135.819 C385.545,135.819,598.349,257.09,598.349,257.09 C598.349,257.09,385.545,378.361,385.545,378.361"/>
            </defs>
            <use xlink:href="#11" style="fill:url(#12);fill-opacity:1;fill-rule:evenodd;opacity:1;stroke:none;"/>
          </g>
        </defs>
        <use xlink:href="#10"/>
      </g>
      <g id="13">
        <title>White Overlay</title>
        <defs>
          <title>Smart Polygon Copy Copy</title>
          <g id="14">
            <defs>
              <path id="15" d="M385.545,257.09 C385.545,257.09,491.947,317.726,491.947,317.726 C491.947,317.726,491.947,438.997,491.947,438.997 C491.947,438.997,385.545,499.632,385.545,499.632 C385.545,499.632,279.143,438.997,279.143,438.997 C279.143,438.997,279.143,317.726,279.143,317.726 C279.143,317.726,385.545,257.09,385.545,257.09 z"/>
            </defs>
            <use xlink:href="#15" style="fill:#ffffff;fill-opacity:0.853805;fill-rule:nonzero;opacity:1;stroke:none;"/>
          </g>
        </defs>
        <use xlink:href="#14"/>
        <defs>
          <title>Shape 49</title>
          <g id="16">
            <defs>
              <path id="17" d="M279.143,438.997 C279.143,438.997,279.143,424.009,279.143,424.009 C279.143,424.009,172.741,484.148,172.741,484.148 C172.741,484.148,172.741,499.632,172.741,499.632 C172.741,499.632,185.935,507.151,185.935,507.151 C185.935,507.151,293.461,447.156,293.461,447.156 C293.461,447.156,279.143,438.997,279.143,438.997 z"/>
            </defs>
            <use xlink:href="#17" style="fill:#ffffff;fill-opacity:0.895489;fill-rule:evenodd;opacity:1;stroke:none;"/>
          </g>
        </defs>
        <use xlink:href="#16"/>
        <defs>
          <title>Shape 49 Copy</title>
          <g id="18">
            <defs>
              <path id="19" d="M385.545,257.09 C385.545,257.09,399.222,264.855,399.222,264.855 C399.222,264.855,399.222,143.613,399.222,143.613 C399.222,143.613,385.545,135.819,385.545,135.819 C385.545,135.819,371.87,143.612,371.87,143.612 C371.87,143.612,371.919,264.855,371.919,264.855 C371.919,264.855,385.545,257.09,385.545,257.09 z"/>
            </defs>
            <use xlink:href="#19" style="fill:#ffffff;fill-opacity:0.895489;fill-rule:evenodd;opacity:1;stroke:none;"/>
          </g>
        </defs>
        <use xlink:href="#18"/>
        <defs>
          <title>Shape 49 Copy</title>
          <g id="20">
            <defs>
              <path id="21" d="M491.947,438.997 C491.947,438.997,491.947,424.009,491.947,424.009 C491.947,424.009,598.349,484.695,598.349,484.695 C598.349,484.695,598.349,499.403,598.349,499.403 C598.349,499.403,584.84,507.117,584.84,507.117 C584.84,507.117,478.4,446.717,478.4,446.717 C478.4,446.717,491.947,438.997,491.947,438.997 z"/>
            </defs>
            <use xlink:href="#21" style="fill:#ffffff;fill-opacity:0.895489;fill-rule:evenodd;opacity:1;stroke:none;"/>
          </g>
        </defs>
        <use xlink:href="#20"/>
      </g>
    </g>
  </g>
</svg>
