<?xml version="1.0" encoding="utf-8"?>
<svg x="127.556pt" y="0pt" width="281.064pt" height="302pt" viewBox="127.556 0 281.064 302" xmlns="http://www.w3.org/2000/svg" xmlns:xlink="http://www.w3.org/1999/xlink">
  <g id="1">
    <title>Layer 1</title>
    <g id="2">
      <title>Group</title>
      <g id="3">
        <title>Group</title>
        <defs>
          <title>Shape 1</title>
          <g id="4">
            <defs>
              <path id="5" d="M212.9,183.4 C212.9,183.4,169.8,208.1,169.8,208.1"/>
            </defs>
            <use xlink:href="#5" style="fill:none;opacity:1;stroke:#65fdd5;stroke-linecap:butt;stroke-linejoin:miter;stroke-miterlimit:10;stroke-opacity:1;stroke-width:2;"/>
          </g>
        </defs>
        <use xlink:href="#4"/>
        <defs>
          <title>Shape 2</title>
          <g id="6">
            <defs>
              <path id="7" d="M212.9,119.6 C212.9,119.6,169.8,94.9,169.8,94.9"/>
            </defs>
            <use xlink:href="#7" style="fill:none;opacity:1;stroke:#65fdd5;stroke-linecap:butt;stroke-linejoin:miter;stroke-miterlimit:10;stroke-opacity:1;stroke-width:2;"/>
          </g>
        </defs>
        <use xlink:href="#6"/>
        <g id="8">
          <title>Group</title>
          <defs>
            <title>Shape 3</title>
            <g id="9">
              <defs>
                <path id="10" d="M186.1,208.4 C186.1,217.402,178.802,224.7,169.8,224.7 C160.798,224.7,153.5,217.402,153.5,208.4 C153.5,199.398,160.798,192.1,169.8,192.1 C178.802,192.1,186.1,199.398,186.1,208.4"/>
              </defs>
              <use xlink:href="#10" style="fill:#ecf2ff;fill-opacity:1;fill-rule:evenodd;opacity:1;stroke:none;"/>
            </g>
          </defs>
          <use xlink:href="#9"/>
        </g>
        <g id="11">
          <title>Group</title>
          <defs>
            <title>Shape 4</title>
            <g id="12">
              <defs>
                <path id="13" d="M186.1,94.9 C186.1,103.902,178.802,111.2,169.8,111.2 C160.798,111.2,153.5,103.902,153.5,94.9 C153.5,85.8978,160.798,78.6,169.8,78.6 C178.802,78.6,186.1,85.8978,186.1,94.9"/>
              </defs>
              <use xlink:href="#13" style="fill:#ecf2ff;fill-opacity:1;fill-rule:evenodd;opacity:1;stroke:none;"/>
            </g>
          </defs>
          <use xlink:href="#12"/>
        </g>
        <defs>
          <title>Shape 5</title>
          <g id="14">
            <defs>
              <path id="15" d="M268.5,99.4 C268.5,99.4,268.7,49.7,268.7,49.7"/>
            </defs>
            <use xlink:href="#15" style="fill:none;opacity:1;stroke:#65fdd5;stroke-linecap:butt;stroke-linejoin:miter;stroke-miterlimit:10;stroke-opacity:1;stroke-width:2;"/>
          </g>
        </defs>
        <use xlink:href="#14"/>
        <defs>
          <title>Shape 6</title>
          <g id="16">
            <defs>
              <path id="17" d="M268.5,264.5 C268.5,264.5,268.7,214.9,268.7,214.9"/>
            </defs>
            <use xlink:href="#17" style="fill:none;opacity:1;stroke:#65fdd5;stroke-linecap:butt;stroke-linejoin:miter;stroke-miterlimit:10;stroke-opacity:1;stroke-width:2;"/>
          </g>
        </defs>
        <use xlink:href="#16"/>
        <defs>
          <title>Shape 7</title>
          <g id="18">
            <defs>
              <path id="19" d="M325,183.4 C325,183.4,368.1,208.1,368.1,208.1"/>
            </defs>
            <use xlink:href="#19" style="fill:none;opacity:1;stroke:#65fdd5;stroke-linecap:butt;stroke-linejoin:miter;stroke-miterlimit:10;stroke-opacity:1;stroke-width:2;"/>
          </g>
        </defs>
        <use xlink:href="#18"/>
        <defs>
          <title>Shape 8</title>
          <g id="20">
            <defs>
              <path id="21" d="M325,119.6 C325,119.6,368.1,94.9,368.1,94.9"/>
            </defs>
            <use xlink:href="#21" style="fill:none;opacity:1;stroke:#65fdd5;stroke-linecap:butt;stroke-linejoin:miter;stroke-miterlimit:10;stroke-opacity:1;stroke-width:2;"/>
          </g>
        </defs>
        <use xlink:href="#20"/>
        <g id="22">
          <title>Group</title>
          <defs>
            <title>Shape 9</title>
            <g id="23">
              <defs>
                <path id="24" d="M384.4,208.4 C384.4,217.402,377.102,224.7,368.1,224.7 C359.098,224.7,351.8,217.402,351.8,208.4 C351.8,199.398,359.098,192.1,368.1,192.1 C377.102,192.1,384.4,199.398,384.4,208.4"/>
              </defs>
              <use xlink:href="#24" style="fill:#ecf2ff;fill-opacity:1;fill-rule:evenodd;opacity:1;stroke:none;"/>
            </g>
          </defs>
          <use xlink:href="#23"/>
        </g>
        <g id="25">
          <title>Group</title>
          <defs>
            <title>Shape 10</title>
            <g id="26">
              <defs>
                <path id="27" d="M284.8,253.7 C284.8,262.702,277.502,270,268.5,270 C259.498,270,252.2,262.702,252.2,253.7 C252.2,244.698,259.498,237.4,268.5,237.4 C277.502,237.4,284.8,244.698,284.8,253.7"/>
              </defs>
              <use xlink:href="#27" style="fill:#ecf2ff;fill-opacity:1;fill-rule:evenodd;opacity:1;stroke:none;"/>
            </g>
          </defs>
          <use xlink:href="#26"/>
        </g>
        <g id="28">
          <title>Group</title>
          <defs>
            <title>Shape 11</title>
            <g id="29">
              <defs>
                <path id="30" d="M384.4,94.9 C384.4,103.902,377.102,111.2,368.1,111.2 C359.098,111.2,351.8,103.902,351.8,94.9 C351.8,85.8978,359.098,78.6,368.1,78.6 C377.102,78.6,384.4,85.8978,384.4,94.9"/>
              </defs>
              <use xlink:href="#30" style="fill:#ecf2ff;fill-opacity:1;fill-rule:evenodd;opacity:1;stroke:none;"/>
            </g>
          </defs>
          <use xlink:href="#29"/>
        </g>
        <g id="31">
          <title>Group</title>
          <g id="32">
            <title>Group</title>
            <defs>
              <title>Shape 12</title>
              <g id="33">
                <defs>
                  <path id="34" d="M372.9,209.8 C372.3,209.6,371.6,209.4,370.9,209.4 C370.9,209,370.9,208.6,370.9,208.2 C371.8,207.3,372.3,205.8,372.3,204.1 C372.3,203.2,372.1,202.4,371.6,201.7 C372.3,200.8,372.3,199.7,372.3,198.8 C372.3,198.4,372,198.1,371.6,198.1 C370.433,198.1,369.267,198.1,368.1,198.1 C365.8,198.1,363.9,200,363.9,202.3 C363.9,202.9,363.9,203.5,363.9,204.1 C363.9,204.233,363.9,204.367,363.9,204.5 C363.9,204.6,363.9,204.6,363.9,204.7 C364,206.2,364.5,207.4,365.3,208.3 C365.3,208.7,365.3,209.1,365.3,209.5 C364.6,209.5,364,209.6,363.3,209.9 C361.7,210.5,360.4,211.9,359.9,213.5 C359.7,214,359.7,214.6,359.7,215.1 C359.7,215.333,359.7,215.567,359.7,215.8 C359.7,216.2,360,216.5,360.4,216.5 C365.533,216.5,370.667,216.5,375.8,216.5 C376.2,216.5,376.5,216.2,376.5,215.8 C376.5,215.567,376.5,215.333,376.5,215.1 C376.5,214.6,376.4,214,376.3,213.5 C375.8,211.8,374.6,210.4,372.9,209.8 z M368.1,199.7 C369.033,199.7,369.967,199.7,370.9,199.7 C370.9,200.4,370.7,200.9,370.3,201.3 C369.9,201.6,369.1,201.8,368.1,201.8 C367.2,201.8,366.2,201.5,366.2,201.5 C366.1,201.5,366.1,201.5,366,201.5 C366,201.5,366,201.5,366,201.5 C365.9,201.5,365.9,201.5,365.8,201.5 C365.8,201.5,365.8,201.5,365.8,201.5 C365.8,201.5,365.7,201.5,365.7,201.5 C365.7,201.5,365.7,201.5,365.7,201.5 C365.7,201.5,365.6,201.6,365.6,201.6 C365.6,201.6,365.5,201.7,365.5,201.7 C365.7,200.6,366.8,199.7,368.1,199.7 z M365.4,204.6 C365.4,204.6,365.4,204.6,365.4,204.6 C365.4,204.6,365.4,204.5,365.4,204.5 C365.4,204.5,365.4,204.5,365.4,204.4 C365.4,204.4,365.4,204.3,365.4,204.3 C365.4,204.3,365.4,204.2,365.4,204.2 C365.4,204.2,365.4,204.1,365.5,204.1 C365.5,204.1,365.5,204,365.5,204 C365.5,204,365.5,203.9,365.6,203.8 C365.6,203.8,365.6,203.7,365.7,203.7 C365.7,203.6,365.8,203.6,365.8,203.5 C365.8,203.5,365.8,203.4,365.9,203.4 C365.9,203.3,366,203.3,366,203.2 C366,203.2,366,203.1,366.1,203.1 C366.2,203,366.2,202.9,366.3,202.8 C366.7,202.9,367.5,203.1,368.2,203.1 C368.4,203.1,368.6,203.1,368.8,203.1 C368.9,203.1,368.9,203.1,369,203.1 C369.2,203.1,369.3,203.1,369.5,203 C369.5,203,369.5,203,369.6,203 C369.8,203,369.9,202.9,370.1,202.9 C370.1,202.9,370.2,202.9,370.2,202.9 C370.3,202.9,370.5,202.8,370.6,202.8 C370.6,202.8,370.6,202.8,370.7,202.8 C370.9,203.2,371.1,203.8,371.1,204.3 C371.1,205.8,370.7,206.9,369.9,207.6 C369.5,208,368.9,208.2,368.3,208.2 C367.7,208.2,367.1,208,366.7,207.6 C365.8,206.9,365.4,205.9,365.4,204.6 C365.4,204.6,365.4,204.6,365.4,204.6 z M367.4,215.1 C365.3,215.1,363.2,215.1,361.1,215.1 C361.1,214.7,361.2,214.3,361.3,213.9 C361.7,212.6,362.6,211.6,363.8,211.2 C364.3,211,364.8,210.9,365.3,210.9 C365.333,210.9,365.367,210.9,365.4,210.9 C365.7,211.7,366.5,212.3,367.4,212.3 C367.4,212.3,367.4,215.1,367.4,215.1 z M366.7,210.2 C366.7,210.2,366.7,210.2,366.7,210.2 C366.7,209.867,366.7,209.533,366.7,209.2 C366.7,209.2,366.7,209.2,366.7,209.2 C367.1,209.4,367.6,209.4,368.1,209.4 C368.6,209.4,369.1,209.3,369.5,209.2 C369.5,209.2,369.5,209.2,369.5,209.2 C369.5,209.467,369.5,209.733,369.5,210 C369.5,210,369.5,210,369.5,210 C369.5,210.033,369.5,210.067,369.5,210.1 C369.5,210.5,369.2,210.8,368.8,210.8 C368.333,210.8,367.867,210.8,367.4,210.8 C367.1,210.9,366.7,210.6,366.7,210.2 z M368.8,215.1 C368.8,214.167,368.8,213.233,368.8,212.3 C369.7,212.3,370.5,211.7,370.8,210.9 C370.833,210.9,370.867,210.9,370.9,210.9 C371.4,210.9,371.9,211,372.4,211.2 C373.6,211.7,374.6,212.7,374.9,213.9 C375,214.3,375.1,214.7,375.1,215.1 C375.1,215.1,368.8,215.1,368.8,215.1 z"/>
                </defs>
                <use xlink:href="#34" style="fill:#d3d8e2;fill-opacity:1;fill-rule:evenodd;opacity:1;stroke:none;"/>
              </g>
            </defs>
            <use xlink:href="#33"/>
          </g>
        </g>
        <defs>
          <title>Shape 13</title>
          <g id="35">
            <defs>
              <path id="36" d="M376.3,100.4 C375.8,98.7,374.5,97.4,372.9,96.8 C372.3,96.6,371.6,96.4,370.9,96.4 C370.9,96.1,370.9,95.8,370.9,95.5 C371.1,95.5,371.3,95.6,371.5,95.6 C372.9,95.6,373.4,94.7,373.4,94.6 C373.533,94.3,373.667,94,373.8,93.7 C373.467,93.6333,373.133,93.5667,372.8,93.5 C372.4,93.4,372.1,93.3,372,93.1 C371.9,93,371.9,92.8,372,92.8 C372,92.8,372,92.8,372,92.8 C372.1,92.4,372.2,92,372.2,91.6 C372.2,91.5,372.2,91.5,372.2,91.4 C372.2,91.2667,372.2,91.1333,372.2,91 C372.2,90.4,372.2,89.8,372.2,89.2 C372.2,88.1,371.8,87,371,86.2 C370.2,85.4,369.2,85,368,85 C365.7,85,363.8,86.9,363.8,89.2 C363.8,89.8,363.8,90.4,363.8,91 C363.8,91.1333,363.8,91.2667,363.8,91.4 C363.8,91.5,363.8,91.5,363.8,91.6 C363.8,92,363.9,92.5,364,92.8 C364,92.8,364,92.8,364,92.8 C364,92.8,364,93,364,93.1 C363.9,93.3,363.6,93.4,363.2,93.5 C362.867,93.5667,362.533,93.6333,362.2,93.7 C362.333,94,362.467,94.3,362.6,94.6 C362.6,94.6,363.1,95.6,364.5,95.6 C364.7,95.6,364.9,95.6,365.1,95.5 C365.1,95.8,365.1,96.1,365.1,96.4 C365.1,96.4,365.1,96.4,365.1,96.4 C364.4,96.4,363.8,96.5,363.1,96.8 C361.5,97.4,360.2,98.8,359.7,100.4 C359.5,100.9,359.5,101.5,359.5,102 C359.5,102.233,359.5,102.467,359.5,102.7 C359.5,103.1,359.8,103.4,360.2,103.4 C365.333,103.4,370.467,103.4,375.6,103.4 C376,103.4,376.3,103.1,376.3,102.7 C376.3,102.7,376.3,102,376.3,102 C376.6,101.4,376.5,100.9,376.3,100.4 z M366.7,97.1 C366.7,97.1,366.7,97.1,366.7,97.1 C366.7,96.7667,366.7,96.4333,366.7,96.1 C366.7,96.1,366.7,96.1,366.7,96.1 C367.1,96.3,367.6,96.3,368.1,96.3 C368.1,96.3,368.1,96.3,368.1,96.3 C368.1,96.3,368.1,96.3,368.1,96.3 C368.6,96.3,369.1,96.2,369.5,96.1 C369.5,96.1,369.5,96.1,369.5,96.1 C369.5,96.1,369.5,97,369.5,97 C369.5,97,369.5,97,369.5,97 C369.5,97,369.5,97,369.5,97 C369.5,97.0333,369.5,97.0667,369.5,97.1 C369.5,97.5,369.2,97.8,368.8,97.8 C368.333,97.8,367.867,97.8,367.4,97.8 C367.1,97.8,366.7,97.5,366.7,97.1 z M368.1,86.6 C368.8,86.6,369.6,86.9,370.1,87.4 C370.5,87.8,370.7,88.2,370.8,88.7 C370.8,88.7,370.7,88.6,370.7,88.6 C370.5,88.4,370.2,88.3,370,88.4 C370,88.4,369,88.7,368.1,88.7 C367.2,88.7,366.2,88.4,366.2,88.4 C366.1,88.4,366.1,88.4,366,88.4 C366,88.4,366,88.4,366,88.4 C365.9,88.4,365.9,88.4,365.8,88.4 C365.8,88.4,365.8,88.4,365.8,88.4 C365.8,88.4,365.7,88.4,365.7,88.4 C365.7,88.4,365.7,88.4,365.7,88.4 C365.7,88.4,365.6,88.5,365.6,88.5 C365.6,88.5,365.5,88.6,365.5,88.6 C365.7,87.5,366.8,86.6,368.1,86.6 z M365.4,91.5 C365.4,91.5,365.4,91.5,365.4,91.5 C365.4,91.5,365.4,91.4,365.4,91.4 C365.4,91.4,365.4,91.4,365.4,91.3 C365.4,91.3,365.4,91.2,365.4,91.2 C365.4,91.2,365.4,91.1,365.4,91.1 C365.4,91.1,365.4,91,365.5,91 C365.5,91,365.5,90.9,365.5,90.9 C365.5,90.9,365.5,90.8,365.6,90.7 C365.6,90.7,365.6,90.6,365.7,90.6 C365.7,90.5,365.8,90.5,365.8,90.4 C365.8,90.4,365.8,90.3,365.9,90.3 C365.9,90.2,366,90.2,366,90.1 C366,90.1,366,90,366.1,90 C366.2,89.9,366.2,89.8,366.3,89.7 C366.7,89.8,367.5,90,368.2,90 C368.9,90,369.6,89.9,370.1,89.7 C370.2,89.8,370.3,89.9,370.3,90 C370.3,90,370.3,90.1,370.4,90.1 C370.4,90.2,370.5,90.2,370.5,90.3 C370.5,90.3,370.5,90.4,370.6,90.4 C370.6,90.5,370.7,90.5,370.7,90.6 C370.7,90.6,370.7,90.7,370.8,90.7 C370.8,90.8,370.9,90.8,370.9,90.8 C370.9,90.8,370.9,90.9,370.9,90.9 C370.9,90.9,370.9,91,371,91 C371,91,371,91.1,371,91.1 C371,91.1,371,91.2,371,91.2 C371,91.2,371,91.2,371,91.3 C371,91.4,371,91.4,371,91.4 C370.9,92.7,370.5,93.7,369.8,94.3 C369.4,94.7,368.8,94.9,368.2,94.9 C367.6,94.9,367,94.7,366.6,94.3 C366.1,93.9,365.8,93.3,365.6,92.5 C365.6,92.4,365.6,92.4,365.6,92.4 C365.4,92.2,365.4,91.8,365.4,91.5 C365.4,91.5,365.4,91.5,365.4,91.5 z M367.4,102 C365.3,102,363.2,102,361.1,102 C361.1,101.6,361.2,101.2,361.3,100.8 C361.7,99.5,362.6,98.5,363.8,98.1 C364.3,97.9,364.8,97.8,365.3,97.8 C365.333,97.8,365.367,97.8,365.4,97.8 C365.7,98.6,366.5,99.2,367.4,99.2 C367.4,99.2,367.4,99.2,367.4,99.2 C367.4,99.2,367.4,102,367.4,102 z M368.8,102 C368.8,101.067,368.8,100.133,368.8,99.2 C369.7,99.2,370.5,98.6,370.8,97.8 C370.833,97.8,370.867,97.8,370.9,97.8 C371.4,97.8,371.9,97.9,372.4,98.1 C373.6,98.6,374.6,99.6,374.9,100.8 C375,101.2,375.1,101.6,375.1,102 C375.1,102,368.8,102,368.8,102 z"/>
            </defs>
            <use xlink:href="#36" style="fill:#d3d8e2;fill-opacity:1;fill-rule:evenodd;opacity:1;stroke:none;"/>
          </g>
        </defs>
        <use xlink:href="#35"/>
        <g id="37">
          <title>Group</title>
          <defs>
            <title>Shape 14</title>
            <g id="38">
              <defs>
                <path id="39" d="M284.8,48.3 C284.8,57.3022,277.502,64.6,268.5,64.6 C259.498,64.6,252.2,57.3022,252.2,48.3 C252.2,39.2978,259.498,32,268.5,32 C277.502,32,284.8,39.2978,284.8,48.3"/>
              </defs>
              <use xlink:href="#39" style="fill:#ecf2ff;fill-opacity:1;fill-rule:evenodd;opacity:1;stroke:none;"/>
            </g>
          </defs>
          <use xlink:href="#38"/>
        </g>
        <defs>
          <title>Shape 15</title>
          <g id="40">
            <defs>
              <path id="41" d="M276.7,52.5 C276.2,50.8,274.9,49.5,273.3,48.9 C272.7,48.7,272,48.5,271.3,48.5 C271.3,48.1,271.3,47.7,271.3,47.3 C272.1,46.5,272.6,45.2,272.7,43.7 C272.7,43.6,272.7,43.6,272.7,43.5 C272.7,43.3667,272.7,43.2333,272.7,43.1 C272.7,42.5,272.7,41.9,272.7,41.3 C272.7,40.2,272.3,39.1,271.5,38.3 C270.7,37.5,269.7,37.1,268.5,37.1 C266.2,37.1,264.3,39,264.3,41.3 C264.3,41.9,264.3,42.5,264.3,43.1 C264.3,43.2333,264.3,43.3667,264.3,43.5 C264.3,43.6,264.3,43.6,264.3,43.7 C264.4,45.2,264.9,46.4,265.7,47.3 C265.7,47.7,265.7,48.1,265.7,48.5 C265,48.5,264.4,48.6,263.7,48.9 C262.1,49.5,260.8,50.9,260.3,52.5 C260.1,53,260.1,53.6,260.1,54.1 C260.1,54.3333,260.1,54.5667,260.1,54.8 C260.1,55.2,260.4,55.5,260.8,55.5 C265.933,55.5,271.067,55.5,276.2,55.5 C276.6,55.5,276.9,55.2,276.9,54.8 C276.9,54.5667,276.9,54.3333,276.9,54.1 C276.9,53.6,276.9,53,276.7,52.5 z M268.5,38.7 C269.2,38.7,270,39,270.5,39.5 C270.9,39.9,271.1,40.3,271.2,40.8 C271.2,40.8,271.1,40.7,271.1,40.7 C270.9,40.5,270.6,40.4,270.4,40.5 C270.4,40.5,269.4,40.8,268.5,40.8 C267.6,40.8,266.6,40.5,266.6,40.5 C266.5,40.5,266.5,40.5,266.4,40.5 C266.4,40.5,266.4,40.5,266.4,40.5 C266.3,40.5,266.3,40.5,266.2,40.5 C266.2,40.5,266.2,40.5,266.2,40.5 C266.2,40.5,266.1,40.5,266.1,40.5 C266.1,40.5,266.1,40.5,266.1,40.5 C266.1,40.5,266,40.6,266,40.6 C266,40.6,265.9,40.7,265.9,40.7 C266.1,39.6,267.2,38.7,268.5,38.7 z M265.7,43.7 C265.7,43.7,265.7,43.6,265.7,43.7 C265.7,43.7,265.7,43.6,265.7,43.6 C265.7,43.6,265.7,43.6,265.7,43.5 C265.7,43.5,265.7,43.4,265.7,43.4 C265.7,43.4,265.7,43.3,265.7,43.3 C265.7,43.3,265.7,43.2,265.8,43.2 C265.8,43.2,265.8,43.1,265.8,43.1 C265.8,43.1,265.8,43,265.9,42.9 C265.9,42.9,265.9,42.8,266,42.8 C266,42.7,266.1,42.7,266.1,42.6 C266.1,42.6,266.1,42.5,266.2,42.5 C266.2,42.4,266.3,42.4,266.3,42.3 C266.3,42.3,266.3,42.2,266.4,42.2 C266.5,42.1,266.5,42,266.6,41.9 C267,42,267.8,42.2,268.5,42.2 C269.2,42.2,269.9,42.1,270.4,41.9 C270.5,42,270.6,42.1,270.6,42.2 C270.6,42.2,270.6,42.3,270.7,42.3 C270.7,42.4,270.8,42.4,270.8,42.5 C270.8,42.5,270.8,42.6,270.9,42.6 C270.9,42.7,271,42.7,271,42.8 C271,42.8,271,42.9,271.1,42.9 C271.1,43,271.2,43,271.2,43 C271.2,43,271.2,43.1,271.2,43.1 C271.2,43.1,271.2,43.2,271.3,43.2 C271.3,43.2,271.3,43.3,271.3,43.3 C271.3,43.3,271.3,43.4,271.3,43.4 C271.3,43.4,271.3,43.4,271.3,43.5 C271.3,43.6,271.3,43.6,271.3,43.6 C271.2,44.9,270.8,45.9,270.1,46.5 C269.7,46.9,269.1,47.1,268.5,47.1 C267.9,47.1,267.3,46.9,266.9,46.5 C266.2,45.9,265.8,44.9,265.7,43.7 C265.7,43.7,265.7,43.7,265.7,43.7 z M269.2,49.9 C268.733,49.9,268.267,49.9,267.8,49.9 C267.4,49.9,267.1,49.6,267.1,49.2 C267.1,49.2,267.1,49.2,267.1,49.2 C267.1,48.9,267.1,48.6,267.1,48.3 C267.1,48.3,267.1,48.3,267.1,48.3 C267.5,48.5,268,48.5,268.5,48.5 C268.8,48.5,269.1,48.5,269.4,48.4 C269.6,48.4,269.7,48.3,269.9,48.3 C269.9,48.3,269.9,48.3,269.9,48.3 C269.9,48.5667,269.9,48.8333,269.9,49.1 C269.9,49.1,269.9,49.1,269.9,49.1 C269.9,49.1333,269.9,49.1667,269.9,49.2 C269.9,49.6,269.6,49.9,269.2,49.9 z M267.8,54.1 C265.7,54.1,263.6,54.1,261.5,54.1 C261.5,53.7,261.6,53.3,261.7,52.9 C262.1,51.6,263,50.6,264.2,50.2 C264.7,50,265.2,49.9,265.7,49.9 C265.733,49.9,265.767,49.9,265.8,49.9 C266.1,50.7,266.9,51.3,267.8,51.3 C267.8,51.3,267.8,54.1,267.8,54.1 z M269.2,54.1 C269.2,53.1667,269.2,52.2333,269.2,51.3 C269.4,51.3,269.6,51.3,269.9,51.2 C270,51.2,270.1,51.1,270.2,51.1 C270.4,51,270.6,50.9,270.7,50.7 C270.9,50.5,271.1,50.2,271.2,49.9 C271.233,49.9,271.267,49.9,271.3,49.9 C271.8,49.9,272.3,50,272.8,50.2 C274,50.7,275,51.7,275.3,52.9 C275.4,53.3,275.5,53.7,275.5,54.1 C275.5,54.1,269.2,54.1,269.2,54.1 z"/>
            </defs>
            <use xlink:href="#41" style="fill:#d3d8e2;fill-opacity:1;fill-rule:evenodd;opacity:1;stroke:none;"/>
          </g>
        </defs>
        <use xlink:href="#40"/>
        <defs>
          <title>Shape 16</title>
          <g id="42">
            <defs>
              <path id="43" d="M177.9,100.5 C177.4,98.8,176.1,97.5,174.5,96.9 C173.9,96.7,173.2,96.5,172.5,96.5 C172.5,96.1,172.5,95.7,172.5,95.3 C172.5,95.3,172.5,95.3,172.5,95.3 C173.4,94.4,173.8,92.8,173.8,90.8 C174.2,89.3,174.5,88.1,173.9,87.2 C173.6,86.8,173.2,86.4,172.6,86.3 C172.5,86.1,172.4,86,172.3,85.9 C171.8,85.4,170.8,85,169.6,85 C167.8,85,166.5,85.5,165.8,86.5 C165,87.5,164.9,89,165.4,90.9 C165.4,92.3,165.8,94.2,166.9,95.5 C166.9,95.8667,166.9,96.2333,166.9,96.6 C166.2,96.6,165.6,96.7,164.9,97 C163.3,97.6,162,99,161.5,100.6 C161.3,101.1,161.3,101.7,161.3,102.2 C161.3,102.433,161.3,102.667,161.3,102.9 C161.3,103.3,161.6,103.6,162,103.6 C167.133,103.6,172.267,103.6,177.4,103.6 C177.8,103.6,178.1,103.3,178.1,102.9 C178.1,102.667,178.1,102.433,178.1,102.2 C178.2,101.6,178.1,101,177.9,100.5 z M168.3,94.7 C168.3,94.7,168.3,94.7,168.3,94.7 C167.3,93.8,166.9,92.1,166.9,90.8 C167.1,89.7,167.8,89.5,169.4,89.4 C169.9,89.4,170.4,89.3,170.9,89.2 C171.2,89.7,171.6,90,171.9,90.3 C172.2,90.5,172.4,90.6,172.4,90.8 C172.4,92.3,171.8,94.9,169.9,95.1 C169.9,95.1,169.9,95.1,169.9,95.1 C169.7,95.2,169,95.2,168.3,94.7 z M167,87.3 C167.4,86.7,168.3,86.4,169.6,86.4 C170.5,86.4,171.1,86.6,171.2,86.8 C171.2,87.2,171.4,87.5,171.8,87.5 C172.2,87.6,172.5,87.7,172.6,87.9 C172.7,88.1,172.7,88.5,172.7,89 C172.7,89,172.7,89,172.7,89 C172.3,88.7,172.1,88.6,172,88.1 C172,87.9,171.8,87.6,171.6,87.5 C171.4,87.4,171.1,87.4,170.9,87.5 C170.5,87.7,169.9,87.8,169.2,87.8 C168.4,87.9,167.3,88,166.5,88.5 C166.6,88.1,166.8,87.7,167,87.3 z M169.1,102.1 C167,102.1,164.9,102.1,162.8,102.1 C162.8,101.7,162.9,101.3,163,100.9 C163.4,99.6,164.3,98.6,165.5,98.2 C166,98,166.5,97.9,167,97.9 C167.033,97.9,167.067,97.9,167.1,97.9 C167.4,98.7,168.2,99.3,169.1,99.3 C169.1,99.3,169.1,102.1,169.1,102.1 z M168.4,97.2 C168.4,97.2,168.4,97.2,168.4,97.2 C168.4,96.8667,168.4,96.5333,168.4,96.2 C168.4,96.2,168.4,96.2,168.4,96.2 C168.8,96.4,169.3,96.4,169.8,96.4 C170.3,96.4,170.8,96.3,171.2,96.2 C171.2,96.2,171.2,96.2,171.2,96.2 C171.2,96.4667,171.2,96.7333,171.2,97 C171.2,97,171.2,97,171.2,97 C171.2,97.0333,171.2,97.0667,171.2,97.1 C171.2,97.5,170.9,97.8,170.5,97.8 C170.033,97.8,169.567,97.8,169.1,97.8 C168.7,97.9,168.4,97.6,168.4,97.2 z M170.5,102.1 C170.5,101.167,170.5,100.233,170.5,99.3 C171.4,99.3,172.2,98.7,172.5,97.9 C172.533,97.9,172.567,97.9,172.6,97.9 C173.1,97.9,173.6,98,174.1,98.2 C175.3,98.7,176.3,99.7,176.6,100.9 C176.7,101.3,176.8,101.7,176.8,102.1 C176.8,102.1,170.5,102.1,170.5,102.1 z"/>
            </defs>
            <use xlink:href="#43" style="fill:#d3d8e2;fill-opacity:1;fill-rule:evenodd;opacity:1;stroke:none;"/>
          </g>
        </defs>
        <use xlink:href="#42"/>
        <g id="44">
          <title>Group</title>
          <defs>
            <title>Shape 17</title>
            <g id="45">
              <defs>
                <path id="46" d="M265.7,252.7 C265.7,253.1,265.7,253.5,265.7,253.9 C265,253.9,264.4,254,263.7,254.3 C262.1,254.9,260.8,256.3,260.3,257.9 C260.1,258.4,260.1,259,260.1,259.5 C260.1,259.733,260.1,259.967,260.1,260.2 C260.1,260.6,260.4,260.9,260.8,260.9 C265.933,260.9,271.067,260.9,276.2,260.9 C276.6,260.9,276.9,260.6,276.9,260.2 C276.9,259.967,276.9,259.733,276.9,259.5 C276.9,259,276.8,258.4,276.7,257.9 C276.2,256.2,274.9,254.9,273.3,254.3 C272.7,254.1,272,253.9,271.3,253.9 C271.3,253.5,271.3,253.1,271.3,252.7 M269.2,255.2 C268.733,255.2,268.267,255.2,267.8,255.2 C267.4,255.2,267.1,254.9,267.1,254.5 C267.1,254.5,267.1,254.5,267.1,254.5 C267.1,254.2,267.1,253.9,267.1,253.6 C267.1,253.6,267.1,253.6,267.1,253.6 C267.5,253.8,268,253.8,268.5,253.8 C268.8,253.8,269.1,253.8,269.4,253.7 C269.6,253.7,269.7,253.6,269.9,253.6 C269.9,253.6,269.9,253.6,269.9,253.6 C269.9,253.867,269.9,254.133,269.9,254.4 C269.9,254.4,269.9,254.4,269.9,254.4 C269.9,254.433,269.9,254.467,269.9,254.5 C269.9,254.9,269.6,255.2,269.2,255.2 z M267.8,259.4 C265.7,259.4,263.6,259.4,261.5,259.4 C261.5,259,261.6,258.6,261.7,258.2 C262.1,256.9,263,255.9,264.2,255.5 C264.7,255.3,265.2,255.2,265.7,255.2 C265.733,255.2,265.767,255.2,265.8,255.2 C266.1,256,266.9,256.6,267.8,256.6 C267.8,256.6,267.8,259.4,267.8,259.4 z M269.2,259.4 C269.2,258.467,269.2,257.533,269.2,256.6 C269.4,256.6,269.6,256.6,269.9,256.5 C270,256.5,270.1,256.4,270.2,256.4 C270.4,256.3,270.6,256.2,270.7,256 C270.9,255.8,271.1,255.5,271.2,255.2 C271.233,255.2,271.267,255.2,271.3,255.2 C271.8,255.2,272.3,255.3,272.8,255.5 C274,256,275,257,275.3,258.2 C275.4,258.6,275.5,259,275.5,259.4 C275.5,259.4,269.2,259.4,269.2,259.4 z"/>
              </defs>
              <use xlink:href="#46" style="fill:#d3d8e2;fill-opacity:1;fill-rule:evenodd;opacity:1;stroke:none;"/>
            </g>
          </defs>
          <use xlink:href="#45"/>
          <defs>
            <title>Shape 18</title>
            <g id="47">
              <defs>
                <path id="48" d="M268.5,243.3 C268.5,243.3,268.5,243.3,268.5,243.3 C266.5,243.3,264.8,244.9,264.8,247 C264.8,247.833,264.8,248.667,264.8,249.5 C264.8,251.5,266.4,253.2,268.5,253.2 C268.5,253.2,268.5,253.2,268.5,253.2 C270.5,253.2,272.2,251.6,272.2,249.5 C272.2,249.5,272.2,247,272.2,247 C272.2,245,270.5,243.3,268.5,243.3 z"/>
              </defs>
              <use xlink:href="#48" style="fill:none;opacity:1;stroke:#d3d8e2;stroke-linecap:butt;stroke-linejoin:miter;stroke-miterlimit:10;stroke-opacity:1;stroke-width:1.5;"/>
            </g>
          </defs>
          <use xlink:href="#47"/>
          <defs>
            <title>Shape 19</title>
            <g id="49">
              <defs>
                <path id="50" d="M265.9,244.4 C265.9,244.4,268.2,246,271.8,247.3"/>
              </defs>
              <use xlink:href="#50" style="fill:none;opacity:1;stroke:#d3d8e2;stroke-linecap:butt;stroke-linejoin:miter;stroke-miterlimit:10;stroke-opacity:1;stroke-width:1.5;"/>
            </g>
          </defs>
          <use xlink:href="#49"/>
          <defs>
            <title>Shape 20</title>
            <g id="51">
              <defs>
                <path id="52" d="M267.8,245.8 C267.8,245.8,265,247.5,265,247.5"/>
              </defs>
              <use xlink:href="#52" style="fill:none;opacity:1;stroke:#d3d8e2;stroke-linecap:butt;stroke-linejoin:miter;stroke-miterlimit:10;stroke-opacity:1;stroke-width:1.5;"/>
            </g>
          </defs>
          <use xlink:href="#51"/>
        </g>
        <g id="53">
          <title>Group</title>
          <g id="54">
            <title>Group</title>
            <defs>
              <title>Shape 21</title>
              <g id="55">
                <defs>
                  <path id="56" d="M167,208.7 C167,209.1,167,209.5,167,209.9 C166.3,209.9,165.7,210,165,210.3 C163.4,210.9,162.1,212.3,161.6,213.9 C161.4,214.4,161.4,215,161.4,215.5 C161.4,215.733,161.4,215.967,161.4,216.2 C161.4,216.6,161.7,216.9,162.1,216.9 C167.233,216.9,172.367,216.9,177.5,216.9 C177.9,216.9,178.2,216.6,178.2,216.2 C178.2,215.967,178.2,215.733,178.2,215.5 C178.2,215,178.1,214.4,178,213.9 C177.5,212.2,176.2,210.9,174.6,210.3 C174,210.1,173.3,209.9,172.6,209.9 C172.6,209.5,172.6,209.1,172.6,208.7 M170.5,211.3 C170.033,211.3,169.567,211.3,169.1,211.3 C168.7,211.3,168.4,211,168.4,210.6 C168.4,210.6,168.4,210.6,168.4,210.6 C168.4,210.3,168.4,210,168.4,209.7 C168.4,209.7,168.4,209.7,168.4,209.7 C168.8,209.9,169.3,209.9,169.8,209.9 C170.1,209.9,170.4,209.9,170.7,209.8 C170.9,209.8,171,209.7,171.2,209.7 C171.2,209.7,171.2,209.7,171.2,209.7 C171.2,209.967,171.2,210.233,171.2,210.5 C171.2,210.5,171.2,210.5,171.2,210.5 C171.2,210.533,171.2,210.567,171.2,210.6 C171.2,211,170.8,211.3,170.5,211.3 z M169.1,215.5 C167,215.5,164.9,215.5,162.8,215.5 C162.8,215.1,162.9,214.7,163,214.3 C163.4,213,164.3,212,165.5,211.6 C166,211.4,166.5,211.3,167,211.3 C167.033,211.3,167.067,211.3,167.1,211.3 C167.4,212.1,168.2,212.7,169.1,212.7 C169.1,212.7,169.1,215.5,169.1,215.5 z M170.5,215.5 C170.5,214.567,170.5,213.633,170.5,212.7 C170.7,212.7,170.9,212.7,171.2,212.6 C171.3,212.6,171.4,212.5,171.5,212.5 C171.7,212.4,171.9,212.3,172,212.1 C172.2,211.9,172.4,211.6,172.5,211.3 C172.533,211.3,172.567,211.3,172.6,211.3 C173.1,211.3,173.6,211.4,174.1,211.6 C175.3,212.1,176.3,213.1,176.6,214.3 C176.7,214.7,176.8,215.1,176.8,215.5 C176.8,215.5,170.5,215.5,170.5,215.5 z"/>
                </defs>
                <use xlink:href="#56" style="fill:#d3d8e2;fill-opacity:1;fill-rule:evenodd;opacity:1;stroke:none;"/>
              </g>
            </defs>
            <use xlink:href="#55"/>
            <defs>
              <title>Shape 22</title>
              <g id="57">
                <defs>
                  <path id="58" d="M166.1,205.5 C166.1,207.5,167.7,209.2,169.8,209.2 C169.8,209.2,169.8,209.2,169.8,209.2 C171.8,209.2,173.5,207.6,173.5,205.5"/>
                </defs>
                <use xlink:href="#58" style="fill:none;opacity:1;stroke:#d3d8e2;stroke-linecap:butt;stroke-linejoin:miter;stroke-miterlimit:10;stroke-opacity:1;stroke-width:1.5;"/>
              </g>
            </defs>
            <use xlink:href="#57"/>
          </g>
          <defs>
            <title>Shape 23</title>
            <g id="59">
              <defs>
                <path id="60" d="M173.4,205.9 C173.4,205.1,173.4,204.8,173.1,203.9 C172,200.5,169.8,201.3,169.8,201.3 C167,199,166.1,205.5,166.1,205.5 C166.1,205.5,166.1,205.9,166.2,206.2"/>
              </defs>
              <use xlink:href="#60" style="fill:none;opacity:1;stroke:#d3d8e2;stroke-linecap:butt;stroke-linejoin:miter;stroke-miterlimit:10;stroke-opacity:1;stroke-width:1.5;"/>
            </g>
          </defs>
          <use xlink:href="#59"/>
          <defs>
            <title>Shape 24</title>
            <g id="61">
              <defs>
                <path id="62" d="M175.8,211.5 C175.8,211.5,177,197.5,170.4,198.5 C170.4,198.5,166.1,195,164.7,201 C163.3,207.1,163.9,211.5,163.9,211.5"/>
              </defs>
              <use xlink:href="#62" style="fill:none;opacity:1;stroke:#d3d8e2;stroke-linecap:butt;stroke-linejoin:miter;stroke-miterlimit:10;stroke-opacity:1;stroke-width:1.5;"/>
            </g>
          </defs>
          <use xlink:href="#61"/>
        </g>
      </g>
      <g id="63">
        <title>Group</title>
        <defs>
          <title>Shape 25</title>
          <g id="64">
            <defs>
              <path id="65" d="M215.5,151.4 C215.5,151.4,183.6,151.3,183.6,151.3"/>
            </defs>
            <use xlink:href="#65" style="fill:none;opacity:1;stroke:#d3d8e2;stroke-linecap:butt;stroke-linejoin:miter;stroke-miterlimit:10;stroke-opacity:1;stroke-width:2.3491;"/>
          </g>
        </defs>
        <use xlink:href="#64"/>
        <defs>
          <title>Shape 26</title>
          <g id="66">
            <defs>
              <path id="67" d="M241.8,105.4 C241.8,105.4,226.3,78.5,226.3,78.5"/>
            </defs>
            <use xlink:href="#67" style="fill:none;opacity:1;stroke:#d3d8e2;stroke-linecap:butt;stroke-linejoin:miter;stroke-miterlimit:10;stroke-opacity:1;stroke-width:2.3491;"/>
          </g>
        </defs>
        <use xlink:href="#66"/>
        <defs>
          <title>Shape 27</title>
          <g id="68">
            <defs>
              <path id="69" d="M289.9,114 C289.9,114,310.6,78.5,310.6,78.5"/>
            </defs>
            <use xlink:href="#69" style="fill:none;opacity:1;stroke:#d3d8e2;stroke-linecap:butt;stroke-linejoin:miter;stroke-miterlimit:10;stroke-opacity:1;stroke-width:2.3491;"/>
          </g>
        </defs>
        <use xlink:href="#68"/>
        <defs>
          <title>Shape 28</title>
          <g id="70">
            <defs>
              <path id="71" d="M226.3,224.2 C226.3,224.2,242.4,196.5,242.4,196.5"/>
            </defs>
            <use xlink:href="#71" style="fill:none;opacity:1;stroke:#d3d8e2;stroke-linecap:butt;stroke-linejoin:miter;stroke-miterlimit:10;stroke-opacity:1;stroke-width:2.3491;"/>
          </g>
        </defs>
        <use xlink:href="#70"/>
        <defs>
          <title>Shape 29</title>
          <g id="72">
            <defs>
              <path id="73" d="M295.7,197.3 C295.7,197.3,311.4,224.2,311.4,224.2"/>
            </defs>
            <use xlink:href="#73" style="fill:none;opacity:1;stroke:#d3d8e2;stroke-linecap:butt;stroke-linejoin:miter;stroke-miterlimit:10;stroke-opacity:1;stroke-width:2.3491;"/>
          </g>
        </defs>
        <use xlink:href="#72"/>
        <defs>
          <title>Shape 30</title>
          <g id="74">
            <defs>
              <path id="75" d="M322,151.3 C322,151.3,353.9,151.4,353.9,151.4"/>
            </defs>
            <use xlink:href="#75" style="fill:none;opacity:1;stroke:#d3d8e2;stroke-linecap:butt;stroke-linejoin:miter;stroke-miterlimit:10;stroke-opacity:1;stroke-width:2.3491;"/>
          </g>
        </defs>
        <use xlink:href="#74"/>
      </g>
      <defs>
        <title>Shape 31</title>
        <g id="76">
          <defs>
            <path id="77" d="M334.7,183.9 C334.7,162,334.7,140.1,334.7,118.2 C334.7,114.9,332.9,111.8,330.1,110.2 C311.133,99.2333,292.167,88.2667,273.2,77.3 C270.3,75.6,266.8,75.6,264,77.3 C258.967,80.2,253.933,83.1,248.9,86 C248.9,86,207,110.1,207,110.1 C204.1,111.8,202.4,114.8,202.4,118.1 C202.4,140,202.4,161.9,202.4,183.8 C202.4,187.1,204.2,190.2,207,191.8 C225.967,202.767,244.933,213.733,263.9,224.7 C266.8,226.4,270.3,226.4,273.1,224.7 C292.067,213.733,311.033,202.767,330,191.8 C333,190.2,334.7,187.2,334.7,183.9 z"/>
          </defs>
          <use xlink:href="#77" style="fill:#ecf2ff;fill-opacity:1;fill-rule:evenodd;opacity:1;stroke:none;"/>
          <use xlink:href="#77" style="fill:none;opacity:1;stroke:#0066cb;stroke-linecap:butt;stroke-linejoin:miter;stroke-miterlimit:10;stroke-opacity:1;stroke-width:4;"/>
        </g>
      </defs>
      <use xlink:href="#76"/>
      <g id="78">
        <title>Group</title>
        <clipPath id="80">
          <use xlink:href="#79"/>
          <path id="79" d="M334.7,183.9 C334.7,162,334.7,140.1,334.7,118.2 C334.7,114.9,332.9,111.8,330.1,110.2 C311.133,99.2333,292.167,88.2667,273.2,77.3 C270.3,75.6,266.8,75.6,264,77.3 C247,82.2,230,87.1,213,92 C211.033,98.0667,209.067,104.133,207.1,110.2 C204.2,111.9,202.5,114.9,202.5,118.2 C202.5,140.1,202.5,162,202.5,183.9 C202.5,187.2,204.3,190.3,207.1,191.9 C226.067,202.867,245.033,213.833,264,224.8 C266.9,226.5,270.4,226.5,273.2,224.8 C292.167,213.833,311.133,202.867,330.1,191.9 C333,190.2,334.7,187.2,334.7,183.9 z"/>
        </clipPath>
        <g id="81" style="clip-path:url(#80);">
          <title>Clipping Group</title>
          <g id="82">
            <title>Group</title>
            <defs>
              <title>Shape 33</title>
              <g id="83">
                <defs>
                  <path id="84" d="M323.1,211.8 C323.1,211.8,218.4,211.8,218.4,211.8 C214.2,211.8,210.7,208.4,210.7,204.1 C210.7,204.1,210.7,103.1,210.7,103.1 C210.7,98.9,214.1,95.4,218.4,95.4 C253.3,95.4,288.2,95.4,323.1,95.4 C327.3,95.4,330.8,98.8,330.8,103.1 C330.8,136.8,330.8,170.5,330.8,204.2 C330.7,208.4,327.3,211.8,323.1,211.8 z"/>
                </defs>
                <use xlink:href="#84" style="fill:#000000;fill-opacity:1;fill-rule:evenodd;opacity:1;stroke:none;"/>
              </g>
            </defs>
            <use xlink:href="#83"/>
          </g>
          <g id="85">
            <title>Group</title>
            <defs>
              <title>Shape 34</title>
              <g id="86">
                <defs>
                  <path id="87" d="M327.7,209.1 C327.7,209.1,222.9,209.1,222.9,209.1 C218.7,209.1,215.2,205.7,215.2,201.4 C215.2,201.4,215.2,100.3,215.2,100.3 C215.2,96.1,218.6,92.6,222.9,92.6 C257.8,92.6,292.7,92.6,327.6,92.6 C331.8,92.6,335.3,96,335.3,100.3 C335.3,134,335.3,167.7,335.3,201.4 C335.3,205.6,331.9,209.1,327.7,209.1 z"/>
                </defs>
                <use xlink:href="#87" style="fill:#ecf2ff;fill-opacity:1;fill-rule:evenodd;opacity:1;stroke:none;"/>
              </g>
            </defs>
            <use xlink:href="#86"/>
          </g>
          <g id="88">
            <title>Group</title>
            <defs>
              <title>Shape 35</title>
              <g id="89">
                <defs>
                  <path id="90" d="M327.7,92.7 C327.7,92.7,222.9,92.7,222.9,92.7 C218.7,92.7,215.2,96.1,215.2,100.4 C215.2,101.533,215.2,102.667,215.2,103.8 C255.2,103.8,295.2,103.8,335.2,103.8 C335.2,102.667,335.2,101.533,335.2,100.4 C335.3,96.1,331.9,92.7,327.7,92.7 z"/>
                </defs>
                <use xlink:href="#90" style="fill:#3d96ff;fill-opacity:1;fill-rule:evenodd;opacity:1;stroke:none;"/>
              </g>
            </defs>
            <use xlink:href="#89"/>
          </g>
          <g id="91">
            <title>Group</title>
            <defs>
              <title>Shape 36</title>
              <g id="92">
                <defs>
                  <path id="93" d="M227.1,98.2 C227.1,99.415,226.115,100.4,224.9,100.4 C223.685,100.4,222.7,99.415,222.7,98.2 C222.7,96.985,223.685,96,224.9,96 C226.115,96,227.1,96.985,227.1,98.2"/>
                </defs>
                <use xlink:href="#93" style="fill:#65fdd5;fill-opacity:1;fill-rule:evenodd;opacity:1;stroke:none;"/>
              </g>
            </defs>
            <use xlink:href="#92"/>
          </g>
          <g id="94">
            <title>Group</title>
            <defs>
              <title>Shape 37</title>
              <g id="95">
                <defs>
                  <path id="96" d="M233.3,98.2 C233.3,99.415,232.315,100.4,231.1,100.4 C229.885,100.4,228.9,99.415,228.9,98.2 C228.9,96.985,229.885,96,231.1,96 C232.315,96,233.3,96.985,233.3,98.2"/>
                </defs>
                <use xlink:href="#96" style="fill:#65fdd5;fill-opacity:1;fill-rule:evenodd;opacity:1;stroke:none;"/>
              </g>
            </defs>
            <use xlink:href="#95"/>
          </g>
          <g id="97">
            <title>Group</title>
            <defs>
              <title>Shape 38</title>
              <g id="98">
                <defs>
                  <path id="99" d="M239.6,98.2 C239.6,99.415,238.615,100.4,237.4,100.4 C236.185,100.4,235.2,99.415,235.2,98.2 C235.2,96.985,236.185,96,237.4,96 C238.615,96,239.6,96.985,239.6,98.2"/>
                </defs>
                <use xlink:href="#99" style="fill:#65fdd5;fill-opacity:1;fill-rule:evenodd;opacity:1;stroke:none;"/>
              </g>
            </defs>
            <use xlink:href="#98"/>
          </g>
          <g id="100">
            <title>Group</title>
            <defs>
              <title>Shape 39</title>
              <g id="101">
                <defs>
                  <path id="102" d="M222.7,113.6 C222.7,113.6,250.8,113.6,250.8,113.6"/>
                </defs>
                <use xlink:href="#102" style="fill:none;opacity:1;stroke:#d3d8e2;stroke-linecap:butt;stroke-linejoin:miter;stroke-miterlimit:10;stroke-opacity:1;stroke-width:2.3491;"/>
              </g>
            </defs>
            <use xlink:href="#101"/>
            <defs>
              <title>Shape 40</title>
              <g id="103">
                <defs>
                  <path id="104" d="M222.7,119.6 C222.7,119.6,270.1,119.6,270.1,119.6"/>
                </defs>
                <use xlink:href="#104" style="fill:none;opacity:1;stroke:#d3d8e2;stroke-linecap:butt;stroke-linejoin:miter;stroke-miterlimit:10;stroke-opacity:1;stroke-width:2.3491;"/>
              </g>
            </defs>
            <use xlink:href="#103"/>
            <defs>
              <title>Shape 41</title>
              <g id="105">
                <defs>
                  <path id="106" d="M222.7,131.4 C222.7,131.4,254.6,131.4,254.6,131.4"/>
                </defs>
                <use xlink:href="#106" style="fill:none;opacity:1;stroke:#d3d8e2;stroke-linecap:butt;stroke-linejoin:miter;stroke-miterlimit:10;stroke-opacity:1;stroke-width:2.3491;"/>
              </g>
            </defs>
            <use xlink:href="#105"/>
            <defs>
              <title>Shape 42</title>
              <g id="107">
                <defs>
                  <path id="108" d="M222.7,164.2 C222.7,164.2,240.3,164.2,240.3,164.2"/>
                </defs>
                <use xlink:href="#108" style="fill:none;opacity:1;stroke:#d3d8e2;stroke-linecap:butt;stroke-linejoin:miter;stroke-miterlimit:10;stroke-opacity:1;stroke-width:2.3491;"/>
              </g>
            </defs>
            <use xlink:href="#107"/>
            <defs>
              <title>Shape 43</title>
              <g id="109">
                <defs>
                  <path id="110" d="M222.7,169.5 C222.7,169.5,252.3,169.5,252.3,169.5"/>
                </defs>
                <use xlink:href="#110" style="fill:none;opacity:1;stroke:#d3d8e2;stroke-linecap:butt;stroke-linejoin:miter;stroke-miterlimit:10;stroke-opacity:1;stroke-width:2.3491;"/>
              </g>
            </defs>
            <use xlink:href="#109"/>
            <defs>
              <title>Shape 44</title>
              <g id="111">
                <defs>
                  <path id="112" d="M222.7,187.7 C222.7,187.7,271,187.7,271,187.7"/>
                </defs>
                <use xlink:href="#112" style="fill:none;opacity:1;stroke:#d3d8e2;stroke-linecap:butt;stroke-linejoin:miter;stroke-miterlimit:10;stroke-opacity:1;stroke-width:2.3491;"/>
              </g>
            </defs>
            <use xlink:href="#111"/>
            <defs>
              <title>Shape 45</title>
              <g id="113">
                <defs>
                  <path id="114" d="M222.7,193 C222.7,193,271,193,271,193"/>
                </defs>
                <use xlink:href="#114" style="fill:none;opacity:1;stroke:#d3d8e2;stroke-linecap:butt;stroke-linejoin:miter;stroke-miterlimit:10;stroke-opacity:1;stroke-width:2.3491;"/>
              </g>
            </defs>
            <use xlink:href="#113"/>
            <defs>
              <title>Shape 46</title>
              <g id="115">
                <defs>
                  <path id="116" d="M222.7,198.2 C222.7,198.2,256.8,198.2,256.8,198.2"/>
                </defs>
                <use xlink:href="#116" style="fill:none;opacity:1;stroke:#d3d8e2;stroke-linecap:butt;stroke-linejoin:miter;stroke-miterlimit:10;stroke-opacity:1;stroke-width:2.3491;"/>
              </g>
            </defs>
            <use xlink:href="#115"/>
            <defs>
              <title>Shape 47</title>
              <g id="117">
                <defs>
                  <path id="118" d="M258.5,131.4 C258.5,131.4,283.6,131.4,283.6,131.4"/>
                </defs>
                <use xlink:href="#118" style="fill:none;opacity:1;stroke:#d3d8e2;stroke-linecap:butt;stroke-linejoin:miter;stroke-miterlimit:10;stroke-opacity:1;stroke-width:2.3491;"/>
              </g>
            </defs>
            <use xlink:href="#117"/>
            <defs>
              <title>Shape 48</title>
              <g id="119">
                <defs>
                  <path id="120" d="M222.7,125.5 C222.7,125.5,239.6,125.5,239.6,125.5"/>
                </defs>
                <use xlink:href="#120" style="fill:none;opacity:1;stroke:#d3d8e2;stroke-linecap:butt;stroke-linejoin:miter;stroke-miterlimit:10;stroke-opacity:1;stroke-width:2.3491;"/>
              </g>
            </defs>
            <use xlink:href="#119"/>
            <defs>
              <title>Shape 49</title>
              <g id="121">
                <defs>
                  <path id="122" d="M246.4,125.5 C246.4,125.5,259.6,125.5,259.6,125.5"/>
                </defs>
                <use xlink:href="#122" style="fill:none;opacity:1;stroke:#d3d8e2;stroke-linecap:butt;stroke-linejoin:miter;stroke-miterlimit:10;stroke-opacity:1;stroke-width:2.3491;"/>
              </g>
            </defs>
            <use xlink:href="#121"/>
            <defs>
              <title>Shape 50</title>
              <g id="123">
                <defs>
                  <path id="124" d="M222.7,149.9 C225.733,149.9,228.767,149.9,231.8,149.9 C231.8,152.933,231.8,155.967,231.8,159 C228.767,159,225.733,159,222.7,159 C222.7,155.967,222.7,152.933,222.7,149.9 z"/>
                </defs>
                <use xlink:href="#124" style="fill:#d3d8e2;fill-opacity:1;fill-rule:evenodd;opacity:1;stroke:none;"/>
              </g>
            </defs>
            <use xlink:href="#123"/>
            <defs>
              <title>Shape 51</title>
              <g id="125">
                <defs>
                  <path id="126" d="M235.9,149.9 C238.933,149.9,241.967,149.9,245,149.9 C245,152.933,245,155.967,245,159 C241.967,159,238.933,159,235.9,159 C235.9,155.967,235.9,152.933,235.9,149.9 z"/>
                </defs>
                <use xlink:href="#126" style="fill:#d3d8e2;fill-opacity:1;fill-rule:evenodd;opacity:1;stroke:none;"/>
              </g>
            </defs>
            <use xlink:href="#125"/>
            <defs>
              <title>Shape 52</title>
              <g id="127">
                <defs>
                  <path id="128" d="M248.4,149.9 C251.433,149.9,254.467,149.9,257.5,149.9 C257.5,152.933,257.5,155.967,257.5,159 C254.467,159,251.433,159,248.4,159 C248.4,155.967,248.4,152.933,248.4,149.9 z"/>
                </defs>
                <use xlink:href="#128" style="fill:#d3d8e2;fill-opacity:1;fill-rule:evenodd;opacity:1;stroke:none;"/>
              </g>
            </defs>
            <use xlink:href="#127"/>
          </g>
        </g>
        <clipPath id="130">
          <use xlink:href="#129"/>
          <path id="129" d="M334.7,183.9 C334.7,162,334.7,140.1,334.7,118.2 C334.7,114.9,332.9,111.8,330.1,110.2 C311.133,99.2333,292.167,88.2667,273.2,77.3 C270.3,75.6,266.8,75.6,264,77.3 C247,82.2,230,87.1,213,92 C211.033,98.0667,209.067,104.133,207.1,110.2 C204.2,111.9,202.5,114.9,202.5,118.2 C202.5,140.1,202.5,162,202.5,183.9 C202.5,187.2,204.3,190.3,207.1,191.9 C226.067,202.867,245.033,213.833,264,224.8 C266.9,226.5,270.4,226.5,273.2,224.8 C292.167,213.833,311.133,202.867,330.1,191.9 C333,190.2,334.7,187.2,334.7,183.9 z"/>
        </clipPath>
        <g id="131" style="clip-path:url(#130);"/>
        <clipPath id="133">
          <use xlink:href="#132"/>
          <path id="132" d="M334.7,183.9 C334.7,162,334.7,140.1,334.7,118.2 C334.7,114.9,332.9,111.8,330.1,110.2 C311.133,99.2333,292.167,88.2667,273.2,77.3 C270.3,75.6,266.8,75.6,264,77.3 C247,82.2,230,87.1,213,92 C211.033,98.0667,209.067,104.133,207.1,110.2 C204.2,111.9,202.5,114.9,202.5,118.2 C202.5,140.1,202.5,162,202.5,183.9 C202.5,187.2,204.3,190.3,207.1,191.9 C226.067,202.867,245.033,213.833,264,224.8 C266.9,226.5,270.4,226.5,273.2,224.8 C292.167,213.833,311.133,202.867,330.1,191.9 C333,190.2,334.7,187.2,334.7,183.9 z"/>
        </clipPath>
        <g id="134" style="clip-path:url(#133);">
          <title>Clipping Group</title>
          <defs>
            <title>Shape 54</title>
            <g id="135">
              <defs>
                <path id="136" d="M338.8,132.2 C338.667,132.2,338.533,132.2,338.4,132.2 C337.8,132.2,337.3,131.8,337.2,131.3 C336.8,130,336.3,128.8,335.6,127.6 C335.3,127.1,335.4,126.4,335.8,126 C335.9,125.9,336,125.8,336.1,125.7 C336.6,125.2,336.6,124.4,336.1,123.9 C335.233,123.033,334.367,122.167,333.5,121.3 C333,120.8,332.2,120.8,331.7,121.3 C331.567,121.433,331.433,121.567,331.3,121.7 C330.9,122.1,330.3,122.2,329.7,121.9 C328.6,121.3,327.4,120.8,326.1,120.4 C325.5,120.2,325.1,119.7,325.1,119.1 C325.1,118.9,325.1,118.7,325.1,118.5 C325.1,117.8,324.5,117.2,323.8,117.2 C322.6,117.2,321.4,117.2,320.2,117.2 C319.5,117.2,318.9,117.8,318.9,118.5 C318.9,118.7,318.9,118.9,318.9,119.1 C318.9,119.7,318.5,120.2,317.9,120.4 C316.6,120.7,315.4,121.2,314.3,121.9 C313.8,122.2,313.2,122.1,312.7,121.7 C312.567,121.567,312.433,121.433,312.3,121.3 C311.8,120.8,311,120.8,310.5,121.3 C309.633,122.167,308.767,123.033,307.9,123.9 C307.4,124.4,307.4,125.2,307.9,125.7 C308,125.8,308.1,125.9,308.2,126 C308.6,126.4,308.7,127.1,308.4,127.6 C307.7,128.7,307.2,130,306.8,131.3 C306.6,131.9,306.1,132.2,305.6,132.2 C305.467,132.2,305.333,132.2,305.2,132.2 C304.5,132.2,303.9,132.8,303.9,133.5 C303.9,134.7,303.9,135.9,303.9,137.1 C303.9,137.8,304.5,138.4,305.2,138.4 C305.267,138.4,305.333,138.4,305.4,138.4 C306,138.4,306.5,138.8,306.7,139.4 C307,140.8,307.6,142.1,308.2,143.3 C308.5,143.8,308.4,144.4,308,144.8 C308,144.8,308,145,308,145 C307.5,145.5,307.5,146.3,308,146.8 C308.867,147.667,309.733,148.533,310.6,149.4 C311.1,149.9,311.9,149.9,312.4,149.4 C312.4,149.4,312.4,149.4,312.4,149.4 C312.8,149,313.5,148.9,314,149.2 C315.2,149.9,316.6,150.5,318,150.9 C318.6,151.1,319,151.6,319,152.2 C319,152.9,319.6,153.5,320.3,153.5 C321.5,153.5,322.7,153.5,323.9,153.5 C324.6,153.5,325.2,152.9,325.2,152.2 C325.2,151.6,325.6,151.1,326.2,150.9 C327.6,150.5,328.9,150,330.2,149.2 C330.7,148.9,331.4,149,331.8,149.4 C331.8,149.4,331.8,149.4,331.8,149.4 C332.3,149.9,333.1,149.9,333.6,149.4 C334.467,148.533,335.333,147.667,336.2,146.8 C336.7,146.3,336.7,145.5,336.2,145 C336.167,144.967,336.133,144.933,336.1,144.9 C335.7,144.5,335.6,143.9,335.9,143.4 C336.6,142.2,337.1,140.9,337.4,139.5 C337.5,138.9,338.1,138.5,338.7,138.5 C338.767,138.5,338.833,138.5,338.9,138.5 C339.6,138.5,340.2,137.9,340.2,137.2 C340.2,136,340.2,134.8,340.2,133.6 C340.1,132.8,339.5,132.2,338.8,132.2 z M322,142.4 C318.3,142.4,315.2,139.4,315.2,135.6 C315.2,131.8,318.2,128.8,322,128.8 C325.8,128.8,328.8,131.8,328.8,135.6 C328.8,139.4,325.7,142.4,322,142.4 z"/>
              </defs>
              <use xlink:href="#136" style="fill:none;opacity:1;stroke:#d3d8e2;stroke-linecap:butt;stroke-linejoin:miter;stroke-miterlimit:10;stroke-opacity:1;stroke-width:2;"/>
            </g>
          </defs>
          <use xlink:href="#135"/>
          <defs>
            <title>Shape 55</title>
            <g id="137">
              <defs>
                <path id="138" d="M255.4,163.7 C282.233,163.7,309.067,163.7,335.9,163.7 C335.9,176.3,335.9,188.9,335.9,201.5 C309.067,201.5,282.233,201.5,255.4,201.5 C255.4,188.9,255.4,176.3,255.4,163.7 z"/>
              </defs>
              <use xlink:href="#138" style="fill:#d3d8e2;fill-opacity:1;fill-rule:evenodd;opacity:1;stroke:none;"/>
            </g>
          </defs>
          <use xlink:href="#137"/>
          <g id="139">
            <title>Group</title>
            <defs>
              <title>Shape 56</title>
              <g id="140">
                <defs>
                  <path id="141" d="M336.3,166.1 C309.233,166.1,282.167,166.1,255.1,166.1 C253.2,166.1,251.7,164.6,251.7,162.7 C251.7,162.7,251.7,144,251.7,144 C251.7,142.1,253.2,140.6,255.1,140.6 C282.167,140.6,309.233,140.6,336.3,140.6 C338.2,140.6,339.7,142.1,339.7,144 C339.7,150.267,339.7,156.533,339.7,162.8 C339.6,164.6,338.1,166.1,336.3,166.1 z"/>
                </defs>
                <use xlink:href="#141" style="fill:#3cd2f6;fill-opacity:1;fill-rule:evenodd;opacity:1;stroke:none;"/>
              </g>
            </defs>
            <use xlink:href="#140"/>
          </g>
          <g id="142">
            <title>Group</title>
            <defs>
              <title>Shape 57</title>
              <g id="143">
                <defs>
                  <path id="144" d="M336.3,195.5 C309.233,195.5,282.167,195.5,255.1,195.5 C253.2,195.5,251.7,194,251.7,192.1 C251.7,185.833,251.7,179.567,251.7,173.3 C251.7,171.4,253.2,169.9,255.1,169.9 C282.167,169.9,309.233,169.9,336.3,169.9 C338.2,169.9,339.7,171.4,339.7,173.3 C339.7,179.567,339.7,185.833,339.7,192.1 C339.6,194,338.1,195.5,336.3,195.5 z"/>
                </defs>
                <use xlink:href="#144" style="fill:#3cd2f6;fill-opacity:1;fill-rule:evenodd;opacity:1;stroke:none;"/>
              </g>
            </defs>
            <use xlink:href="#143"/>
          </g>
          <g id="145">
            <title>Group</title>
            <defs>
              <title>Shape 58</title>
              <g id="146">
                <defs>
                  <path id="147" d="M336.3,224.7 C309.233,224.7,282.167,224.7,255.1,224.7 C253.2,224.7,251.7,223.2,251.7,221.3 C251.7,215.033,251.7,208.767,251.7,202.5 C251.7,200.6,253.2,199.1,255.1,199.1 C282.167,199.1,309.233,199.1,336.3,199.1 C338.2,199.1,339.7,200.6,339.7,202.5 C339.7,208.767,339.7,215.033,339.7,221.3 C339.6,223.2,338.1,224.7,336.3,224.7 z"/>
                </defs>
                <use xlink:href="#147" style="fill:#3cd2f6;fill-opacity:1;fill-rule:evenodd;opacity:1;stroke:none;"/>
              </g>
            </defs>
            <use xlink:href="#146"/>
          </g>
          <g id="148">
            <title>Group</title>
            <g id="149">
              <title>Group</title>
              <defs>
                <title>Shape 59</title>
                <g id="150">
                  <defs>
                    <path id="151" d="M265.7,153.4 C265.7,154.67,264.67,155.7,263.4,155.7 C262.13,155.7,261.1,154.67,261.1,153.4 C261.1,152.13,262.13,151.1,263.4,151.1 C264.67,151.1,265.7,152.13,265.7,153.4"/>
                  </defs>
                  <use xlink:href="#151" style="fill:#ffffff;fill-opacity:1;fill-rule:evenodd;opacity:1;stroke:none;"/>
                </g>
              </defs>
              <use xlink:href="#150"/>
            </g>
            <g id="152">
              <title>Group</title>
              <defs>
                <title>Shape 60</title>
                <g id="153">
                  <defs>
                    <path id="154" d="M272.2,153.4 C272.2,154.67,271.17,155.7,269.9,155.7 C268.63,155.7,267.6,154.67,267.6,153.4 C267.6,152.13,268.63,151.1,269.9,151.1 C271.17,151.1,272.2,152.13,272.2,153.4"/>
                  </defs>
                  <use xlink:href="#154" style="fill:#ffffff;fill-opacity:1;fill-rule:evenodd;opacity:1;stroke:none;"/>
                </g>
              </defs>
              <use xlink:href="#153"/>
            </g>
            <g id="155">
              <title>Group</title>
              <defs>
                <title>Shape 61</title>
                <g id="156">
                  <defs>
                    <path id="157" d="M278.8,153.4 C278.8,154.67,277.77,155.7,276.5,155.7 C275.23,155.7,274.2,154.67,274.2,153.4 C274.2,152.13,275.23,151.1,276.5,151.1 C277.77,151.1,278.8,152.13,278.8,153.4"/>
                  </defs>
                  <use xlink:href="#157" style="fill:#ffffff;fill-opacity:1;fill-rule:evenodd;opacity:1;stroke:none;"/>
                </g>
              </defs>
              <use xlink:href="#156"/>
            </g>
          </g>
          <g id="158">
            <title>Group</title>
            <g id="159">
              <title>Group</title>
              <defs>
                <title>Shape 62</title>
                <g id="160">
                  <defs>
                    <path id="161" d="M265.7,182.8 C265.7,184.07,264.67,185.1,263.4,185.1 C262.13,185.1,261.1,184.07,261.1,182.8 C261.1,181.53,262.13,180.5,263.4,180.5 C264.67,180.5,265.7,181.53,265.7,182.8"/>
                  </defs>
                  <use xlink:href="#161" style="fill:#ffffff;fill-opacity:1;fill-rule:evenodd;opacity:1;stroke:none;"/>
                </g>
              </defs>
              <use xlink:href="#160"/>
            </g>
            <g id="162">
              <title>Group</title>
              <defs>
                <title>Shape 63</title>
                <g id="163">
                  <defs>
                    <path id="164" d="M272.2,182.8 C272.2,184.07,271.17,185.1,269.9,185.1 C268.63,185.1,267.6,184.07,267.6,182.8 C267.6,181.53,268.63,180.5,269.9,180.5 C271.17,180.5,272.2,181.53,272.2,182.8"/>
                  </defs>
                  <use xlink:href="#164" style="fill:#ffffff;fill-opacity:1;fill-rule:evenodd;opacity:1;stroke:none;"/>
                </g>
              </defs>
              <use xlink:href="#163"/>
            </g>
            <g id="165">
              <title>Group</title>
              <defs>
                <title>Shape 64</title>
                <g id="166">
                  <defs>
                    <path id="167" d="M278.8,182.8 C278.8,184.07,277.77,185.1,276.5,185.1 C275.23,185.1,274.2,184.07,274.2,182.8 C274.2,181.53,275.23,180.5,276.5,180.5 C277.77,180.5,278.8,181.53,278.8,182.8"/>
                  </defs>
                  <use xlink:href="#167" style="fill:#ffffff;fill-opacity:1;fill-rule:evenodd;opacity:1;stroke:none;"/>
                </g>
              </defs>
              <use xlink:href="#166"/>
            </g>
          </g>
          <g id="168">
            <title>Group</title>
            <g id="169">
              <title>Group</title>
              <defs>
                <title>Shape 65</title>
                <g id="170">
                  <defs>
                    <path id="171" d="M265.7,211.9 C265.7,213.17,264.67,214.2,263.4,214.2 C262.13,214.2,261.1,213.17,261.1,211.9 C261.1,210.63,262.13,209.6,263.4,209.6 C264.67,209.6,265.7,210.63,265.7,211.9"/>
                  </defs>
                  <use xlink:href="#171" style="fill:#ffffff;fill-opacity:1;fill-rule:evenodd;opacity:1;stroke:none;"/>
                </g>
              </defs>
              <use xlink:href="#170"/>
            </g>
            <g id="172">
              <title>Group</title>
              <defs>
                <title>Shape 66</title>
                <g id="173">
                  <defs>
                    <path id="174" d="M272.2,211.9 C272.2,213.17,271.17,214.2,269.9,214.2 C268.63,214.2,267.6,213.17,267.6,211.9 C267.6,210.63,268.63,209.6,269.9,209.6 C271.17,209.6,272.2,210.63,272.2,211.9"/>
                  </defs>
                  <use xlink:href="#174" style="fill:#ffffff;fill-opacity:1;fill-rule:evenodd;opacity:1;stroke:none;"/>
                </g>
              </defs>
              <use xlink:href="#173"/>
            </g>
            <g id="175">
              <title>Group</title>
              <defs>
                <title>Shape 67</title>
                <g id="176">
                  <defs>
                    <path id="177" d="M278.8,211.9 C278.8,213.17,277.77,214.2,276.5,214.2 C275.23,214.2,274.2,213.17,274.2,211.9 C274.2,210.63,275.23,209.6,276.5,209.6 C277.77,209.6,278.8,210.63,278.8,211.9"/>
                  </defs>
                  <use xlink:href="#177" style="fill:#ffffff;fill-opacity:1;fill-rule:evenodd;opacity:1;stroke:none;"/>
                </g>
              </defs>
              <use xlink:href="#176"/>
            </g>
          </g>
        </g>
        <clipPath id="179">
          <use xlink:href="#178"/>
          <path id="178" d="M334.7,183.9 C334.7,162,334.7,140.1,334.7,118.2 C334.7,114.9,332.9,111.8,330.1,110.2 C311.133,99.2333,292.167,88.2667,273.2,77.3 C270.3,75.6,266.8,75.6,264,77.3 C247,82.2,230,87.1,213,92 C211.033,98.0667,209.067,104.133,207.1,110.2 C204.2,111.9,202.5,114.9,202.5,118.2 C202.5,140.1,202.5,162,202.5,183.9 C202.5,187.2,204.3,190.3,207.1,191.9 C226.067,202.867,245.033,213.833,264,224.8 C266.9,226.5,270.4,226.5,273.2,224.8 C292.167,213.833,311.133,202.867,330.1,191.9 C333,190.2,334.7,187.2,334.7,183.9 z"/>
        </clipPath>
        <g id="180" style="clip-path:url(#179);"/>
      </g>
      <defs>
        <title>Shape 68</title>
        <g id="181">
          <defs>
            <path id="182" d="M202.4,118.1 C202.4,140,202.4,161.9,202.4,183.8 C202.4,187.1,204.2,190.2,207,191.8 C225.967,202.767,244.933,213.733,263.9,224.7 C266.8,226.4,270.3,226.4,273.1,224.7 C292.067,213.733,311.033,202.767,330,191.8 C332.9,190.1,334.6,187.1,334.6,183.8 C334.6,161.9,334.6,140,334.6,118.1 C334.6,114.8,332.8,111.7,330,110.1 C311.033,99.1333,292.067,88.1667,273.1,77.2"/>
          </defs>
          <use xlink:href="#182" style="fill:none;opacity:1;stroke:#0066cb;stroke-linecap:butt;stroke-linejoin:miter;stroke-miterlimit:10;stroke-opacity:1;stroke-width:4;"/>
        </g>
      </defs>
      <use xlink:href="#181"/>
      <defs>
        <title>Shape 69</title>
        <g id="183">
          <defs>
            <path id="184" d="M231.4,78.5 C231.4,81.3167,229.117,83.6,226.3,83.6 C223.483,83.6,221.2,81.3167,221.2,78.5 C221.2,75.6833,223.483,73.4,226.3,73.4 C229.117,73.4,231.4,75.6833,231.4,78.5"/>
          </defs>
          <use xlink:href="#184" style="fill:#3d96ff;fill-opacity:1;fill-rule:evenodd;opacity:1;stroke:none;"/>
        </g>
      </defs>
      <use xlink:href="#183"/>
      <defs>
        <title>Shape 70</title>
        <g id="185">
          <defs>
            <path id="186" d="M315.7,78.5 C315.7,81.3167,313.417,83.6,310.6,83.6 C307.783,83.6,305.5,81.3167,305.5,78.5 C305.5,75.6833,307.783,73.4,310.6,73.4 C313.417,73.4,315.7,75.6833,315.7,78.5"/>
          </defs>
          <use xlink:href="#186" style="fill:#3d96ff;fill-opacity:1;fill-rule:evenodd;opacity:1;stroke:none;"/>
        </g>
      </defs>
      <use xlink:href="#185"/>
      <defs>
        <title>Shape 71</title>
        <g id="187">
          <defs>
            <path id="188" d="M359,151.4 C359,154.217,356.717,156.5,353.9,156.5 C351.083,156.5,348.8,154.217,348.8,151.4 C348.8,148.583,351.083,146.3,353.9,146.3 C356.717,146.3,359,148.583,359,151.4"/>
          </defs>
          <use xlink:href="#188" style="fill:#3d96ff;fill-opacity:1;fill-rule:evenodd;opacity:1;stroke:none;"/>
        </g>
      </defs>
      <use xlink:href="#187"/>
      <defs>
        <title>Shape 72</title>
        <g id="189">
          <defs>
            <path id="190" d="M188.7,151.4 C188.7,154.217,186.417,156.5,183.6,156.5 C180.783,156.5,178.5,154.217,178.5,151.4 C178.5,148.583,180.783,146.3,183.6,146.3 C186.417,146.3,188.7,148.583,188.7,151.4"/>
          </defs>
          <use xlink:href="#190" style="fill:#3d96ff;fill-opacity:1;fill-rule:evenodd;opacity:1;stroke:none;"/>
        </g>
      </defs>
      <use xlink:href="#189"/>
      <defs>
        <title>Shape 73</title>
        <g id="191">
          <defs>
            <path id="192" d="M316.5,224.2 C316.5,227.017,314.217,229.3,311.4,229.3 C308.583,229.3,306.3,227.017,306.3,224.2 C306.3,221.383,308.583,219.1,311.4,219.1 C314.217,219.1,316.5,221.383,316.5,224.2"/>
          </defs>
          <use xlink:href="#192" style="fill:#3d96ff;fill-opacity:1;fill-rule:evenodd;opacity:1;stroke:none;"/>
        </g>
      </defs>
      <use xlink:href="#191"/>
      <defs>
        <title>Shape 74</title>
        <g id="193">
          <defs>
            <path id="194" d="M231.4,224.2 C231.4,227.017,229.117,229.3,226.3,229.3 C223.483,229.3,221.2,227.017,221.2,224.2 C221.2,221.383,223.483,219.1,226.3,219.1 C229.117,219.1,231.4,221.383,231.4,224.2"/>
          </defs>
          <use xlink:href="#194" style="fill:#3d96ff;fill-opacity:1;fill-rule:evenodd;opacity:1;stroke:none;"/>
        </g>
      </defs>
      <use xlink:href="#193"/>
    </g>
  </g>
</svg>
