<?xml version="1.0" encoding="utf-8"?>
<svg x="134.7pt" y="76.6pt" width="267.962pt" height="148.9pt" viewBox="134.7 76.6 267.962 148.9" xmlns="http://www.w3.org/2000/svg" xmlns:xlink="http://www.w3.org/1999/xlink">
  <g id="1">
    <title>Group</title>
    <g id="2">
      <title>Group</title>
      <defs>
        <title>Shape 273</title>
        <g id="3">
          <defs>
            <path id="4" d="M166.9,147.6 C166.9,147.6,173.6,169.4,173.6,169.4"/>
          </defs>
          <use xlink:href="#4" style="fill:none;opacity:1;stroke:#d1d6e0;stroke-linecap:butt;stroke-linejoin:miter;stroke-miterlimit:10;stroke-opacity:1;stroke-width:2;"/>
        </g>
      </defs>
      <use xlink:href="#3"/>
      <g id="5">
        <title>Group</title>
        <defs>
          <title>Shape 274</title>
          <g id="6">
            <defs>
              <path id="7" d="M338.5,132.8 C338.5,132.8,351.4,103.4,351.4,103.4 C351.4,103.4,369,119.5,369,119.5"/>
            </defs>
            <use xlink:href="#7" style="fill:none;opacity:1;stroke:#d1d6e0;stroke-linecap:butt;stroke-linejoin:miter;stroke-miterlimit:10;stroke-opacity:1;stroke-width:2;"/>
          </g>
        </defs>
        <use xlink:href="#6"/>
        <defs>
          <title>Shape 275</title>
          <g id="8">
            <defs>
              <path id="9" d="M355,82.5 C355,82.5,351.4,103.4,351.4,103.4 C351.4,103.4,314.2,91.5,314.2,91.5"/>
            </defs>
            <use xlink:href="#9" style="fill:none;opacity:1;stroke:#d1d6e0;stroke-linecap:butt;stroke-linejoin:miter;stroke-miterlimit:10;stroke-opacity:1;stroke-width:2;"/>
          </g>
        </defs>
        <use xlink:href="#8"/>
        <defs>
          <title>Shape 276</title>
          <g id="10">
            <defs>
              <path id="11" d="M356.3,103.4 C356.3,106.106,354.106,108.3,351.4,108.3 C348.694,108.3,346.5,106.106,346.5,103.4 C346.5,100.694,348.694,98.5,351.4,98.5 C354.106,98.5,356.3,100.694,356.3,103.4"/>
            </defs>
            <use xlink:href="#11" style="fill:#ffffff;fill-opacity:1;fill-rule:evenodd;opacity:1;stroke:none;"/>
            <use xlink:href="#11" style="fill:none;opacity:1;stroke:#d1d6e0;stroke-linecap:butt;stroke-linejoin:miter;stroke-miterlimit:10;stroke-opacity:1;stroke-width:2;"/>
          </g>
        </defs>
        <use xlink:href="#10"/>
        <defs>
          <title>Shape 277</title>
          <g id="12">
            <defs>
              <path id="13" d="M359.9,82.5 C359.9,85.2062,357.706,87.4,355,87.4 C352.294,87.4,350.1,85.2062,350.1,82.5 C350.1,79.7938,352.294,77.6,355,77.6 C357.706,77.6,359.9,79.7938,359.9,82.5"/>
            </defs>
            <use xlink:href="#13" style="fill:#ffffff;fill-opacity:1;fill-rule:evenodd;opacity:1;stroke:none;"/>
            <use xlink:href="#13" style="fill:none;opacity:1;stroke:#d1d6e0;stroke-linecap:butt;stroke-linejoin:miter;stroke-miterlimit:10;stroke-opacity:1;stroke-width:2;"/>
          </g>
        </defs>
        <use xlink:href="#12"/>
        <defs>
          <title>Shape 278</title>
          <g id="14">
            <defs>
              <path id="15" d="M319.1,91.5 C319.1,94.2062,316.906,96.4,314.2,96.4 C311.494,96.4,309.3,94.2062,309.3,91.5 C309.3,88.7938,311.494,86.6,314.2,86.6 C316.906,86.6,319.1,88.7938,319.1,91.5"/>
            </defs>
            <use xlink:href="#15" style="fill:#ffffff;fill-opacity:1;fill-rule:evenodd;opacity:1;stroke:none;"/>
            <use xlink:href="#15" style="fill:none;opacity:1;stroke:#d1d6e0;stroke-linecap:butt;stroke-linejoin:miter;stroke-miterlimit:10;stroke-opacity:1;stroke-width:2;"/>
          </g>
        </defs>
        <use xlink:href="#14"/>
        <defs>
          <title>Shape 279</title>
          <g id="16">
            <defs>
              <path id="17" d="M343.4,132.8 C343.4,135.506,341.206,137.7,338.5,137.7 C335.794,137.7,333.6,135.506,333.6,132.8 C333.6,130.094,335.794,127.9,338.5,127.9 C341.206,127.9,343.4,130.094,343.4,132.8"/>
            </defs>
            <use xlink:href="#17" style="fill:#ffffff;fill-opacity:1;fill-rule:evenodd;opacity:1;stroke:none;"/>
            <use xlink:href="#17" style="fill:none;opacity:1;stroke:#d1d6e0;stroke-linecap:butt;stroke-linejoin:miter;stroke-miterlimit:10;stroke-opacity:1;stroke-width:2;"/>
          </g>
        </defs>
        <use xlink:href="#16"/>
        <defs>
          <title>Shape 280</title>
          <g id="18">
            <defs>
              <path id="19" d="M373.9,119.5 C373.9,122.206,371.706,124.4,369,124.4 C366.294,124.4,364.1,122.206,364.1,119.5 C364.1,116.794,366.294,114.6,369,114.6 C371.706,114.6,373.9,116.794,373.9,119.5"/>
            </defs>
            <use xlink:href="#19" style="fill:#ffffff;fill-opacity:1;fill-rule:evenodd;opacity:1;stroke:none;"/>
            <use xlink:href="#19" style="fill:none;opacity:1;stroke:#d1d6e0;stroke-linecap:butt;stroke-linejoin:miter;stroke-miterlimit:10;stroke-opacity:1;stroke-width:2;"/>
          </g>
        </defs>
        <use xlink:href="#18"/>
      </g>
      <defs>
        <title>Shape 281</title>
        <g id="20">
          <defs>
            <path id="21" d="M176.7,195.4 C176.7,195.4,176.7,224.5,176.7,224.5 C176.7,224.5,375.8,224.5,375.8,224.5 C375.8,224.5,375.8,205.5,375.8,205.5"/>
          </defs>
          <use xlink:href="#21" style="fill:none;opacity:1;stroke:#65f8d0;stroke-dasharray:7, 6;stroke-dashoffset:0;stroke-linecap:butt;stroke-linejoin:round;stroke-miterlimit:10;stroke-opacity:1;stroke-width:2;"/>
        </g>
      </defs>
      <use xlink:href="#20"/>
      <defs>
        <title>Shape 282</title>
        <g id="22">
          <defs>
            <path id="23" d="M375.7,156 C375.2,156,374.8,156.1,374.4,156.3 C368.5,159.133,362.6,161.967,356.7,164.8 C355.8,165.2,355.1,166.1,354.9,167.1 C353.433,173.433,351.967,179.767,350.5,186.1 C350.3,187,350.5,187.9,351,188.7 C351.1,188.8,351.1,188.9,351.2,189 C355.3,194.1,359.4,199.2,363.5,204.3 C364.1,205.1,365.1,205.6,366.2,205.6 C372.767,205.6,379.333,205.6,385.9,205.6 C386.9,205.6,387.9,205.1,388.6,204.3 C392.7,199.2,396.8,194.1,400.9,189 C401.5,188.2,401.8,187.2,401.6,186.2 C400.133,179.867,398.667,173.533,397.2,167.2 C397,166.2,396.3,165.4,395.4,164.9 C389.5,162.067,383.6,159.233,377.7,156.4 C376.8,156.1,376.2,155.9,375.7,156 z"/>
          </defs>
          <use xlink:href="#23" style="fill:#eaf0ff;fill-opacity:1;fill-rule:evenodd;opacity:1;stroke:none;"/>
          <use xlink:href="#23" style="fill:none;opacity:1;stroke:#3d94ff;stroke-linecap:butt;stroke-linejoin:miter;stroke-miterlimit:10;stroke-opacity:1;stroke-width:2;"/>
        </g>
      </defs>
      <use xlink:href="#22"/>
      <g id="24">
        <title>Group</title>
        <g id="25">
          <title>Group</title>
          <g id="26">
            <title>Group</title>
            <g id="27">
              <title>Group</title>
              <defs>
                <title>Shape 283</title>
                <g id="28">
                  <defs>
                    <path id="29" d="M231.3,186.7 C216.5,186.7,201.7,186.7,186.9,186.7 C182.3,186.7,178.5,183,178.5,178.3 C178.5,178.3,178.5,97.9,178.5,97.9 C178.5,93.3,182.2,89.5,186.9,89.5 C201.7,89.5,216.5,89.5,231.3,89.5 C235.9,89.5,239.7,93.2,239.7,97.9 C239.7,124.7,239.7,151.5,239.7,178.3 C239.6,183,235.9,186.7,231.3,186.7 z"/>
                  </defs>
                  <use xlink:href="#29" style="fill:#000000;fill-opacity:1;fill-rule:evenodd;opacity:1;stroke:none;"/>
                </g>
              </defs>
              <use xlink:href="#28"/>
            </g>
            <g id="30">
              <title>Group</title>
              <defs>
                <title>Shape 284</title>
                <g id="31">
                  <defs>
                    <path id="32" d="M236.3,183.7 C221.5,183.7,206.7,183.7,191.9,183.7 C187.3,183.7,183.5,180,183.5,175.3 C183.5,175.3,183.5,94.9,183.5,94.9 C183.5,90.3,187.2,86.5,191.9,86.5 C206.7,86.5,221.5,86.5,236.3,86.5 C240.9,86.5,244.7,90.2,244.7,94.9 C244.7,121.7,244.7,148.5,244.7,175.3 C244.6,180,240.9,183.7,236.3,183.7 z"/>
                  </defs>
                  <use xlink:href="#32" style="fill:#eaf0ff;fill-opacity:1;fill-rule:evenodd;opacity:1;stroke:none;"/>
                </g>
              </defs>
              <use xlink:href="#31"/>
            </g>
            <defs>
              <title>Shape 285</title>
              <g id="33">
                <defs>
                  <path id="34" d="M236.3,86.6 C221.5,86.6,206.7,86.6,191.9,86.6 C187.3,86.6,183.5,90.3,183.5,95 C183.5,96.2333,183.5,97.4667,183.5,98.7 C203.9,98.7,224.3,98.7,244.7,98.7 C244.7,97.4667,244.7,96.2333,244.7,95 C244.6,90.3,240.9,86.6,236.3,86.6 z"/>
                </defs>
                <use xlink:href="#34" style="fill:#65fbd3;fill-opacity:1;fill-rule:evenodd;opacity:1;stroke:none;"/>
              </g>
            </defs>
            <use xlink:href="#33"/>
            <g id="35">
              <title>Group</title>
              <defs>
                <title>Shape 286</title>
                <g id="36">
                  <defs>
                    <path id="37" d="M196.4,92.6 C196.4,93.9255,195.325,95,194,95 C192.675,95,191.6,93.9255,191.6,92.6 C191.6,91.2745,192.675,90.2,194,90.2 C195.325,90.2,196.4,91.2745,196.4,92.6"/>
                  </defs>
                  <use xlink:href="#37" style="fill:#3d94ff;fill-opacity:1;fill-rule:evenodd;opacity:1;stroke:none;"/>
                </g>
              </defs>
              <use xlink:href="#36"/>
            </g>
            <g id="38">
              <title>Group</title>
              <defs>
                <title>Shape 287</title>
                <g id="39">
                  <defs>
                    <path id="40" d="M203.2,92.6 C203.2,93.9255,202.125,95,200.8,95 C199.475,95,198.4,93.9255,198.4,92.6 C198.4,91.2745,199.475,90.2,200.8,90.2 C202.125,90.2,203.2,91.2745,203.2,92.6"/>
                  </defs>
                  <use xlink:href="#40" style="fill:#3d94ff;fill-opacity:1;fill-rule:evenodd;opacity:1;stroke:none;"/>
                </g>
              </defs>
              <use xlink:href="#39"/>
            </g>
            <g id="41">
              <title>Group</title>
              <defs>
                <title>Shape 288</title>
                <g id="42">
                  <defs>
                    <path id="43" d="M210,92.6 C210,93.9255,208.925,95,207.6,95 C206.275,95,205.2,93.9255,205.2,92.6 C205.2,91.2745,206.275,90.2,207.6,90.2 C208.925,90.2,210,91.2745,210,92.6"/>
                  </defs>
                  <use xlink:href="#43" style="fill:#3d94ff;fill-opacity:1;fill-rule:evenodd;opacity:1;stroke:none;"/>
                </g>
              </defs>
              <use xlink:href="#42"/>
            </g>
          </g>
        </g>
        <g id="44">
          <title>Group</title>
          <defs>
            <title>Shape 289</title>
            <g id="45">
              <defs>
                <path id="46" d="M192.4,110.5 C192.4,110.5,210,110.5,210,110.5"/>
              </defs>
              <use xlink:href="#46" style="fill:none;opacity:1;stroke:#d1d6e0;stroke-linecap:butt;stroke-linejoin:miter;stroke-miterlimit:10;stroke-opacity:1;stroke-width:2;"/>
            </g>
          </defs>
          <use xlink:href="#45"/>
          <defs>
            <title>Shape 290</title>
            <g id="47">
              <defs>
                <path id="48" d="M192.4,117 C192.4,117,217.4,117,217.4,117"/>
              </defs>
              <use xlink:href="#48" style="fill:none;opacity:1;stroke:#d1d6e0;stroke-linecap:butt;stroke-linejoin:miter;stroke-miterlimit:10;stroke-opacity:1;stroke-width:2;"/>
            </g>
          </defs>
          <use xlink:href="#47"/>
          <defs>
            <title>Shape 291</title>
            <g id="49">
              <defs>
                <path id="50" d="M192.4,130.7 C192.4,130.7,214.1,130.7,214.1,130.7"/>
              </defs>
              <use xlink:href="#50" style="fill:none;opacity:1;stroke:#d1d6e0;stroke-linecap:butt;stroke-linejoin:miter;stroke-miterlimit:10;stroke-opacity:1;stroke-width:2;"/>
            </g>
          </defs>
          <use xlink:href="#49"/>
          <defs>
            <title>Shape 292</title>
            <g id="51">
              <defs>
                <path id="52" d="M192.4,137.2 C192.4,137.2,214.1,137.2,214.1,137.2"/>
              </defs>
              <use xlink:href="#52" style="fill:none;opacity:1;stroke:#d1d6e0;stroke-linecap:butt;stroke-linejoin:miter;stroke-miterlimit:10;stroke-opacity:1;stroke-width:2;"/>
            </g>
          </defs>
          <use xlink:href="#51"/>
          <defs>
            <title>Shape 293</title>
            <g id="53">
              <defs>
                <path id="54" d="M192.4,143.8 C192.4,143.8,214.1,143.8,214.1,143.8"/>
              </defs>
              <use xlink:href="#54" style="fill:none;opacity:1;stroke:#d1d6e0;stroke-linecap:butt;stroke-linejoin:miter;stroke-miterlimit:10;stroke-opacity:1;stroke-width:2;"/>
            </g>
          </defs>
          <use xlink:href="#53"/>
          <defs>
            <title>Shape 294</title>
            <g id="55">
              <defs>
                <path id="56" d="M192.4,150.4 C192.4,150.4,214.1,150.4,214.1,150.4"/>
              </defs>
              <use xlink:href="#56" style="fill:none;opacity:1;stroke:#d1d6e0;stroke-linecap:butt;stroke-linejoin:miter;stroke-miterlimit:10;stroke-opacity:1;stroke-width:2;"/>
            </g>
          </defs>
          <use xlink:href="#55"/>
        </g>
        <g id="57">
          <title>Group</title>
          <g id="58">
            <title>Group</title>
            <defs>
              <title>Shape 295</title>
              <g id="59">
                <defs>
                  <path id="60" d="M229.6,167.9 C231.5,167.9,233.4,167.9,235.3,167.9 C235.3,169.8,235.3,171.7,235.3,173.6 C233.4,173.6,231.5,173.6,229.6,173.6 C229.6,171.7,229.6,169.8,229.6,167.9 z"/>
                </defs>
                <use xlink:href="#60" style="fill:#d1d6e0;fill-opacity:1;fill-rule:evenodd;opacity:1;stroke:none;"/>
              </g>
            </defs>
            <use xlink:href="#59"/>
            <defs>
              <title>Shape 296</title>
              <g id="61">
                <defs>
                  <path id="62" d="M221,167.9 C222.9,167.9,224.8,167.9,226.7,167.9 C226.7,169.8,226.7,171.7,226.7,173.6 C224.8,173.6,222.9,173.6,221,173.6 C221,171.7,221,169.8,221,167.9 z"/>
                </defs>
                <use xlink:href="#62" style="fill:#d1d6e0;fill-opacity:1;fill-rule:evenodd;opacity:1;stroke:none;"/>
              </g>
            </defs>
            <use xlink:href="#61"/>
          </g>
          <g id="63">
            <title>Group</title>
            <defs>
              <title>Shape 297</title>
              <g id="64">
                <defs>
                  <path id="65" d="M229.6,159.4 C231.5,159.4,233.4,159.4,235.3,159.4 C235.3,161.3,235.3,163.2,235.3,165.1 C233.4,165.1,231.5,165.1,229.6,165.1 C229.6,163.2,229.6,161.3,229.6,159.4 z"/>
                </defs>
                <use xlink:href="#65" style="fill:#d1d6e0;fill-opacity:1;fill-rule:evenodd;opacity:1;stroke:none;"/>
              </g>
            </defs>
            <use xlink:href="#64"/>
            <defs>
              <title>Shape 298</title>
              <g id="66">
                <defs>
                  <path id="67" d="M221,159.4 C222.9,159.4,224.8,159.4,226.7,159.4 C226.7,161.3,226.7,163.2,226.7,165.1 C224.8,165.1,222.9,165.1,221,165.1 C221,163.2,221,161.3,221,159.4 z"/>
                </defs>
                <use xlink:href="#67" style="fill:#d1d6e0;fill-opacity:1;fill-rule:evenodd;opacity:1;stroke:none;"/>
              </g>
            </defs>
            <use xlink:href="#66"/>
          </g>
          <g id="68">
            <title>Group</title>
            <defs>
              <title>Shape 299</title>
              <g id="69">
                <defs>
                  <path id="70" d="M229.6,151 C231.5,151,233.4,151,235.3,151 C235.3,152.9,235.3,154.8,235.3,156.7 C233.4,156.7,231.5,156.7,229.6,156.7 C229.6,154.8,229.6,152.9,229.6,151 z"/>
                </defs>
                <use xlink:href="#70" style="fill:#d1d6e0;fill-opacity:1;fill-rule:evenodd;opacity:1;stroke:none;"/>
              </g>
            </defs>
            <use xlink:href="#69"/>
            <defs>
              <title>Shape 300</title>
              <g id="71">
                <defs>
                  <path id="72" d="M221,151 C222.9,151,224.8,151,226.7,151 C226.7,152.9,226.7,154.8,226.7,156.7 C224.8,156.7,222.9,156.7,221,156.7 C221,154.8,221,152.9,221,151 z"/>
                </defs>
                <use xlink:href="#72" style="fill:#d1d6e0;fill-opacity:1;fill-rule:evenodd;opacity:1;stroke:none;"/>
              </g>
            </defs>
            <use xlink:href="#71"/>
          </g>
        </g>
      </g>
      <defs>
        <title>Shape 301</title>
        <g id="73">
          <defs>
            <path id="74" d="M276.3,197.2 C276.3,197.2,276.3,224.5,276.3,224.5"/>
          </defs>
          <use xlink:href="#74" style="fill:none;opacity:1;stroke:#65f8d0;stroke-dasharray:7, 6;stroke-dashoffset:0;stroke-linecap:butt;stroke-linejoin:round;stroke-miterlimit:10;stroke-opacity:1;stroke-width:2;"/>
        </g>
      </defs>
      <use xlink:href="#73"/>
      <g id="75">
        <title>Group</title>
        <g id="76">
          <title>Group</title>
          <g id="77">
            <title>Group</title>
            <defs>
              <title>Shape 302</title>
              <g id="78">
                <defs>
                  <path id="79" d="M383.8,189.6 C383.8,189.6,382,187.9,382,187.9"/>
                </defs>
                <use xlink:href="#79" style="fill:none;opacity:1;stroke:#3d94ff;stroke-linecap:butt;stroke-linejoin:round;stroke-miterlimit:4;stroke-opacity:1;stroke-width:2;"/>
              </g>
            </defs>
            <use xlink:href="#78"/>
            <defs>
              <title>Shape 303</title>
              <g id="80">
                <defs>
                  <path id="81" d="M381,186.9 C381,186.9,378.1,184,378.1,184"/>
                </defs>
                <use xlink:href="#81" style="fill:none;opacity:1;stroke:#3d94ff;stroke-dasharray:3.4347, 1.3739;stroke-dashoffset:0;stroke-linecap:butt;stroke-linejoin:round;stroke-miterlimit:4;stroke-opacity:1;stroke-width:2;"/>
              </g>
            </defs>
            <use xlink:href="#80"/>
            <defs>
              <title>Shape 304</title>
              <g id="82">
                <defs>
                  <path id="83" d="M377.6,183.5 C377.6,183.5,375.8,181.7,375.8,181.7 C375.8,181.7,377.6,180,377.6,180"/>
                </defs>
                <use xlink:href="#83" style="fill:none;opacity:1;stroke:#3d94ff;stroke-linecap:butt;stroke-linejoin:round;stroke-miterlimit:4;stroke-opacity:1;stroke-width:2;"/>
              </g>
            </defs>
            <use xlink:href="#82"/>
            <defs>
              <title>Shape 305</title>
              <g id="84">
                <defs>
                  <path id="85" d="M378.6,179 C378.6,179,381.5,176.1,381.5,176.1"/>
                </defs>
                <use xlink:href="#85" style="fill:none;opacity:1;stroke:#3d94ff;stroke-dasharray:3.4347, 1.3739;stroke-dashoffset:0;stroke-linecap:butt;stroke-linejoin:round;stroke-miterlimit:4;stroke-opacity:1;stroke-width:2;"/>
              </g>
            </defs>
            <use xlink:href="#84"/>
            <defs>
              <title>Shape 306</title>
              <g id="86">
                <defs>
                  <path id="87" d="M382,175.6 C382,175.6,383.8,173.8,383.8,173.8"/>
                </defs>
                <use xlink:href="#87" style="fill:none;opacity:1;stroke:#3d94ff;stroke-linecap:butt;stroke-linejoin:round;stroke-miterlimit:4;stroke-opacity:1;stroke-width:2;"/>
              </g>
            </defs>
            <use xlink:href="#86"/>
          </g>
        </g>
        <g id="88">
          <title>Group</title>
          <g id="89">
            <title>Group</title>
            <defs>
              <title>Shape 307</title>
              <g id="90">
                <defs>
                  <path id="91" d="M367.9,173.8 C367.9,173.8,369.7,175.6,369.7,175.6"/>
                </defs>
                <use xlink:href="#91" style="fill:none;opacity:1;stroke:#3d94ff;stroke-linecap:butt;stroke-linejoin:round;stroke-miterlimit:4;stroke-opacity:1;stroke-width:2;"/>
              </g>
            </defs>
            <use xlink:href="#90"/>
            <defs>
              <title>Shape 308</title>
              <g id="92">
                <defs>
                  <path id="93" d="M370.7,176.6 C370.7,176.6,373.6,179.5,373.6,179.5"/>
                </defs>
                <use xlink:href="#93" style="fill:none;opacity:1;stroke:#3d94ff;stroke-dasharray:3.4347, 1.3739;stroke-dashoffset:0;stroke-linecap:butt;stroke-linejoin:round;stroke-miterlimit:4;stroke-opacity:1;stroke-width:2;"/>
              </g>
            </defs>
            <use xlink:href="#92"/>
            <defs>
              <title>Shape 309</title>
              <g id="94">
                <defs>
                  <path id="95" d="M374.1,180 C374.1,180,375.8,181.7,375.8,181.7 C375.8,181.7,374.1,183.5,374.1,183.5"/>
                </defs>
                <use xlink:href="#95" style="fill:none;opacity:1;stroke:#3d94ff;stroke-linecap:butt;stroke-linejoin:round;stroke-miterlimit:4;stroke-opacity:1;stroke-width:2;"/>
              </g>
            </defs>
            <use xlink:href="#94"/>
            <defs>
              <title>Shape 310</title>
              <g id="96">
                <defs>
                  <path id="97" d="M373.1,184.5 C373.1,184.5,370.2,187.4,370.2,187.4"/>
                </defs>
                <use xlink:href="#97" style="fill:none;opacity:1;stroke:#3d94ff;stroke-dasharray:3.4347, 1.3739;stroke-dashoffset:0;stroke-linecap:butt;stroke-linejoin:round;stroke-miterlimit:4;stroke-opacity:1;stroke-width:2;"/>
              </g>
            </defs>
            <use xlink:href="#96"/>
            <defs>
              <title>Shape 311</title>
              <g id="98">
                <defs>
                  <path id="99" d="M369.7,187.9 C369.7,187.9,367.9,189.6,367.9,189.6"/>
                </defs>
                <use xlink:href="#99" style="fill:none;opacity:1;stroke:#3d94ff;stroke-linecap:butt;stroke-linejoin:round;stroke-miterlimit:4;stroke-opacity:1;stroke-width:2;"/>
              </g>
            </defs>
            <use xlink:href="#98"/>
          </g>
        </g>
        <defs>
          <title>Shape 312</title>
          <g id="100">
            <defs>
              <path id="101" d="M378.9,181.7 C378.9,183.412,377.512,184.8,375.8,184.8 C374.088,184.8,372.7,183.412,372.7,181.7 C372.7,179.988,374.088,178.6,375.8,178.6 C377.512,178.6,378.9,179.988,378.9,181.7"/>
            </defs>
            <use xlink:href="#101" style="fill:#3d94ff;fill-opacity:1;fill-rule:evenodd;opacity:1;stroke:none;"/>
            <use xlink:href="#101" style="fill:none;opacity:1;stroke:#eaf0ff;stroke-linecap:butt;stroke-linejoin:miter;stroke-miterlimit:10;stroke-opacity:1;stroke-width:2;"/>
          </g>
        </defs>
        <use xlink:href="#100"/>
      </g>
      <g id="102">
        <title>Group</title>
        <defs>
          <title>Shape 313</title>
          <g id="103">
            <defs>
              <path id="104" d="M140.6,143.8 C140.6,143.8,166.9,147.6,166.9,147.6 C166.9,147.6,183.5,124.4,183.5,124.4"/>
            </defs>
            <use xlink:href="#104" style="fill:none;opacity:1;stroke:#d1d6e0;stroke-linecap:butt;stroke-linejoin:miter;stroke-miterlimit:10;stroke-opacity:1;stroke-width:2;"/>
          </g>
        </defs>
        <use xlink:href="#103"/>
        <defs>
          <title>Shape 314</title>
          <g id="105">
            <defs>
              <path id="106" d="M171.8,147.6 C171.8,150.306,169.606,152.5,166.9,152.5 C164.194,152.5,162,150.306,162,147.6 C162,144.894,164.194,142.7,166.9,142.7 C169.606,142.7,171.8,144.894,171.8,147.6"/>
            </defs>
            <use xlink:href="#106" style="fill:#ffffff;fill-opacity:1;fill-rule:evenodd;opacity:1;stroke:none;"/>
            <use xlink:href="#106" style="fill:none;opacity:1;stroke:#d1d6e0;stroke-linecap:butt;stroke-linejoin:miter;stroke-miterlimit:10;stroke-opacity:1;stroke-width:2;"/>
          </g>
        </defs>
        <use xlink:href="#105"/>
        <defs>
          <title>Shape 315</title>
          <g id="107">
            <defs>
              <path id="108" d="M188.4,124.4 C188.4,127.106,186.206,129.3,183.5,129.3 C180.794,129.3,178.6,127.106,178.6,124.4 C178.6,121.694,180.794,119.5,183.5,119.5 C186.206,119.5,188.4,121.694,188.4,124.4"/>
            </defs>
            <use xlink:href="#108" style="fill:#ffffff;fill-opacity:1;fill-rule:evenodd;opacity:1;stroke:none;"/>
            <use xlink:href="#108" style="fill:none;opacity:1;stroke:#d1d6e0;stroke-linecap:butt;stroke-linejoin:miter;stroke-miterlimit:10;stroke-opacity:1;stroke-width:2;"/>
          </g>
        </defs>
        <use xlink:href="#107"/>
        <defs>
          <title>Shape 316</title>
          <g id="109">
            <defs>
              <path id="110" d="M145.5,143.8 C145.5,146.506,143.306,148.7,140.6,148.7 C137.894,148.7,135.7,146.506,135.7,143.8 C135.7,141.094,137.894,138.9,140.6,138.9 C143.306,138.9,145.5,141.094,145.5,143.8"/>
            </defs>
            <use xlink:href="#110" style="fill:#ffffff;fill-opacity:1;fill-rule:evenodd;opacity:1;stroke:none;"/>
            <use xlink:href="#110" style="fill:none;opacity:1;stroke:#d1d6e0;stroke-linecap:butt;stroke-linejoin:miter;stroke-miterlimit:10;stroke-opacity:1;stroke-width:2;"/>
          </g>
        </defs>
        <use xlink:href="#109"/>
      </g>
      <g id="111">
        <title>Group</title>
        <defs>
          <title>Shape 317</title>
          <g id="112">
            <defs>
              <path id="113" d="M275.8,106.1 C275,106.1,274.2,106.3,273.4,106.7 C262.5,111.9,251.6,117.1,240.7,122.3 C239,123.1,237.7,124.7,237.3,126.5 C234.6,138.167,231.9,149.833,229.2,161.5 C228.8,163.1,229.1,164.8,230,166.2 C230.1,166.4,230.2,166.5,230.4,166.7 C237.933,176.067,245.467,185.433,253,194.8 C254.2,196.3,256,197.1,257.9,197.1 C269.967,197.1,282.033,197.1,294.1,197.1 C296,197.1,297.8,196.2,299,194.8 C306.533,185.433,314.067,176.067,321.6,166.7 C322.8,165.2,323.2,163.3,322.8,161.5 C320.1,149.833,317.4,138.167,314.7,126.5 C314.3,124.7,313,123.1,311.3,122.3 C300.4,117.1,289.5,111.9,278.6,106.7 C277.9,106.2,276.9,106,275.8,106.1 z"/>
            </defs>
            <use xlink:href="#113" style="fill:#eaf0ff;fill-opacity:1;fill-rule:evenodd;opacity:1;stroke:none;"/>
            <use xlink:href="#113" style="fill:none;opacity:1;stroke:#326ce4;stroke-linecap:butt;stroke-linejoin:miter;stroke-miterlimit:10;stroke-opacity:1;stroke-width:2;"/>
          </g>
        </defs>
        <use xlink:href="#112"/>
        <g id="114">
          <title>Group</title>
          <defs>
            <title>Shape 318</title>
            <g id="115">
              <defs>
                <path id="116" d="M276.2,99.4 C276.2,99.4,276.2,88.2,276.2,88.2"/>
              </defs>
              <use xlink:href="#116" style="fill:none;opacity:1;stroke:#6cfd79;stroke-linecap:butt;stroke-linejoin:miter;stroke-miterlimit:10;stroke-opacity:1;stroke-width:2;"/>
            </g>
          </defs>
          <use xlink:href="#115"/>
          <defs>
            <title>Shape 319</title>
            <g id="117">
              <defs>
                <path id="118" d="M271.7,92.2 C271.7,92.2,276.2,87.8,276.2,87.8 C276.2,87.8,280.6,92.2,280.6,92.2"/>
              </defs>
              <use xlink:href="#118" style="fill:none;opacity:1;stroke:#6cfd79;stroke-linecap:butt;stroke-linejoin:miter;stroke-miterlimit:10;stroke-opacity:1;stroke-width:2;"/>
            </g>
          </defs>
          <use xlink:href="#117"/>
        </g>
        <g id="119">
          <title>Group</title>
          <defs>
            <title>Shape 320</title>
            <g id="120">
              <defs>
                <path id="121" d="M320.4,119.6 C320.4,119.6,329.2,112.7,329.2,112.7"/>
              </defs>
              <use xlink:href="#121" style="fill:none;opacity:1;stroke:#6cfd79;stroke-linecap:butt;stroke-linejoin:miter;stroke-miterlimit:10;stroke-opacity:1;stroke-width:2;"/>
            </g>
          </defs>
          <use xlink:href="#120"/>
          <defs>
            <title>Shape 321</title>
            <g id="122">
              <defs>
                <path id="123" d="M323.3,111.7 C323.3,111.7,329.5,112.4,329.5,112.4 C329.5,112.4,328.8,118.6,328.8,118.6"/>
              </defs>
              <use xlink:href="#123" style="fill:none;opacity:1;stroke:#6cfd79;stroke-linecap:butt;stroke-linejoin:miter;stroke-miterlimit:10;stroke-opacity:1;stroke-width:2;"/>
            </g>
          </defs>
          <use xlink:href="#122"/>
        </g>
        <g id="124">
          <title>Group</title>
          <defs>
            <title>Shape 322</title>
            <g id="125">
              <defs>
                <path id="126" d="M233.8,120.1 C233.8,120.1,224.9,113.2,224.9,113.2"/>
              </defs>
              <use xlink:href="#126" style="fill:none;opacity:1;stroke:#6cfd79;stroke-linecap:butt;stroke-linejoin:miter;stroke-miterlimit:10;stroke-opacity:1;stroke-width:2;"/>
            </g>
          </defs>
          <use xlink:href="#125"/>
          <defs>
            <title>Shape 323</title>
            <g id="127">
              <defs>
                <path id="128" d="M230.8,112.2 C230.8,112.2,224.6,112.9,224.6,112.9 C224.6,112.9,225.3,119.1,225.3,119.1"/>
              </defs>
              <use xlink:href="#128" style="fill:none;opacity:1;stroke:#6cfd79;stroke-linecap:butt;stroke-linejoin:miter;stroke-miterlimit:10;stroke-opacity:1;stroke-width:2;"/>
            </g>
          </defs>
          <use xlink:href="#127"/>
        </g>
        <g id="129">
          <title>Group</title>
          <defs>
            <title>Shape 324</title>
            <g id="130">
              <defs>
                <path id="131" d="M300.5,202.7 C300.5,202.7,305.2,213,305.2,213"/>
              </defs>
              <use xlink:href="#131" style="fill:none;opacity:1;stroke:#6cfd79;stroke-linecap:butt;stroke-linejoin:miter;stroke-miterlimit:10;stroke-opacity:1;stroke-width:2;"/>
            </g>
          </defs>
          <use xlink:href="#130"/>
          <defs>
            <title>Shape 325</title>
            <g id="132">
              <defs>
                <path id="133" d="M307.5,207.5 C307.5,207.5,305.3,213.3,305.3,213.3 C305.3,213.3,299.5,211.2,299.5,211.2"/>
              </defs>
              <use xlink:href="#133" style="fill:none;opacity:1;stroke:#6cfd79;stroke-linecap:butt;stroke-linejoin:miter;stroke-miterlimit:10;stroke-opacity:1;stroke-width:2;"/>
            </g>
          </defs>
          <use xlink:href="#132"/>
        </g>
        <g id="134">
          <title>Group</title>
          <defs>
            <title>Shape 326</title>
            <g id="135">
              <defs>
                <path id="136" d="M251.8,202.9 C251.8,202.9,246.7,212.9,246.7,212.9"/>
              </defs>
              <use xlink:href="#136" style="fill:none;opacity:1;stroke:#6cfd79;stroke-linecap:butt;stroke-linejoin:miter;stroke-miterlimit:10;stroke-opacity:1;stroke-width:2;"/>
            </g>
          </defs>
          <use xlink:href="#135"/>
          <defs>
            <title>Shape 327</title>
            <g id="137">
              <defs>
                <path id="138" d="M252.5,211.4 C252.5,211.4,246.5,213.3,246.5,213.3 C246.5,213.3,244.6,207.3,244.6,207.3"/>
              </defs>
              <use xlink:href="#138" style="fill:none;opacity:1;stroke:#6cfd79;stroke-linecap:butt;stroke-linejoin:miter;stroke-miterlimit:10;stroke-opacity:1;stroke-width:2;"/>
            </g>
          </defs>
          <use xlink:href="#137"/>
        </g>
        <g id="139">
          <title>Group</title>
          <defs>
            <title>Shape 328</title>
            <g id="140">
              <defs>
                <path id="141" d="M330.3,166.2 C330.3,166.2,341.2,168.8,341.2,168.8"/>
              </defs>
              <use xlink:href="#141" style="fill:none;opacity:1;stroke:#6cfd79;stroke-linecap:butt;stroke-linejoin:miter;stroke-miterlimit:10;stroke-opacity:1;stroke-width:2;"/>
            </g>
          </defs>
          <use xlink:href="#140"/>
          <defs>
            <title>Shape 329</title>
            <g id="142">
              <defs>
                <path id="143" d="M336.3,172.2 C336.3,172.2,341.6,168.9,341.6,168.9 C341.6,168.9,338.4,163.6,338.4,163.6"/>
              </defs>
              <use xlink:href="#143" style="fill:none;opacity:1;stroke:#6cfd79;stroke-linecap:butt;stroke-linejoin:miter;stroke-miterlimit:10;stroke-opacity:1;stroke-width:2;"/>
            </g>
          </defs>
          <use xlink:href="#142"/>
        </g>
        <g id="144">
          <title>Group</title>
          <defs>
            <title>Shape 330</title>
            <g id="145">
              <defs>
                <path id="146" d="M222.2,166.2 C222.2,166.2,211.3,168.8,211.3,168.8"/>
              </defs>
              <use xlink:href="#146" style="fill:none;opacity:1;stroke:#6cfd79;stroke-linecap:butt;stroke-linejoin:miter;stroke-miterlimit:10;stroke-opacity:1;stroke-width:2;"/>
            </g>
          </defs>
          <use xlink:href="#145"/>
          <defs>
            <title>Shape 331</title>
            <g id="147">
              <defs>
                <path id="148" d="M216.2,172.2 C216.2,172.2,210.9,168.9,210.9,168.9 C210.9,168.9,214.2,163.6,214.2,163.6"/>
              </defs>
              <use xlink:href="#148" style="fill:none;opacity:1;stroke:#6cfd79;stroke-linecap:butt;stroke-linejoin:miter;stroke-miterlimit:10;stroke-opacity:1;stroke-width:2;"/>
            </g>
          </defs>
          <use xlink:href="#147"/>
        </g>
      </g>
      <g id="149">
        <title>Group</title>
        <g id="150">
          <title>Group</title>
          <g id="151">
            <title>Group</title>
            <g id="152">
              <title>Group</title>
              <defs>
                <title>Shape 332</title>
                <g id="153">
                  <defs>
                    <path id="154" d="M351.4,186.5 C319.933,186.5,288.467,186.5,257,186.5 C252.4,186.5,248.6,182.8,248.6,178.1 C248.6,164.633,248.6,151.167,248.6,137.7 C248.6,133.1,252.3,129.3,257,129.3 C288.467,129.3,319.933,129.3,351.4,129.3 C356,129.3,359.8,133,359.8,137.7 C359.8,151.167,359.8,164.633,359.8,178.1 C359.8,182.8,356,186.5,351.4,186.5 z"/>
                  </defs>
                  <use xlink:href="#154" style="fill:#000000;fill-opacity:1;fill-rule:evenodd;opacity:1;stroke:none;"/>
                </g>
              </defs>
              <use xlink:href="#153"/>
            </g>
            <g id="155">
              <title>Group</title>
              <defs>
                <title>Shape 333</title>
                <g id="156">
                  <defs>
                    <path id="157" d="M356.4,183.5 C324.933,183.5,293.467,183.5,262,183.5 C257.4,183.5,253.6,179.8,253.6,175.1 C253.6,161.633,253.6,148.167,253.6,134.7 C253.6,130.1,257.3,126.3,262,126.3 C293.467,126.3,324.933,126.3,356.4,126.3 C361,126.3,364.8,130,364.8,134.7 C364.8,148.167,364.8,161.633,364.8,175.1 C364.8,179.8,361,183.5,356.4,183.5 z"/>
                  </defs>
                  <use xlink:href="#157" style="fill:#eaf0ff;fill-opacity:1;fill-rule:evenodd;opacity:1;stroke:none;"/>
                </g>
              </defs>
              <use xlink:href="#156"/>
            </g>
            <g id="158">
              <title>Group</title>
              <defs>
                <title>Shape 334</title>
                <g id="159">
                  <defs>
                    <path id="160" d="M356.4,126.3 C324.933,126.3,293.467,126.3,262,126.3 C257.4,126.3,253.6,130,253.6,134.7 C253.6,135.933,253.6,137.167,253.6,138.4 C290.667,138.4,327.733,138.4,364.8,138.4 C364.8,137.167,364.8,135.933,364.8,134.7 C364.8,130.1,361,126.3,356.4,126.3 z"/>
                  </defs>
                  <use xlink:href="#160" style="fill:#3ccef2;fill-opacity:1;fill-rule:evenodd;opacity:1;stroke:none;"/>
                </g>
              </defs>
              <use xlink:href="#159"/>
            </g>
            <defs>
              <title>Shape 335</title>
              <g id="161">
                <defs>
                  <path id="162" d="M266.5,132.4 C266.5,133.725,265.425,134.8,264.1,134.8 C262.775,134.8,261.7,133.725,261.7,132.4 C261.7,131.075,262.775,130,264.1,130 C265.425,130,266.5,131.075,266.5,132.4"/>
                </defs>
                <use xlink:href="#162" style="fill:#ffffff;fill-opacity:1;fill-rule:evenodd;opacity:1;stroke:none;"/>
              </g>
            </defs>
            <use xlink:href="#161"/>
            <defs>
              <title>Shape 336</title>
              <g id="163">
                <defs>
                  <path id="164" d="M273.3,132.4 C273.3,133.725,272.225,134.8,270.9,134.8 C269.575,134.8,268.5,133.725,268.5,132.4 C268.5,131.075,269.575,130,270.9,130 C272.225,130,273.3,131.075,273.3,132.4"/>
                </defs>
                <use xlink:href="#164" style="fill:#ffffff;fill-opacity:1;fill-rule:evenodd;opacity:1;stroke:none;"/>
              </g>
            </defs>
            <use xlink:href="#163"/>
            <defs>
              <title>Shape 337</title>
              <g id="165">
                <defs>
                  <path id="166" d="M280.1,132.4 C280.1,133.725,279.025,134.8,277.7,134.8 C276.375,134.8,275.3,133.725,275.3,132.4 C275.3,131.075,276.375,130,277.7,130 C279.025,130,280.1,131.075,280.1,132.4"/>
                </defs>
                <use xlink:href="#166" style="fill:#ffffff;fill-opacity:1;fill-rule:evenodd;opacity:1;stroke:none;"/>
              </g>
            </defs>
            <use xlink:href="#165"/>
          </g>
        </g>
        <g id="167">
          <title>Group</title>
          <defs>
            <title>Shape 338</title>
            <g id="168">
              <defs>
                <path id="169" d="M266.7,167.8 C266.7,167.8,298.5,167.8,298.5,167.8"/>
              </defs>
              <use xlink:href="#169" style="fill:none;opacity:1;stroke:#d1d6e0;stroke-linecap:butt;stroke-linejoin:miter;stroke-miterlimit:10;stroke-opacity:1;stroke-width:2;"/>
            </g>
          </defs>
          <use xlink:href="#168"/>
          <defs>
            <title>Shape 339</title>
            <g id="170">
              <defs>
                <path id="171" d="M266.7,174.4 C266.7,174.4,298.5,174.4,298.5,174.4"/>
              </defs>
              <use xlink:href="#171" style="fill:none;opacity:1;stroke:#d1d6e0;stroke-linecap:butt;stroke-linejoin:miter;stroke-miterlimit:10;stroke-opacity:1;stroke-width:2;"/>
            </g>
          </defs>
          <use xlink:href="#170"/>
        </g>
        <defs>
          <title>Shape 340</title>
          <g id="172">
            <defs>
              <path id="173" d="M266.7,147.2 C282.967,147.2,299.233,147.2,315.5,147.2 C315.5,151.533,315.5,155.867,315.5,160.2 C299.233,160.2,282.967,160.2,266.7,160.2 C266.7,155.867,266.7,151.533,266.7,147.2 z"/>
            </defs>
            <use xlink:href="#173" style="fill:#d1d6e0;fill-opacity:1;fill-rule:evenodd;opacity:1;stroke:none;"/>
          </g>
        </defs>
        <use xlink:href="#172"/>
      </g>
      <defs>
        <title>Shape 341</title>
        <g id="174">
          <defs>
            <path id="175" d="M176.6,165.1 C176.3,165.1,176,165.2,175.8,165.3 C172.067,167.1,168.333,168.9,164.6,170.7 C164,171,163.6,171.5,163.4,172.1 C162.467,176.1,161.533,180.1,160.6,184.1 C160.5,184.7,160.6,185.2,160.9,185.7 C160.9,185.8,161,185.8,161,185.9 C163.6,189.1,166.2,192.3,168.8,195.5 C169.2,196,169.8,196.3,170.5,196.3 C174.633,196.3,178.767,196.3,182.9,196.3 C183.6,196.3,184.2,196,184.6,195.5 C187.2,192.3,189.8,189.1,192.4,185.9 C192.8,185.4,193,184.7,192.8,184.1 C191.867,180.1,190.933,176.1,190,172.1 C189.9,171.5,189.4,170.9,188.8,170.7 C185.067,168.9,181.333,167.1,177.6,165.3 C177.3,165.2,176.9,165.1,176.6,165.1 z"/>
          </defs>
          <use xlink:href="#175" style="fill:#eaf0ff;fill-opacity:1;fill-rule:evenodd;opacity:1;stroke:none;"/>
          <use xlink:href="#175" style="fill:none;opacity:1;stroke:#3d94ff;stroke-linecap:butt;stroke-linejoin:miter;stroke-miterlimit:10;stroke-opacity:1;stroke-width:2;"/>
        </g>
      </defs>
      <use xlink:href="#174"/>
    </g>
  </g>
</svg>
