<?xml version="1.0" encoding="utf-8"?>
<svg x="75.6858pt" y="66.3pt" width="384.742pt" height="173.8pt" viewBox="75.6858 66.3 384.742 173.8" xmlns="http://www.w3.org/2000/svg" xmlns:xlink="http://www.w3.org/1999/xlink">
  <g id="1">
    <title>Group</title>
    <defs>
      <title>Shape 197</title>
      <g id="2">
        <defs>
          <path id="3" d="M352.2,151 C352.2,197.2,314.7,234.7,268.5,234.7 C250.8,234.7,234.4,229.2,220.8,219.8 C207.2,210.4,196.6,197,190.5,181.4 C186.8,172,184.8,161.7,184.8,151 C184.8,104.8,222.3,67.3,268.5,67.3 C314.7,67.3,352.2,104.8,352.2,151 z"/>
        </defs>
        <use xlink:href="#3" style="fill:#d1d6e0;fill-opacity:1;fill-rule:evenodd;opacity:1;stroke:none;"/>
        <use xlink:href="#3" style="fill:none;opacity:1;stroke:#ffffff;stroke-linecap:butt;stroke-linejoin:miter;stroke-miterlimit:10;stroke-opacity:1;stroke-width:2;"/>
      </g>
    </defs>
    <use xlink:href="#2"/>
    <g id="4">
      <title>Group</title>
      <defs>
        <title>Shape 198</title>
        <g id="5">
          <defs>
            <path id="6" d="M328.1,198.3 C326.8,198,324.3,193.7,326.4,190 C330.1,183.4,331,175.2,331.4,171.9 C331.7,169.2,333.4,166.2,332.2,163.7 C330.7,160.4,334.6,156,332.6,153.5 C330.4,150.8,332.3,146.6,331.7,143.3 C330,140.8,326.5,143.4,323.9,141.7 C321,139.8,317.4,142.1,313.8,143.3 C307.6,141.9,308.1,134.8,304.6,130.7 C303.7,129.6,300,130.3,299.4,129 C298.3,126.7,302.1,123.9,301.9,121.6 C301.1,110.4,294.6,104.4,309.6,99.5 C314.1,98,318.9,100.8,321.6,105.4 C323.1,107.9,325,102.7,328.9,103.9 C332.2,104.9,331.3,96.4,329.3,97 C327,97.7,324.8,96.5,322.1,97.8 C320.3,98.7,319.2,93,317.4,92.9 C315.8,92.8,313.9,92.9,311.3,90.7 C305.6,90.1,308.7,98.4,302.9,97.9 C302.2,95.1,299.6,98.3,296.4,97.6 C292.9,96.8,296.2,92.8,297.6,91 C296.5,85.3,288.7,89.5,289.7,84 C290.2,81,299.1,85.5,296.5,80.1 C293.3,73.2,278.4,66.7,267.9,71.8 C267.2,72.1,266.5,72.5,265.9,72.9 C264.5,73.9,263.5,77.7,262.1,76.5 C260.4,75,260.6,69.5,257.8,69.6 C256.8,69.7,256.9,71.5,253.8,70.5 C250.7,70.8,256.8,74.2,253.8,75.3 C248.8,77,243.9,74.8,239.9,77.8 C237.8,79.3,235.1,77.7,234.7,80.1 C234.1,83.4,236.7,85.3,238.3,86.1 C242.5,88.2,243.5,78.6,249.1,77.7 C252.7,78.6,258.8,85.5,257.5,88.5 C256.2,91.3,253.4,85,249.1,87.3 C245.1,89.2,252.9,91.1,249.1,93.3 C238.8,95.5,231,102.9,229.9,109 C229.5,111.1,231.4,114,230.4,114.4 C228.3,115.2,226.5,111.9,225.7,111.3 C223.8,109.9,220.2,105.4,219.3,107.7 C216,116,211.2,115.5,212.9,122.8 C213.5,125.6,217.7,121.6,219.3,124.4 C217.5,128.1,219.5,130.1,221.2,132.8 C222,134.2,221.2,137.4,222.4,138 C224.5,139.1,230.9,135.7,234.3,135.5 C237,135.4,238.7,137.1,241.3,136.5 C244.9,135.6,251,136,253.2,140.1 C254.8,143,258.8,142.8,260.1,144.7 C262.9,148.9,257.7,149,260,151.7 C261.5,153.5,263.9,152.3,266.4,152.4 C267,152.4,267.7,152.6,268.3,152.8 C270.9,153.7,273.6,155.8,275.7,156 C278.6,156.2,280.7,158,281.7,160.2 C283.7,164.9,280.9,170.1,279.3,174.8 C278.6,176.9,279.7,179.3,278.8,181 C276.4,185.8,272,188.9,268.3,192.5 C267.2,193.5,266.2,194.6,265.3,195.8 C263.3,198.4,263.7,202.8,260.8,204.9 C257.6,207.3,259.2,210.3,258.5,213 C258,214.7,256.4,217.1,255.8,218.7 C255.1,220.7,255.3,221.8,254.2,223.2 C251.8,226.4,245.6,219.7,246,216.4 C246.6,209.7,240.8,204.9,242.6,197.1 C243.5,192.9,243.6,188.9,242.2,185.4 C240.5,181,236.1,180.7,232.6,175.8 C231.7,174.5,232.5,171.1,231.4,168.6 C228.8,162.8,224.7,163.6,224.2,160.2 C223.5,155.2,226.7,152,228.8,148 C229.5,146.6,229.1,144.7,228,143.4 C226.2,141.3,221.2,138.9,216.4,136 C209,131.5,202.8,125.1,206.3,112.4 C201.1,110.8,203.4,120.5,200.3,117.2 C198.5,115.3,203,102.1,206.6,95.7 C206.6,95.7,206.5,95.8,206.5,95.8 C193.1,110.6,184.9,130.2,184.9,151.8 C184.9,197.8,222.2,235.1,268.2,235.1 C302.2,235.1,331.4,214.7,344.4,185.5 C344.5,185.3,344.5,185.1,344.6,185 C339.9,189.8,332.1,199.2,328.1,198.3 z"/>
          </defs>
          <use xlink:href="#6" style="fill:#ffffff;fill-opacity:1;fill-rule:evenodd;opacity:1;stroke:none;"/>
        </g>
      </defs>
      <use xlink:href="#5"/>
    </g>
    <g id="7">
      <title>Group</title>
      <clipPath id="9">
        <use xlink:href="#8"/>
        <path id="8" d="M352.2,151.3 C352.2,197.5,314.7,235,268.5,235 C250.8,235,234.4,229.5,220.8,220.1 C207.2,210.7,196.6,197.3,190.5,181.7 C186.8,172.3,184.8,162,184.8,151.3 C184.8,105.1,161,80,268.5,67.6 C314.4,62.3,352.2,105.1,352.2,151.3 z"/>
      </clipPath>
      <g id="10" style="clip-path:url(#9);">
        <title>Clipping Group</title>
        <g id="11">
          <title>Group</title>
          <g id="12">
            <title>Group</title>
            <g id="13">
              <title>Group</title>
              <defs>
                <title>Shape 200</title>
                <g id="14">
                  <defs>
                    <path id="15" d="M335,239.9 C309.733,239.9,284.467,239.9,259.2,239.9 C256.1,239.9,253.7,237.4,253.7,234.4 C253.7,210.033,253.7,185.667,253.7,161.3 C253.7,158.2,256.2,155.8,259.2,155.8 C259.2,155.8,335,155.8,335,155.8 C338.1,155.8,340.5,158.3,340.5,161.3 C340.5,185.667,340.5,210.033,340.5,234.4 C340.5,237.4,338.1,239.9,335,239.9 z"/>
                  </defs>
                  <use xlink:href="#15" style="fill:#000000;fill-opacity:1;fill-rule:evenodd;opacity:1;stroke:none;"/>
                </g>
              </defs>
              <use xlink:href="#14"/>
            </g>
            <g id="16">
              <title>Group</title>
              <defs>
                <title>Shape 201</title>
                <g id="17">
                  <defs>
                    <path id="18" d="M338.3,239.9 C313.033,239.9,287.767,239.9,262.5,239.9 C259.4,239.9,257,237.4,257,234.4 C257,209.167,257,183.933,257,158.7 C257,155.6,259.5,153.2,262.5,153.2 C287.767,153.2,313.033,153.2,338.3,153.2 C341.4,153.2,343.8,155.7,343.8,158.7 C343.8,183.933,343.8,209.167,343.8,234.4 C343.8,237.4,341.4,239.9,338.3,239.9 z"/>
                  </defs>
                  <use xlink:href="#18" style="fill:#e7f7fb;fill-opacity:1;fill-rule:evenodd;opacity:1;stroke:none;"/>
                </g>
              </defs>
              <use xlink:href="#17"/>
            </g>
            <defs>
              <title>Shape 202</title>
              <g id="19">
                <defs>
                  <path id="20" d="M338.3,153.1 C313.033,153.1,287.767,153.1,262.5,153.1 C259.4,153.1,257,155.6,257,158.6 C257,159.433,257,160.267,257,161.1 C285.967,161.1,314.933,161.1,343.9,161.1 C343.9,160.267,343.9,159.433,343.9,158.6 C343.8,155.6,341.4,153.1,338.3,153.1 z"/>
                </defs>
                <use xlink:href="#20" style="fill:#65fbd3;fill-opacity:1;fill-rule:evenodd;opacity:1;stroke:none;"/>
              </g>
            </defs>
            <use xlink:href="#19"/>
            <g id="21">
              <title>Group</title>
              <defs>
                <title>Shape 203</title>
                <g id="22">
                  <defs>
                    <path id="23" d="M265.5,157.2 C265.5,158.084,264.784,158.8,263.9,158.8 C263.016,158.8,262.3,158.084,262.3,157.2 C262.3,156.316,263.016,155.6,263.9,155.6 C264.784,155.6,265.5,156.316,265.5,157.2"/>
                  </defs>
                  <use xlink:href="#23" style="fill:#3d94ff;fill-opacity:1;fill-rule:evenodd;opacity:1;stroke:none;"/>
                </g>
              </defs>
              <use xlink:href="#22"/>
            </g>
            <g id="24">
              <title>Group</title>
              <defs>
                <title>Shape 204</title>
                <g id="25">
                  <defs>
                    <path id="26" d="M270.1,157.2 C270.1,158.084,269.384,158.8,268.5,158.8 C267.616,158.8,266.9,158.084,266.9,157.2 C266.9,156.316,267.616,155.6,268.5,155.6 C269.384,155.6,270.1,156.316,270.1,157.2"/>
                  </defs>
                  <use xlink:href="#26" style="fill:#3d94ff;fill-opacity:1;fill-rule:evenodd;opacity:1;stroke:none;"/>
                </g>
              </defs>
              <use xlink:href="#25"/>
            </g>
            <g id="27">
              <title>Group</title>
              <defs>
                <title>Shape 205</title>
                <g id="28">
                  <defs>
                    <path id="29" d="M274.6,157.2 C274.6,158.084,273.884,158.8,273,158.8 C272.116,158.8,271.4,158.084,271.4,157.2 C271.4,156.316,272.116,155.6,273,155.6 C273.884,155.6,274.6,156.316,274.6,157.2"/>
                  </defs>
                  <use xlink:href="#29" style="fill:#3d94ff;fill-opacity:1;fill-rule:evenodd;opacity:1;stroke:none;"/>
                </g>
              </defs>
              <use xlink:href="#28"/>
            </g>
          </g>
        </g>
        <g id="30">
          <title>Group</title>
          <g id="31">
            <title>Group</title>
            <g id="32">
              <title>Group</title>
              <defs>
                <title>Shape 206</title>
                <g id="33">
                  <defs>
                    <path id="34" d="M305,207.6 C305,207.6,296.8,207.6,296.8,207.6 C296.8,207.6,296.8,196.9,296.8,196.9 C296.8,196.9,301.9,196.9,301.9,196.9 C301.9,196.9,305,201.6,305,201.6 z"/>
                  </defs>
                  <use xlink:href="#34" style="fill:none;opacity:1;stroke:#3cd1f5;stroke-linecap:butt;stroke-linejoin:miter;stroke-miterlimit:10;stroke-opacity:1;stroke-width:2;"/>
                </g>
              </defs>
              <use xlink:href="#33"/>
              <defs>
                <title>Shape 207</title>
                <g id="35">
                  <defs>
                    <path id="36" d="M305,201.6 C305,201.6,301.9,201.6,301.9,201.6 C301.9,201.6,301.9,196.9,301.9,196.9"/>
                  </defs>
                  <use xlink:href="#36" style="fill:none;opacity:1;stroke:#3cd1f5;stroke-linecap:butt;stroke-linejoin:miter;stroke-miterlimit:10;stroke-opacity:1;stroke-width:2;"/>
                </g>
              </defs>
              <use xlink:href="#35"/>
            </g>
            <g id="37">
              <title>Group</title>
              <defs>
                <title>Shape 208</title>
                <g id="38">
                  <defs>
                    <path id="39" d="M316.7,198.6 C316.9,198.5,317.1,198.4,317.2,198.3 C317.3,198.1,317.3,197.9,317.3,197.7 C316.4,194.1,314.3,191,311.5,188.7 C311.4,188.6,311.2,188.5,311,188.5 C310.8,188.5,310.6,188.6,310.4,188.8 C310.1,189.1,310.2,189.6,310.5,189.8 C313.1,191.9,315,194.8,315.8,198 C315.8,198,315.8,198,315.8,198 C315.9,198.5,316.3,198.8,316.7,198.6 z"/>
                  </defs>
                  <use xlink:href="#39" style="fill:#3d94ff;fill-opacity:1;fill-rule:evenodd;opacity:1;stroke:none;"/>
                </g>
              </defs>
              <use xlink:href="#38"/>
              <defs>
                <title>Shape 209</title>
                <g id="40">
                  <defs>
                    <path id="41" d="M290.8,188.6 C290.8,188.6,290.8,188.6,290.8,188.6 C290.6,188.6,290.4,188.7,290.3,188.8 C287.4,191.2,285.4,194.3,284.5,197.8 C284.5,198,284.5,198.2,284.6,198.4 C284.7,198.6,284.9,198.7,285.1,198.7 C285.1,198.7,285.1,198.7,285.1,198.7 C285.5,198.8,285.9,198.5,286,198.2 C286.8,195,288.6,192.2,291.3,190 C291.6,189.7,291.7,189.3,291.4,189 C291.2,188.7,291,188.6,290.8,188.6 z"/>
                  </defs>
                  <use xlink:href="#41" style="fill:#3d94ff;fill-opacity:1;fill-rule:evenodd;opacity:1;stroke:none;"/>
                </g>
              </defs>
              <use xlink:href="#40"/>
              <defs>
                <title>Shape 210</title>
                <g id="42">
                  <defs>
                    <path id="43" d="M294.8,216.9 C294.7,217.3,294.9,217.7,295.3,217.8 C297.1,218.4,298.9,218.7,300.9,218.7 C302.8,218.7,304.7,218.4,306.5,217.8 C306.9,217.7,307.1,217.2,307,216.9 C306.9,216.5,306.4,216.3,306.1,216.4 C302.8,217.5,299.1,217.5,295.9,216.4 C295.8,216.4,295.7,216.4,295.7,216.4 C295.6,216.4,295.5,216.4,295.4,216.5 C295,216.6,294.9,216.7,294.8,216.9 z"/>
                  </defs>
                  <use xlink:href="#43" style="fill:#3d94ff;fill-opacity:1;fill-rule:evenodd;opacity:1;stroke:none;"/>
                </g>
              </defs>
              <use xlink:href="#42"/>
            </g>
          </g>
          <defs>
            <title>Shape 211</title>
            <g id="44">
              <defs>
                <path id="45" d="M308.8,189.3 C308.3,187.7,307.1,186.4,305.5,185.8 C304.9,185.6,304.2,185.5,303.6,185.5 C303.6,185.133,303.6,184.767,303.6,184.4 C304.4,183.6,304.8,182.4,304.9,181 C304.9,180.9,304.9,180.9,304.9,180.8 C304.9,180.7,304.9,180.6,304.9,180.5 C304.9,179.933,304.9,179.367,304.9,178.8 C304.9,177.7,304.5,176.7,303.7,175.9 C302.9,175.1,301.9,174.7,300.8,174.7 C298.6,174.7,296.7,176.5,296.7,178.8 C296.7,179.367,296.7,179.933,296.7,180.5 C296.7,180.6,296.7,180.7,296.7,180.8 C296.7,180.9,296.7,180.9,296.7,181 C296.8,182.4,297.3,183.6,298,184.5 C298,184.867,298,185.233,298,185.6 C297.3,185.6,296.7,185.7,296.1,185.9 C294.5,186.5,293.3,187.8,292.8,189.4 C292.7,189.9,292.6,190.4,292.6,190.9 C292.6,191.133,292.6,191.367,292.6,191.6 C292.6,192,292.9,192.3,293.3,192.3 C298.267,192.3,303.233,192.3,308.2,192.3 C308.6,192.3,308.9,192,308.9,191.6 C308.9,191.367,308.9,191.133,308.9,190.9 C309,190.3,308.9,189.8,308.8,189.3 z M300.9,175.9 C301.6,175.9,302.3,176.2,302.8,176.7 C303.1,177,303.4,177.5,303.5,177.9 C303.5,177.9,303.4,177.8,303.4,177.8 C303.2,177.6,303,177.6,302.7,177.6 C302.7,177.6,301.7,177.9,300.9,177.9 C300.1,177.9,299.1,177.6,299.1,177.6 C299,177.6,299,177.6,298.9,177.6 C298.9,177.6,298.9,177.6,298.9,177.6 C298.8,177.6,298.8,177.6,298.8,177.6 C298.8,177.6,298.8,177.6,298.8,177.6 C298.8,177.6,298.7,177.6,298.7,177.6 C298.7,177.6,298.7,177.6,298.7,177.6 C298.7,177.6,298.6,177.7,298.6,177.7 C298.6,177.7,298.5,177.8,298.5,177.8 C298.6,176.8,299.6,175.9,300.9,175.9 z M298.2,180.7 C298.2,180.7,298.2,180.7,298.2,180.7 C298.2,180.7,298.2,180.6,298.2,180.6 C298.2,180.6,298.2,180.6,298.2,180.5 C298.2,180.5,298.2,180.4,298.2,180.4 C298.2,180.4,298.2,180.4,298.2,180.3 C298.2,180.3,298.2,180.2,298.3,180.2 C298.3,180.2,298.3,180.1,298.3,180.1 C298.3,180.1,298.3,180,298.4,180 C298.4,180,298.4,179.9,298.5,179.9 C298.5,179.8,298.6,179.8,298.6,179.7 C298.6,179.7,298.6,179.6,298.7,179.6 C298.7,179.5,298.8,179.5,298.8,179.4 C298.8,179.4,298.8,179.3,298.9,179.3 C299,179.2,299,179.1,299.1,179 C299.5,179.1,300.2,179.3,300.9,179.3 C301.6,179.3,302.3,179.2,302.7,179 C302.8,179.1,302.8,179.2,302.9,179.3 C302.9,179.3,302.9,179.4,303,179.4 C303,179.5,303.1,179.5,303.1,179.6 C303.1,179.6,303.1,179.7,303.2,179.7 C303.2,179.8,303.3,179.8,303.3,179.9 C303.3,179.9,303.3,180,303.4,180 C303.4,180,303.4,180.1,303.5,180.1 C303.5,180.1,303.5,180.2,303.5,180.2 C303.5,180.2,303.5,180.3,303.6,180.3 C303.6,180.3,303.6,180.4,303.6,180.4 C303.6,180.4,303.6,180.5,303.6,180.5 C303.6,180.5,303.6,180.5,303.6,180.5 C303.6,180.6,303.6,180.6,303.6,180.6 C303.5,181.8,303.1,182.8,302.5,183.4 C302.1,183.8,301.5,184,300.9,184 C300.3,184,299.7,183.8,299.3,183.4 C298.6,182.9,298.2,181.9,298.2,180.7 C298.2,180.7,298.2,180.7,298.2,180.7 z M301.6,186.8 C301.133,186.8,300.667,186.8,300.2,186.8 C299.8,186.8,299.5,186.5,299.5,186.1 C299.5,186.1,299.5,186.1,299.5,186.1 C299.5,185.8,299.5,185.5,299.5,185.2 C299.5,185.2,299.5,185.2,299.5,185.2 C299.9,185.4,300.4,185.4,300.8,185.4 C301.1,185.4,301.4,185.4,301.7,185.3 C301.9,185.3,302,185.2,302.2,185.2 C302.2,185.2,302.2,185.2,302.2,185.2 C302.2,185.467,302.2,185.733,302.2,186 C302.2,186,302.2,186,302.2,186 C302.2,186.033,302.2,186.067,302.2,186.1 C302.2,186.5,301.9,186.8,301.6,186.8 z M300.2,190.8 C298.167,190.8,296.133,190.8,294.1,190.8 C294.1,190.4,294.2,190,294.3,189.6 C294.7,188.4,295.6,187.4,296.8,187 C297.3,186.8,297.7,186.7,298.2,186.7 C298.233,186.7,298.267,186.7,298.3,186.7 C298.6,187.5,299.3,188.1,300.2,188.1 C300.2,188.1,300.2,190.8,300.2,190.8 z M301.6,190.8 C301.6,189.9,301.6,189,301.6,188.1 C301.8,188.1,302,188.1,302.2,188 C302.3,188,302.4,187.9,302.5,187.9 C302.7,187.8,302.9,187.7,303,187.5 C303.2,187.3,303.4,187,303.5,186.7 C303.533,186.7,303.567,186.7,303.6,186.7 C304.1,186.7,304.6,186.8,305,187 C306.2,187.4,307.1,188.4,307.5,189.6 C307.6,190,307.7,190.4,307.7,190.8 C307.7,190.8,301.6,190.8,301.6,190.8 z"/>
              </defs>
              <use xlink:href="#45" style="fill:#3d94ff;fill-opacity:1;fill-rule:evenodd;opacity:1;stroke:none;"/>
            </g>
          </defs>
          <use xlink:href="#44"/>
          <g id="46">
            <title>Group</title>
            <g id="47">
              <title>Group</title>
              <defs>
                <title>Shape 212</title>
                <g id="48">
                  <defs>
                    <path id="49" d="M324.2,215.6 C323.7,214,322.5,212.7,320.9,212.1 C320.3,211.9,319.6,211.8,319,211.8 C319,211.533,319,211.267,319,211 C319.2,211,319.4,211.1,319.6,211.1 C321,211.1,321.4,210.2,321.5,210.2 C321.633,209.933,321.767,209.667,321.9,209.4 C321.6,209.333,321.3,209.267,321,209.2 C320.6,209.1,320.3,209,320.2,208.8 C320.1,208.7,320.2,208.5,320.2,208.5 C320.2,208.5,320.2,208.5,320.2,208.5 C320.3,208.1,320.4,207.7,320.4,207.3 C320.4,207.2,320.4,207.2,320.4,207.1 C320.4,207,320.4,206.9,320.4,206.8 C320.4,206.8,320.4,205,320.4,205 C320.4,203.9,320,202.9,319.2,202.1 C318.4,201.3,317.4,200.9,316.3,200.9 C314.1,200.9,312.2,202.7,312.2,205 C312.2,205.567,312.2,206.133,312.2,206.7 C312.2,206.8,312.2,206.9,312.2,207 C312.2,207.1,312.2,207.1,312.2,207.1 C312.2,207.5,312.3,207.9,312.4,208.3 C312.4,208.3,312.4,208.3,312.4,208.3 C312.4,208.3,312.4,208.5,312.4,208.6 C312.3,208.8,312,208.9,311.6,209 C311.3,209.067,311,209.133,310.7,209.2 C310.833,209.467,310.967,209.733,311.1,210 C311.1,210,311.6,210.9,313,210.9 C313.2,210.9,313.4,210.9,313.6,210.8 C313.6,211.067,313.6,211.333,313.6,211.6 C313.6,211.6,313.6,211.6,313.6,211.6 C312.9,211.6,312.3,211.7,311.7,211.9 C310.1,212.5,308.9,213.8,308.4,215.4 C308.3,215.9,308.2,216.4,308.2,216.9 C308.2,217.133,308.2,217.367,308.2,217.6 C308.2,218,308.5,218.3,308.9,218.3 C313.867,218.3,318.833,218.3,323.8,218.3 C324.2,218.3,324.5,218,324.5,217.6 C324.5,217.367,324.5,217.133,324.5,216.9 C324.4,216.7,324.4,216.1,324.2,215.6 z M315,212.5 C315,212.4,315,212.4,315,212.5 C315,212.2,315,211.9,315,211.6 C315,211.6,315,211.6,315,211.6 C315.4,211.8,315.9,211.8,316.3,211.8 C316.3,211.8,316.3,211.8,316.3,211.8 C316.3,211.8,316.3,211.8,316.3,211.8 C316.8,211.8,317.2,211.7,317.6,211.6 C317.6,211.6,317.6,211.6,317.6,211.6 C317.6,211.867,317.6,212.133,317.6,212.4 C317.6,212.4,317.6,212.4,317.6,212.4 C317.6,212.4,317.6,212.4,317.6,212.4 C317.6,212.433,317.6,212.467,317.6,212.5 C317.6,212.9,317.3,213.2,316.9,213.2 C316.433,213.2,315.967,213.2,315.5,213.2 C315.3,213.1,315,212.8,315,212.5 z M316.3,202.3 C317,202.3,317.7,202.6,318.2,203.1 C318.5,203.4,318.8,203.9,318.9,204.3 C318.9,204.3,318.8,204.2,318.8,204.2 C318.6,204,318.4,204,318.1,204 C318.1,204,317.1,204.3,316.3,204.3 C315.5,204.3,314.5,204,314.5,204 C314.4,204,314.4,204,314.3,204 C314.3,204,314.3,204,314.3,204 C314.2,204,314.2,204,314.2,204 C314.2,204,314.2,204,314.2,204 C314.2,204,314.1,204,314.1,204 C314.1,204,314.1,204,314.1,204 C314.1,204,314,204.1,314,204.1 C314,204.1,313.9,204.2,313.9,204.2 C314,203.1,315,202.3,316.3,202.3 z M313.6,207.1 C313.6,207.1,313.6,207.1,313.6,207.1 C313.6,207.1,313.6,207,313.6,207 C313.6,207,313.6,207,313.6,206.9 C313.6,206.9,313.6,206.8,313.6,206.8 C313.6,206.8,313.6,206.8,313.6,206.7 C313.6,206.7,313.6,206.6,313.7,206.6 C313.7,206.6,313.7,206.5,313.7,206.5 C313.7,206.5,313.7,206.4,313.8,206.4 C313.8,206.4,313.8,206.3,313.9,206.3 C313.9,206.2,314,206.2,314,206.1 C314,206.1,314,206,314.1,206 C314.1,205.9,314.2,205.9,314.2,205.8 C314.2,205.8,314.2,205.7,314.3,205.7 C314.4,205.6,314.4,205.5,314.5,205.4 C314.9,205.5,315.6,205.7,316.3,205.7 C317,205.7,317.7,205.6,318.1,205.4 C318.2,205.5,318.2,205.6,318.3,205.7 C318.3,205.7,318.3,205.8,318.4,205.8 C318.4,205.9,318.5,205.9,318.5,206 C318.5,206,318.5,206.1,318.6,206.1 C318.6,206.2,318.7,206.2,318.7,206.3 C318.7,206.3,318.7,206.4,318.8,206.4 C318.8,206.4,318.8,206.5,318.9,206.5 C318.9,206.5,318.9,206.6,318.9,206.6 C318.9,206.6,318.9,206.7,319,206.7 C319,206.7,319,206.8,319,206.8 C319,206.8,319,206.9,319,206.9 C319,206.9,319,206.9,319,206.9 C319,207,319,207,319,207 C318.9,208.2,318.5,209.2,317.9,209.8 C317.5,210.2,316.9,210.4,316.3,210.4 C315.7,210.4,315.1,210.2,314.7,209.8 C314.2,209.4,313.9,208.8,313.7,208.1 C313.7,208,313.7,208,313.7,208 C313.7,207.7,313.6,207.4,313.6,207.1 C313.6,207.1,313.6,207.1,313.6,207.1 z M315.6,217.2 C313.567,217.2,311.533,217.2,309.5,217.2 C309.5,216.8,309.6,216.4,309.7,216 C310.1,214.8,311,213.8,312.2,213.4 C312.7,213.2,313.1,213.1,313.6,213.1 C313.633,213.1,313.667,213.1,313.7,213.1 C314,213.9,314.7,214.5,315.6,214.5 C315.6,214.5,315.6,214.5,315.6,214.5 C315.6,214.5,315.6,217.2,315.6,217.2 z M317,217.2 C317,216.3,317,215.4,317,214.5 C317.9,214.5,318.6,213.9,318.9,213.1 C318.933,213.1,318.967,213.1,319,213.1 C319.5,213.1,320,213.2,320.4,213.4 C321.6,213.8,322.5,214.8,322.9,216 C323,216.4,323.1,216.8,323.1,217.2 C323.1,217.2,317,217.2,317,217.2 z"/>
                  </defs>
                  <use xlink:href="#49" style="fill:#3d94ff;fill-opacity:1;fill-rule:evenodd;opacity:1;stroke:none;"/>
                </g>
              </defs>
              <use xlink:href="#48"/>
            </g>
          </g>
          <g id="50">
            <title>Group</title>
            <g id="51">
              <title>Group</title>
              <g id="52">
                <title>Group</title>
                <defs>
                  <title>Shape 213</title>
                  <g id="53">
                    <defs>
                      <path id="54" d="M290,212.1 C289.4,211.9,288.7,211.8,288.1,211.8 C288.1,211.433,288.1,211.067,288.1,210.7 C289,209.8,289.5,208.4,289.5,206.8 C289.5,206,289.3,205.2,288.9,204.5 C289.5,203.6,289.5,202.6,289.5,201.7 C289.5,201.3,289.2,201,288.8,201 C287.667,201,286.533,201,285.4,201 C283.2,201,281.3,202.8,281.3,205.1 C281.3,205.667,281.3,206.233,281.3,206.8 C281.3,206.9,281.3,207,281.3,207.1 C281.3,207.2,281.3,207.2,281.3,207.3 C281.4,208.7,281.9,209.9,282.6,210.8 C282.6,211.167,282.6,211.533,282.6,211.9 C281.9,211.9,281.3,212,280.7,212.2 C279.1,212.8,277.9,214.1,277.4,215.7 C277.3,216.2,277.2,216.7,277.2,217.2 C277.2,217.433,277.2,217.667,277.2,217.9 C277.2,218.3,277.5,218.6,277.9,218.6 C282.867,218.6,287.833,218.6,292.8,218.6 C293.2,218.6,293.5,218.3,293.5,217.9 C293.5,217.667,293.5,217.433,293.5,217.2 C293.5,216.7,293.4,216.2,293.3,215.7 C292.9,214,291.6,212.7,290,212.1 z M285.4,202.3 C286.3,202.3,287.2,202.3,288.1,202.3 C288.1,203,287.9,203.5,287.5,203.8 C287.1,204.1,286.4,204.3,285.4,204.3 C284.6,204.3,283.6,204,283.6,204 C283.5,204,283.5,204,283.4,204 C283.4,204,283.4,204,283.4,204 C283.4,204,283.3,204,283.3,204 C283.3,204,283.3,204,283.3,204 C283.3,204,283.2,204,283.2,204 C283.2,204,283.2,204,283.2,204 C283.2,204,283.1,204.1,283.1,204.1 C283.1,204.1,283,204.2,283,204.2 C283.1,203.1,284.2,202.3,285.4,202.3 z M282.7,207.1 C282.7,207.1,282.7,207.1,282.7,207.1 C282.7,207.1,282.7,207,282.7,207 C282.7,207,282.7,207,282.7,206.9 C282.7,206.9,282.7,206.8,282.7,206.8 C282.7,206.8,282.7,206.8,282.7,206.7 C282.7,206.7,282.7,206.6,282.8,206.6 C282.8,206.6,282.8,206.5,282.8,206.5 C282.8,206.5,282.8,206.4,282.9,206.4 C282.9,206.4,282.9,206.3,283,206.3 C283,206.2,283.1,206.2,283.1,206.1 C283.1,206.1,283.1,206,283.2,206 C283.2,205.9,283.3,205.9,283.3,205.8 C283.3,205.8,283.3,205.7,283.4,205.7 C283.5,205.6,283.5,205.5,283.6,205.4 C284,205.5,284.7,205.7,285.4,205.7 C285.6,205.7,285.8,205.7,286,205.7 C286.1,205.7,286.1,205.7,286.2,205.7 C286.4,205.7,286.5,205.7,286.7,205.6 C286.7,205.6,286.7,205.6,286.8,205.6 C287,205.6,287.1,205.5,287.3,205.5 C287.3,205.5,287.4,205.5,287.4,205.5 C287.5,205.5,287.6,205.4,287.8,205.4 C287.8,205.4,287.8,205.4,287.9,205.4 C288.1,205.8,288.3,206.3,288.3,206.8 C288.3,208.2,287.9,209.3,287.2,210 C286.8,210.4,286.2,210.6,285.6,210.6 C285,210.6,284.4,210.4,284,210 C283.2,209.3,282.8,208.3,282.7,207.1 C282.7,207.1,282.7,207.1,282.7,207.1 z M284.7,217.2 C282.667,217.2,280.633,217.2,278.6,217.2 C278.6,216.8,278.7,216.4,278.8,216 C279.2,214.8,280.1,213.8,281.3,213.4 C281.8,213.2,282.2,213.1,282.7,213.1 C282.733,213.1,282.767,213.1,282.8,213.1 C283.1,213.9,283.8,214.5,284.7,214.5 C284.7,214.5,284.7,217.2,284.7,217.2 z M284.1,212.5 C284.1,212.4,284.1,212.4,284.1,212.5 C284.1,212.2,284.1,211.9,284.1,211.6 C284.1,211.6,284.1,211.6,284.1,211.6 C284.5,211.8,285,211.8,285.4,211.8 C285.9,211.8,286.3,211.7,286.7,211.6 C286.7,211.6,286.7,211.6,286.7,211.6 C286.7,211.867,286.7,212.133,286.7,212.4 C286.7,212.4,286.7,212.4,286.7,212.4 C286.7,212.433,286.7,212.467,286.7,212.5 C286.7,212.9,286.4,213.2,286,213.2 C285.533,213.2,285.067,213.2,284.6,213.2 C284.4,213.1,284.1,212.8,284.1,212.5 z M286.1,217.2 C286.1,216.3,286.1,215.4,286.1,214.5 C287,214.5,287.7,213.9,288,213.1 C288.033,213.1,288.067,213.1,288.1,213.1 C288.6,213.1,289.1,213.2,289.5,213.4 C290.7,213.8,291.6,214.8,292,216 C292.1,216.4,292.2,216.8,292.2,217.2 C292.2,217.2,286.1,217.2,286.1,217.2 z"/>
                    </defs>
                    <use xlink:href="#54" style="fill:#3d94ff;fill-opacity:1;fill-rule:evenodd;opacity:1;stroke:none;"/>
                  </g>
                </defs>
                <use xlink:href="#53"/>
              </g>
            </g>
          </g>
        </g>
      </g>
      <clipPath id="56">
        <use xlink:href="#55"/>
        <path id="55" d="M352.2,151.3 C352.2,197.5,314.7,235,268.5,235 C250.8,235,234.4,229.5,220.8,220.1 C207.2,210.7,196.6,197.3,190.5,181.7 C186.8,172.3,184.8,162,184.8,151.3 C184.8,105.1,161,80,268.5,67.6 C314.4,62.3,352.2,105.1,352.2,151.3 z"/>
      </clipPath>
      <g id="57" style="clip-path:url(#56);"/>
    </g>
    <g id="58">
      <title>Group</title>
      <defs>
        <title>Shape 214</title>
        <g id="59">
          <defs>
            <path id="60" d="M364.5,145.8 C364.5,145.8,369.7,151,369.7,151 C369.7,151,364.5,156.2,364.5,156.2"/>
          </defs>
          <use xlink:href="#60" style="fill:none;opacity:1;stroke:#d1d6e0;stroke-linecap:butt;stroke-linejoin:miter;stroke-miterlimit:10;stroke-opacity:1;stroke-width:2;"/>
        </g>
      </defs>
      <use xlink:href="#59"/>
      <defs>
        <title>Shape 215</title>
        <g id="61">
          <defs>
            <path id="62" d="M369.7,151 C369.7,151,352.3,151,352.3,151"/>
          </defs>
          <use xlink:href="#62" style="fill:none;opacity:1;stroke:#d1d6e0;stroke-linecap:butt;stroke-linejoin:miter;stroke-miterlimit:10;stroke-opacity:1;stroke-width:2;"/>
        </g>
      </defs>
      <use xlink:href="#61"/>
    </g>
    <g id="63">
      <title>Group</title>
      <defs>
        <title>Shape 216</title>
        <g id="64">
          <defs>
            <path id="65" d="M453.7,145.8 C453.7,145.8,459,151,459,151 C459,151,453.7,156.2,453.7,156.2"/>
          </defs>
          <use xlink:href="#65" style="fill:none;opacity:1;stroke:#d1d6e0;stroke-linecap:butt;stroke-linejoin:miter;stroke-miterlimit:10;stroke-opacity:1;stroke-width:2;"/>
        </g>
      </defs>
      <use xlink:href="#64"/>
      <defs>
        <title>Shape 217</title>
        <g id="66">
          <defs>
            <path id="67" d="M459,151 C459,151,441.6,151,441.6,151"/>
          </defs>
          <use xlink:href="#67" style="fill:none;opacity:1;stroke:#d1d6e0;stroke-linecap:butt;stroke-linejoin:miter;stroke-miterlimit:10;stroke-opacity:1;stroke-width:2;"/>
        </g>
      </defs>
      <use xlink:href="#66"/>
    </g>
    <g id="68">
      <title>Group</title>
      <defs>
        <title>Shape 218</title>
        <g id="69">
          <defs>
            <path id="70" d="M173,156.2 C173,156.2,167.8,151,167.8,151 C167.8,151,173,145.8,173,145.8"/>
          </defs>
          <use xlink:href="#70" style="fill:none;opacity:1;stroke:#d1d6e0;stroke-linecap:butt;stroke-linejoin:miter;stroke-miterlimit:10;stroke-opacity:1;stroke-width:2;"/>
        </g>
      </defs>
      <use xlink:href="#69"/>
      <defs>
        <title>Shape 219</title>
        <g id="71">
          <defs>
            <path id="72" d="M167.8,151 C167.8,151,185.1,151,185.1,151"/>
          </defs>
          <use xlink:href="#72" style="fill:none;opacity:1;stroke:#d1d6e0;stroke-linecap:butt;stroke-linejoin:miter;stroke-miterlimit:10;stroke-opacity:1;stroke-width:2;"/>
        </g>
      </defs>
      <use xlink:href="#71"/>
    </g>
    <g id="73">
      <title>Group</title>
      <defs>
        <title>Shape 220</title>
        <g id="74">
          <defs>
            <path id="75" d="M82.3,156.2 C82.3,156.2,77.1,151,77.1,151 C77.1,151,82.3,145.8,82.3,145.8"/>
          </defs>
          <use xlink:href="#75" style="fill:none;opacity:1;stroke:#d1d6e0;stroke-linecap:butt;stroke-linejoin:miter;stroke-miterlimit:10;stroke-opacity:1;stroke-width:2;"/>
        </g>
      </defs>
      <use xlink:href="#74"/>
      <defs>
        <title>Shape 221</title>
        <g id="76">
          <defs>
            <path id="77" d="M77.1,151 C77.1,151,94.4,151,94.4,151"/>
          </defs>
          <use xlink:href="#77" style="fill:none;opacity:1;stroke:#d1d6e0;stroke-linecap:butt;stroke-linejoin:miter;stroke-miterlimit:10;stroke-opacity:1;stroke-width:2;"/>
        </g>
      </defs>
      <use xlink:href="#76"/>
    </g>
    <g id="78">
      <title>Group</title>
      <g id="79">
        <title>Group</title>
        <g id="80">
          <title>Group</title>
          <g id="81">
            <title>Group</title>
            <defs>
              <title>Shape 222</title>
              <g id="82">
                <defs>
                  <path id="83" d="M209.3,91.8 C209.3,91.8,206.1,88.6,206.1,88.6"/>
                </defs>
                <use xlink:href="#83" style="fill:none;opacity:1;stroke:#d1d6e0;stroke-linecap:butt;stroke-linejoin:round;stroke-miterlimit:4;stroke-opacity:1;stroke-width:2;"/>
              </g>
            </defs>
            <use xlink:href="#82"/>
            <defs>
              <title>Shape 223</title>
              <g id="84">
                <defs>
                  <path id="85" d="M203.1,85.6 C203.1,85.6,197.1,79.6,197.1,79.6"/>
                </defs>
                <use xlink:href="#85" style="fill:none;opacity:1;stroke:#d1d6e0;stroke-dasharray:6.3482, 4.2322;stroke-dashoffset:0;stroke-linecap:butt;stroke-linejoin:round;stroke-miterlimit:4;stroke-opacity:1;stroke-width:2;"/>
              </g>
            </defs>
            <use xlink:href="#84"/>
            <defs>
              <title>Shape 224</title>
              <g id="86">
                <defs>
                  <path id="87" d="M195.6,78.1 C195.6,78.1,192.5,75,192.5,75"/>
                </defs>
                <use xlink:href="#87" style="fill:none;opacity:1;stroke:#d1d6e0;stroke-linecap:butt;stroke-linejoin:round;stroke-miterlimit:4;stroke-opacity:1;stroke-width:2;"/>
              </g>
            </defs>
            <use xlink:href="#86"/>
          </g>
        </g>
        <g id="88">
          <title>Group</title>
          <g id="89">
            <title>Group</title>
            <defs>
              <title>Shape 225</title>
              <g id="90">
                <defs>
                  <path id="91" d="M344.5,227 C344.5,227,341.4,223.9,341.4,223.9"/>
                </defs>
                <use xlink:href="#91" style="fill:none;opacity:1;stroke:#d1d6e0;stroke-linecap:butt;stroke-linejoin:round;stroke-miterlimit:4;stroke-opacity:1;stroke-width:2;"/>
              </g>
            </defs>
            <use xlink:href="#90"/>
            <defs>
              <title>Shape 226</title>
              <g id="92">
                <defs>
                  <path id="93" d="M338.4,220.9 C338.4,220.9,332.4,214.9,332.4,214.9"/>
                </defs>
                <use xlink:href="#93" style="fill:none;opacity:1;stroke:#d1d6e0;stroke-dasharray:6.3482, 4.2322;stroke-dashoffset:0;stroke-linecap:butt;stroke-linejoin:round;stroke-miterlimit:4;stroke-opacity:1;stroke-width:2;"/>
              </g>
            </defs>
            <use xlink:href="#92"/>
            <defs>
              <title>Shape 227</title>
              <g id="94">
                <defs>
                  <path id="95" d="M330.9,213.4 C330.9,213.4,327.7,210.2,327.7,210.2"/>
                </defs>
                <use xlink:href="#95" style="fill:none;opacity:1;stroke:#d1d6e0;stroke-linecap:butt;stroke-linejoin:round;stroke-miterlimit:4;stroke-opacity:1;stroke-width:2;"/>
              </g>
            </defs>
            <use xlink:href="#94"/>
          </g>
        </g>
      </g>
      <defs>
        <title>Shape 228</title>
        <g id="96">
          <defs>
            <path id="97" d="M198.5,75 C198.5,78.3137,195.814,81,192.5,81 C189.186,81,186.5,78.3137,186.5,75 C186.5,71.6863,189.186,69,192.5,69 C195.814,69,198.5,71.6863,198.5,75"/>
          </defs>
          <use xlink:href="#97" style="fill:#d1d6e0;fill-opacity:1;fill-rule:evenodd;opacity:1;stroke:none;"/>
          <use xlink:href="#97" style="fill:none;opacity:1;stroke:#ffffff;stroke-linecap:butt;stroke-linejoin:miter;stroke-miterlimit:10;stroke-opacity:1;stroke-width:2;"/>
        </g>
      </defs>
      <use xlink:href="#96"/>
      <defs>
        <title>Shape 229</title>
        <g id="98">
          <defs>
            <path id="99" d="M350.5,227 C350.5,230.314,347.814,233,344.5,233 C341.186,233,338.5,230.314,338.5,227 C338.5,223.686,341.186,221,344.5,221 C347.814,221,350.5,223.686,350.5,227"/>
          </defs>
          <use xlink:href="#99" style="fill:#d1d6e0;fill-opacity:1;fill-rule:evenodd;opacity:1;stroke:none;"/>
          <use xlink:href="#99" style="fill:none;opacity:1;stroke:#ffffff;stroke-linecap:butt;stroke-linejoin:miter;stroke-miterlimit:10;stroke-opacity:1;stroke-width:2;"/>
        </g>
      </defs>
      <use xlink:href="#98"/>
      <g id="100">
        <title>Group</title>
        <g id="101">
          <title>Group</title>
          <g id="102">
            <title>Group</title>
            <defs>
              <title>Shape 230</title>
              <g id="103">
                <defs>
                  <path id="104" d="M327.7,91.8 C327.7,91.8,330.9,88.6,330.9,88.6"/>
                </defs>
                <use xlink:href="#104" style="fill:none;opacity:1;stroke:#d1d6e0;stroke-linecap:butt;stroke-linejoin:round;stroke-miterlimit:4;stroke-opacity:1;stroke-width:2;"/>
              </g>
            </defs>
            <use xlink:href="#103"/>
            <defs>
              <title>Shape 231</title>
              <g id="105">
                <defs>
                  <path id="106" d="M333.9,85.6 C333.9,85.6,339.9,79.6,339.9,79.6"/>
                </defs>
                <use xlink:href="#106" style="fill:none;opacity:1;stroke:#d1d6e0;stroke-dasharray:6.3482, 4.2322;stroke-dashoffset:0;stroke-linecap:butt;stroke-linejoin:round;stroke-miterlimit:4;stroke-opacity:1;stroke-width:2;"/>
              </g>
            </defs>
            <use xlink:href="#105"/>
            <defs>
              <title>Shape 232</title>
              <g id="107">
                <defs>
                  <path id="108" d="M341.4,78.1 C341.4,78.1,344.5,75,344.5,75"/>
                </defs>
                <use xlink:href="#108" style="fill:none;opacity:1;stroke:#d1d6e0;stroke-linecap:butt;stroke-linejoin:round;stroke-miterlimit:4;stroke-opacity:1;stroke-width:2;"/>
              </g>
            </defs>
            <use xlink:href="#107"/>
          </g>
        </g>
        <g id="109">
          <title>Group</title>
          <g id="110">
            <title>Group</title>
            <defs>
              <title>Shape 233</title>
              <g id="111">
                <defs>
                  <path id="112" d="M192.5,227 C192.5,227,195.6,223.9,195.6,223.9"/>
                </defs>
                <use xlink:href="#112" style="fill:none;opacity:1;stroke:#d1d6e0;stroke-linecap:butt;stroke-linejoin:round;stroke-miterlimit:4;stroke-opacity:1;stroke-width:2;"/>
              </g>
            </defs>
            <use xlink:href="#111"/>
            <defs>
              <title>Shape 234</title>
              <g id="113">
                <defs>
                  <path id="114" d="M198.6,220.9 C198.6,220.9,204.6,214.9,204.6,214.9"/>
                </defs>
                <use xlink:href="#114" style="fill:none;opacity:1;stroke:#d1d6e0;stroke-dasharray:6.3482, 4.2322;stroke-dashoffset:0;stroke-linecap:butt;stroke-linejoin:round;stroke-miterlimit:4;stroke-opacity:1;stroke-width:2;"/>
              </g>
            </defs>
            <use xlink:href="#113"/>
            <defs>
              <title>Shape 235</title>
              <g id="115">
                <defs>
                  <path id="116" d="M206.1,213.4 C206.1,213.4,209.3,210.2,209.3,210.2"/>
                </defs>
                <use xlink:href="#116" style="fill:none;opacity:1;stroke:#d1d6e0;stroke-linecap:butt;stroke-linejoin:round;stroke-miterlimit:4;stroke-opacity:1;stroke-width:2;"/>
              </g>
            </defs>
            <use xlink:href="#115"/>
          </g>
        </g>
      </g>
      <defs>
        <title>Shape 236</title>
        <g id="117">
          <defs>
            <path id="118" d="M350.5,75 C350.5,78.3137,347.814,81,344.5,81 C341.186,81,338.5,78.3137,338.5,75 C338.5,71.6863,341.186,69,344.5,69 C347.814,69,350.5,71.6863,350.5,75"/>
          </defs>
          <use xlink:href="#118" style="fill:#d1d6e0;fill-opacity:1;fill-rule:evenodd;opacity:1;stroke:none;"/>
          <use xlink:href="#118" style="fill:none;opacity:1;stroke:#ffffff;stroke-linecap:butt;stroke-linejoin:miter;stroke-miterlimit:10;stroke-opacity:1;stroke-width:2;"/>
        </g>
      </defs>
      <use xlink:href="#117"/>
      <defs>
        <title>Shape 237</title>
        <g id="119">
          <defs>
            <path id="120" d="M198.5,227 C198.5,230.314,195.814,233,192.5,233 C189.186,233,186.5,230.314,186.5,227 C186.5,223.686,189.186,221,192.5,221 C195.814,221,198.5,223.686,198.5,227"/>
          </defs>
          <use xlink:href="#120" style="fill:#d1d6e0;fill-opacity:1;fill-rule:evenodd;opacity:1;stroke:none;"/>
          <use xlink:href="#120" style="fill:none;opacity:1;stroke:#ffffff;stroke-linecap:butt;stroke-linejoin:miter;stroke-miterlimit:10;stroke-opacity:1;stroke-width:2;"/>
        </g>
      </defs>
      <use xlink:href="#119"/>
    </g>
    <g id="121">
      <title>Group</title>
      <defs>
        <title>Shape 238</title>
        <g id="122">
          <defs>
            <path id="123" d="M352.2,151 C352.2,197.2,314.7,234.7,268.5,234.7 C250.8,234.7,234.4,229.2,220.8,219.8 C207.2,210.4,196.6,197,190.5,181.4 C186.8,172,184.8,161.7,184.8,151 C184.8,104.8,222.3,67.3,268.5,67.3 C314.7,67.3,352.2,104.8,352.2,151 z"/>
          </defs>
          <use xlink:href="#123" style="fill:none;opacity:1;stroke:#3d94ff;stroke-linecap:butt;stroke-linejoin:miter;stroke-miterlimit:10;stroke-opacity:1;stroke-width:2;"/>
        </g>
      </defs>
      <use xlink:href="#122"/>
    </g>
    <defs>
      <title>Shape 239</title>
      <g id="124">
        <defs>
          <path id="125" d="M303.7,90.3 C304.4,90.3,305.1,90.4,305.8,90.5 C309.5,85.9,315.2,82.9,321.6,82.9 C330.2,82.9,337.6,88.3,340.5,95.9 C341.6,95.6,342.7,95.5,343.8,95.5 C350.3,95.5,355.8,100,357.3,106 C361.8,106.3,365.4,110.1,365.4,114.7 C365.4,119.5,361.5,123.4,356.7,123.4 C339,123.4,321.3,123.4,303.6,123.4 C294.5,123.4,287.1,116,287.1,106.9 C287.2,97.7,294.6,90.3,303.7,90.3 z"/>
        </defs>
        <use xlink:href="#125" style="fill:#65fbd3;fill-opacity:1;fill-rule:evenodd;opacity:1;stroke:none;"/>
      </g>
    </defs>
    <use xlink:href="#124"/>
    <g id="126">
      <title>Group</title>
      <g id="127">
        <title>Group</title>
        <g id="128">
          <title>Group</title>
          <defs>
            <title>Shape 240</title>
            <g id="129">
              <defs>
                <path id="130" d="M105.1,136.4 C122.767,136.4,140.433,136.4,158.1,136.4 C158.1,146.1,158.1,155.8,158.1,165.5 C140.433,165.5,122.767,165.5,105.1,165.5 C105.1,155.8,105.1,146.1,105.1,136.4 z"/>
              </defs>
              <use xlink:href="#130" style="fill:#e7f7fb;fill-opacity:1;fill-rule:evenodd;opacity:1;stroke:none;"/>
            </g>
          </defs>
          <use xlink:href="#129"/>
        </g>
        <defs>
          <title>Shape 241</title>
          <g id="131">
            <defs>
              <path id="132" d="M158.4,137.3 C140.567,137.3,122.733,137.3,104.9,137.3 C103.5,137.3,102.3,136.1,102.3,134.7 C102.3,129.9,102.3,125.1,102.3,120.3 C102.3,118.9,103.5,117.7,104.9,117.7 C122.733,117.7,140.567,117.7,158.4,117.7 C159.8,117.7,161,118.9,161,120.3 C161,125.1,161,129.9,161,134.7 C161,136.1,159.8,137.3,158.4,137.3 z"/>
            </defs>
            <use xlink:href="#132" style="fill:#ffffff;fill-opacity:1;fill-rule:evenodd;opacity:1;stroke:none;"/>
            <use xlink:href="#132" style="fill:none;opacity:1;stroke:#d1d6e0;stroke-linecap:butt;stroke-linejoin:miter;stroke-miterlimit:10;stroke-opacity:1;stroke-width:2;"/>
          </g>
        </defs>
        <use xlink:href="#131"/>
        <defs>
          <title>Shape 242</title>
          <g id="133">
            <defs>
              <path id="134" d="M158.4,160.9 C140.567,160.9,122.733,160.9,104.9,160.9 C103.5,160.9,102.3,159.7,102.3,158.3 C102.3,153.5,102.3,148.7,102.3,143.9 C102.3,142.5,103.5,141.3,104.9,141.3 C122.733,141.3,140.567,141.3,158.4,141.3 C159.8,141.3,161,142.5,161,143.9 C161,148.7,161,153.5,161,158.3 C161,159.7,159.8,160.9,158.4,160.9 z"/>
            </defs>
            <use xlink:href="#134" style="fill:#ffffff;fill-opacity:1;fill-rule:evenodd;opacity:1;stroke:none;"/>
            <use xlink:href="#134" style="fill:none;opacity:1;stroke:#d1d6e0;stroke-linecap:butt;stroke-linejoin:miter;stroke-miterlimit:10;stroke-opacity:1;stroke-width:2;"/>
          </g>
        </defs>
        <use xlink:href="#133"/>
        <defs>
          <title>Shape 243</title>
          <g id="135">
            <defs>
              <path id="136" d="M158.4,184.3 C140.567,184.3,122.733,184.3,104.9,184.3 C103.5,184.3,102.3,183.1,102.3,181.7 C102.3,176.9,102.3,172.1,102.3,167.3 C102.3,165.9,103.5,164.7,104.9,164.7 C122.733,164.7,140.567,164.7,158.4,164.7 C159.8,164.7,161,165.9,161,167.3 C161,172.1,161,176.9,161,181.7 C161,183.2,159.8,184.3,158.4,184.3 z"/>
            </defs>
            <use xlink:href="#136" style="fill:#ffffff;fill-opacity:1;fill-rule:evenodd;opacity:1;stroke:none;"/>
            <use xlink:href="#136" style="fill:none;opacity:1;stroke:#d1d6e0;stroke-linecap:butt;stroke-linejoin:miter;stroke-miterlimit:10;stroke-opacity:1;stroke-width:2;"/>
          </g>
        </defs>
        <use xlink:href="#135"/>
        <g id="137">
          <title>Group</title>
          <defs>
            <title>Shape 244</title>
            <g id="138">
              <defs>
                <path id="139" d="M113.1,127.5 C113.1,128.494,112.294,129.3,111.3,129.3 C110.306,129.3,109.5,128.494,109.5,127.5 C109.5,126.506,110.306,125.7,111.3,125.7 C112.294,125.7,113.1,126.506,113.1,127.5"/>
              </defs>
              <use xlink:href="#139" style="fill:#3cd1f5;fill-opacity:1;fill-rule:evenodd;opacity:1;stroke:none;"/>
            </g>
          </defs>
          <use xlink:href="#138"/>
          <g id="140">
            <title>Group</title>
            <defs>
              <title>Shape 245</title>
              <g id="141">
                <defs>
                  <path id="142" d="M118.1,127.5 C118.1,128.494,117.294,129.3,116.3,129.3 C115.306,129.3,114.5,128.494,114.5,127.5 C114.5,126.506,115.306,125.7,116.3,125.7 C117.294,125.7,118.1,126.506,118.1,127.5"/>
                </defs>
                <use xlink:href="#142" style="fill:#e7f7fb;fill-opacity:1;fill-rule:evenodd;opacity:1;stroke:none;"/>
              </g>
            </defs>
            <use xlink:href="#141"/>
          </g>
          <defs>
            <title>Shape 246</title>
            <g id="143">
              <defs>
                <path id="144" d="M123.2,127.5 C123.2,128.494,122.394,129.3,121.4,129.3 C120.406,129.3,119.6,128.494,119.6,127.5 C119.6,126.506,120.406,125.7,121.4,125.7 C122.394,125.7,123.2,126.506,123.2,127.5"/>
              </defs>
              <use xlink:href="#144" style="fill:#3cd1f5;fill-opacity:1;fill-rule:evenodd;opacity:1;stroke:none;"/>
            </g>
          </defs>
          <use xlink:href="#143"/>
        </g>
        <g id="145">
          <title>Group</title>
          <g id="146">
            <title>Group</title>
            <defs>
              <title>Shape 247</title>
              <g id="147">
                <defs>
                  <path id="148" d="M113.1,151.1 C113.1,152.094,112.294,152.9,111.3,152.9 C110.306,152.9,109.5,152.094,109.5,151.1 C109.5,150.106,110.306,149.3,111.3,149.3 C112.294,149.3,113.1,150.106,113.1,151.1"/>
                </defs>
                <use xlink:href="#148" style="fill:#e7f7fb;fill-opacity:1;fill-rule:evenodd;opacity:1;stroke:none;"/>
              </g>
            </defs>
            <use xlink:href="#147"/>
          </g>
          <defs>
            <title>Shape 248</title>
            <g id="149">
              <defs>
                <path id="150" d="M118.1,151.1 C118.1,152.094,117.294,152.9,116.3,152.9 C115.306,152.9,114.5,152.094,114.5,151.1 C114.5,150.106,115.306,149.3,116.3,149.3 C117.294,149.3,118.1,150.106,118.1,151.1"/>
              </defs>
              <use xlink:href="#150" style="fill:#3cd1f5;fill-opacity:1;fill-rule:evenodd;opacity:1;stroke:none;"/>
            </g>
          </defs>
          <use xlink:href="#149"/>
          <defs>
            <title>Shape 249</title>
            <g id="151">
              <defs>
                <path id="152" d="M123.2,151.1 C123.2,152.094,122.394,152.9,121.4,152.9 C120.406,152.9,119.6,152.094,119.6,151.1 C119.6,150.106,120.406,149.3,121.4,149.3 C122.394,149.3,123.2,150.106,123.2,151.1"/>
              </defs>
              <use xlink:href="#152" style="fill:#d1d6e0;fill-opacity:1;fill-rule:evenodd;opacity:1;stroke:none;"/>
            </g>
          </defs>
          <use xlink:href="#151"/>
        </g>
        <g id="153">
          <title>Group</title>
          <defs>
            <title>Shape 250</title>
            <g id="154">
              <defs>
                <path id="155" d="M113.1,174.5 C113.1,175.494,112.294,176.3,111.3,176.3 C110.306,176.3,109.5,175.494,109.5,174.5 C109.5,173.506,110.306,172.7,111.3,172.7 C112.294,172.7,113.1,173.506,113.1,174.5"/>
              </defs>
              <use xlink:href="#155" style="fill:#3cd1f5;fill-opacity:1;fill-rule:evenodd;opacity:1;stroke:none;"/>
            </g>
          </defs>
          <use xlink:href="#154"/>
          <g id="156">
            <title>Group</title>
            <defs>
              <title>Shape 251</title>
              <g id="157">
                <defs>
                  <path id="158" d="M118.1,174.5 C118.1,175.494,117.294,176.3,116.3,176.3 C115.306,176.3,114.5,175.494,114.5,174.5 C114.5,173.506,115.306,172.7,116.3,172.7 C117.294,172.7,118.1,173.506,118.1,174.5"/>
                </defs>
                <use xlink:href="#158" style="fill:#e7f7fb;fill-opacity:1;fill-rule:evenodd;opacity:1;stroke:none;"/>
              </g>
            </defs>
            <use xlink:href="#157"/>
          </g>
          <defs>
            <title>Shape 252</title>
            <g id="159">
              <defs>
                <path id="160" d="M123.2,174.5 C123.2,175.494,122.394,176.3,121.4,176.3 C120.406,176.3,119.6,175.494,119.6,174.5 C119.6,173.506,120.406,172.7,121.4,172.7 C122.394,172.7,123.2,173.506,123.2,174.5"/>
              </defs>
              <use xlink:href="#160" style="fill:#3cd1f5;fill-opacity:1;fill-rule:evenodd;opacity:1;stroke:none;"/>
            </g>
          </defs>
          <use xlink:href="#159"/>
        </g>
      </g>
    </g>
    <g id="161">
      <title>Group</title>
      <g id="162">
        <title>Group</title>
        <defs>
          <title>Shape 253</title>
          <g id="163">
            <defs>
              <path id="164" d="M405.6,184.4 C389.3,184.4,378.3,180.4,378.3,176.6 C378.3,160.167,378.3,143.733,378.3,127.3 C378.3,123.5,389.3,119.5,405.6,119.5 C421.9,119.5,432.9,123.5,432.9,127.3 C432.9,143.733,432.9,160.167,432.9,176.6 C432.9,180.4,422,184.4,405.6,184.4 z"/>
            </defs>
            <use xlink:href="#164" style="fill:#ffffff;fill-opacity:1;fill-rule:evenodd;opacity:1;stroke:none;"/>
          </g>
        </defs>
        <use xlink:href="#163"/>
        <defs>
          <title>Shape 254</title>
          <g id="165">
            <defs>
              <path id="166" d="M405.6,120 C421.4,120,432.4,123.8,432.4,127.3 C432.4,132.767,432.4,138.233,432.4,143.7 C432.4,143.767,432.4,143.833,432.4,143.9 C432.4,143.9,432.4,160,432.4,160 C432.4,160.067,432.4,160.133,432.4,160.2 C432.4,165.667,432.4,171.133,432.4,176.6 C432.4,180,421.4,183.9,405.6,183.9 C389.8,183.9,378.8,180.1,378.8,176.6 C378.8,171.133,378.8,165.667,378.8,160.2 C378.8,160.2,378.8,160,378.8,160 C378.8,154.6,378.8,149.2,378.8,143.8 C378.8,143.733,378.8,143.667,378.8,143.6 C378.8,138.133,378.8,132.667,378.8,127.2 C378.9,123.8,389.9,120,405.6,120 M405.6,119 C390.3,119,377.8,122.7,377.8,127.3 C377.8,132.767,377.8,138.233,377.8,143.7 C377.8,143.767,377.8,143.833,377.8,143.9 C377.8,143.9,377.8,160,377.8,160 C377.8,160.067,377.8,160.133,377.8,160.2 C377.8,165.667,377.8,171.133,377.8,176.6 C377.8,181.2,390.2,184.9,405.6,184.9 C420.9,184.9,433.4,181.2,433.4,176.6 C433.4,171.133,433.4,165.667,433.4,160.2 C433.4,160.2,433.4,160,433.4,160 C433.4,154.6,433.4,149.2,433.4,143.8 C433.4,143.733,433.4,143.667,433.4,143.6 C433.4,138.133,433.4,132.667,433.4,127.2 C433.4,122.7,421,119,405.6,119 C405.6,119,405.6,119,405.6,119 z"/>
            </defs>
            <use xlink:href="#166" style="fill:#d1d6e0;fill-opacity:1;fill-rule:evenodd;opacity:1;stroke:none;"/>
          </g>
        </defs>
        <use xlink:href="#165"/>
      </g>
      <g id="167">
        <title>Group</title>
        <defs>
          <title>Shape 255</title>
          <g id="168">
            <defs>
              <path id="169" d="M433.4,127.3 C433.4,131.884,420.954,135.6,405.6,135.6 C390.246,135.6,377.8,131.884,377.8,127.3 C377.8,122.716,390.246,119,405.6,119 C420.954,119,433.4,122.716,433.4,127.3"/>
            </defs>
            <use xlink:href="#169" style="fill:none;opacity:1;stroke:#d1d6e0;stroke-linecap:butt;stroke-linejoin:miter;stroke-miterlimit:10;stroke-opacity:1;stroke-width:2;"/>
          </g>
        </defs>
        <use xlink:href="#168"/>
        <g id="170">
          <title>Group</title>
          <defs>
            <title>Shape 256</title>
            <g id="171">
              <defs>
                <path id="172" d="M399.5,143.7 C393.2,143.3,387.8,142.2,383.9,140.8"/>
              </defs>
              <use xlink:href="#172" style="fill:none;opacity:1;stroke:#3cd1f5;stroke-linecap:round;stroke-linejoin:miter;stroke-miterlimit:10;stroke-opacity:1;stroke-width:2;"/>
            </g>
          </defs>
          <use xlink:href="#171"/>
          <defs>
            <title>Shape 257</title>
            <g id="173">
              <defs>
                <path id="174" d="M419.7,142.7 C418.2,143,416.6,143.2,414.9,143.4"/>
              </defs>
              <use xlink:href="#174" style="fill:none;opacity:1;stroke:#d1d6e0;stroke-linecap:round;stroke-linejoin:miter;stroke-miterlimit:10;stroke-opacity:1;stroke-width:2;"/>
            </g>
          </defs>
          <use xlink:href="#173"/>
          <defs>
            <title>Shape 258</title>
            <g id="175">
              <defs>
                <path id="176" d="M427.9,140.5 C426.6,141,425.1,141.5,423.5,141.9"/>
              </defs>
              <use xlink:href="#176" style="fill:none;opacity:1;stroke:#3cd1f5;stroke-linecap:round;stroke-linejoin:miter;stroke-miterlimit:10;stroke-opacity:1;stroke-width:2;"/>
            </g>
          </defs>
          <use xlink:href="#175"/>
          <defs>
            <title>Shape 259</title>
            <g id="177">
              <defs>
                <path id="178" d="M377.9,127.3 C377.9,132.833,377.9,138.367,377.9,143.9 C377.9,148.5,390.3,152.2,405.7,152.2 C421.1,152.2,433.5,148.5,433.5,143.9 C433.5,138.367,433.5,132.833,433.5,127.3"/>
              </defs>
              <use xlink:href="#178" style="fill:none;opacity:1;stroke:#d1d6e0;stroke-linecap:butt;stroke-linejoin:miter;stroke-miterlimit:10;stroke-opacity:1;stroke-width:2;"/>
            </g>
          </defs>
          <use xlink:href="#177"/>
        </g>
        <g id="179">
          <title>Group</title>
          <defs>
            <title>Shape 260</title>
            <g id="180">
              <defs>
                <path id="181" d="M399.5,160 C393.2,159.6,387.8,158.5,383.9,157.1"/>
              </defs>
              <use xlink:href="#181" style="fill:none;opacity:1;stroke:#3cd1f5;stroke-linecap:round;stroke-linejoin:miter;stroke-miterlimit:10;stroke-opacity:1;stroke-width:2;"/>
            </g>
          </defs>
          <use xlink:href="#180"/>
          <defs>
            <title>Shape 261</title>
            <g id="182">
              <defs>
                <path id="183" d="M419.7,159.1 C418.2,159.4,416.6,159.6,414.9,159.8"/>
              </defs>
              <use xlink:href="#183" style="fill:none;opacity:1;stroke:#d1d6e0;stroke-linecap:round;stroke-linejoin:miter;stroke-miterlimit:10;stroke-opacity:1;stroke-width:2;"/>
            </g>
          </defs>
          <use xlink:href="#182"/>
          <defs>
            <title>Shape 262</title>
            <g id="184">
              <defs>
                <path id="185" d="M427.9,156.9 C426.6,157.4,425.1,157.9,423.5,158.3"/>
              </defs>
              <use xlink:href="#185" style="fill:none;opacity:1;stroke:#3cd1f5;stroke-linecap:round;stroke-linejoin:miter;stroke-miterlimit:10;stroke-opacity:1;stroke-width:2;"/>
            </g>
          </defs>
          <use xlink:href="#184"/>
          <defs>
            <title>Shape 263</title>
            <g id="186">
              <defs>
                <path id="187" d="M377.9,143.7 C377.9,149.233,377.9,154.767,377.9,160.3 C377.9,164.9,390.3,168.6,405.7,168.6 C421.1,168.6,433.5,164.9,433.5,160.3 C433.5,154.767,433.5,149.233,433.5,143.7"/>
              </defs>
              <use xlink:href="#187" style="fill:none;opacity:1;stroke:#d1d6e0;stroke-linecap:butt;stroke-linejoin:miter;stroke-miterlimit:10;stroke-opacity:1;stroke-width:2;"/>
            </g>
          </defs>
          <use xlink:href="#186"/>
        </g>
        <g id="188">
          <title>Group</title>
          <defs>
            <title>Shape 264</title>
            <g id="189">
              <defs>
                <path id="190" d="M399.5,176.4 C393.2,176,387.8,174.9,383.9,173.5"/>
              </defs>
              <use xlink:href="#190" style="fill:none;opacity:1;stroke:#3cd1f5;stroke-linecap:round;stroke-linejoin:miter;stroke-miterlimit:10;stroke-opacity:1;stroke-width:2;"/>
            </g>
          </defs>
          <use xlink:href="#189"/>
          <defs>
            <title>Shape 265</title>
            <g id="191">
              <defs>
                <path id="192" d="M419.7,175.5 C418.2,175.8,416.6,176,414.9,176.2"/>
              </defs>
              <use xlink:href="#192" style="fill:none;opacity:1;stroke:#d1d6e0;stroke-linecap:round;stroke-linejoin:miter;stroke-miterlimit:10;stroke-opacity:1;stroke-width:2;"/>
            </g>
          </defs>
          <use xlink:href="#191"/>
          <defs>
            <title>Shape 266</title>
            <g id="193">
              <defs>
                <path id="194" d="M427.9,173.3 C426.6,173.8,425.1,174.3,423.5,174.7"/>
              </defs>
              <use xlink:href="#194" style="fill:none;opacity:1;stroke:#3cd1f5;stroke-linecap:round;stroke-linejoin:miter;stroke-miterlimit:10;stroke-opacity:1;stroke-width:2;"/>
            </g>
          </defs>
          <use xlink:href="#193"/>
          <defs>
            <title>Shape 267</title>
            <g id="195">
              <defs>
                <path id="196" d="M377.9,160 C377.9,165.533,377.9,171.067,377.9,176.6 C377.9,181.2,390.3,184.9,405.7,184.9 C421.1,184.9,433.5,181.2,433.5,176.6 C433.5,176.6,433.5,160,433.5,160"/>
              </defs>
              <use xlink:href="#196" style="fill:none;opacity:1;stroke:#d1d6e0;stroke-linecap:butt;stroke-linejoin:miter;stroke-miterlimit:10;stroke-opacity:1;stroke-width:2;"/>
            </g>
          </defs>
          <use xlink:href="#195"/>
        </g>
      </g>
    </g>
    <g id="197">
      <title>Group</title>
      <defs>
        <title>Shape 268</title>
        <g id="198">
          <defs>
            <path id="199" d="M238.8,218.8 C239.3,218.8,239.7,218.8,240.2,218.9 C242.6,215.9,246.3,214,250.4,214 C256.6,214,261.7,218.3,263.1,224 C263.5,223.9,264,223.9,264.4,223.9 C268.9,223.9,272.5,227.5,272.5,232 C272.5,236.5,268.9,240.1,264.4,240.1 C255.867,240.1,247.333,240.1,238.8,240.1 C232.9,240.1,228.2,235.3,228.2,229.5 C228.1,223.6,232.9,218.8,238.8,218.8 z"/>
          </defs>
          <use xlink:href="#199" style="fill:#3cd1f5;fill-opacity:1;fill-rule:evenodd;opacity:1;stroke:none;"/>
        </g>
      </defs>
      <use xlink:href="#198"/>
    </g>
    <defs>
      <title>Shape 269</title>
      <g id="200">
        <defs>
          <path id="201" d="M220.8,68.8 C216.8,68.8,213.5,72.1,213.5,76.1 C213.5,80.1,220.8,90.2,220.8,90.2 C220.8,90.2,228.1,80.2,228.1,76.1 C228.1,72.1,224.9,68.8,220.8,68.8 z M220.8,79.9 C218.8,79.9,217.1,78.2,217.1,76.2 C217.1,74.2,218.8,72.5,220.8,72.5 C222.8,72.5,224.5,74.2,224.5,76.2 C224.5,78.2,222.9,79.9,220.8,79.9 z"/>
        </defs>
        <use xlink:href="#201" style="fill:#3cd1f5;fill-opacity:1;fill-rule:evenodd;opacity:1;stroke:none;"/>
      </g>
    </defs>
    <use xlink:href="#200"/>
    <defs>
      <title>Shape 270</title>
      <g id="202">
        <defs>
          <path id="203" d="M345.8,120.6 C341.8,120.6,338.5,123.9,338.5,127.9 C338.5,131.9,345.8,142,345.8,142 C345.8,142,353.1,132,353.1,127.9 C353.1,123.8,349.9,120.6,345.8,120.6 z M345.8,131.6 C343.8,131.6,342.1,129.9,342.1,127.9 C342.1,125.9,343.8,124.2,345.8,124.2 C347.8,124.2,349.5,125.9,349.5,127.9 C349.5,129.9,347.9,131.6,345.8,131.6 z"/>
        </defs>
        <use xlink:href="#203" style="fill:#3cd1f5;fill-opacity:1;fill-rule:evenodd;opacity:1;stroke:none;"/>
      </g>
    </defs>
    <use xlink:href="#202"/>
    <defs>
      <title>Shape 271</title>
      <g id="204">
        <defs>
          <path id="205" d="M235.5,154.9 C231.5,154.9,228.2,158.2,228.2,162.2 C228.2,166.2,235.5,176.3,235.5,176.3 C235.5,176.3,242.8,166.3,242.8,162.2 C242.8,158.1,239.5,154.9,235.5,154.9 z M235.5,165.9 C233.5,165.9,231.8,164.2,231.8,162.2 C231.8,160.2,233.5,158.5,235.5,158.5 C237.5,158.5,239.2,160.2,239.2,162.2 C239.2,164.2,237.5,165.9,235.5,165.9 z"/>
        </defs>
        <use xlink:href="#205" style="fill:#3cd1f5;fill-opacity:1;fill-rule:evenodd;opacity:1;stroke:none;"/>
      </g>
    </defs>
    <use xlink:href="#204"/>
  </g>
</svg>
