<?xml version="1.0" encoding="utf-8"?>
<svg x="135.563pt" y="57.6pt" width="266.074pt" height="186.8pt" viewBox="135.563 57.6 266.074 186.8" xmlns="http://www.w3.org/2000/svg" xmlns:xlink="http://www.w3.org/1999/xlink">
  <g id="1">
    <title>Group</title>
    <g id="2">
      <title>Group</title>
      <defs>
        <title>Shape 123</title>
        <g id="3">
          <defs>
            <path id="4" d="M378.8,215.7 C378.8,215.7,339.5,215.7,339.5,215.7"/>
          </defs>
          <use xlink:href="#4" style="fill:none;opacity:1;stroke:#65f7cf;stroke-dasharray:9, 6;stroke-dashoffset:0;stroke-linecap:butt;stroke-linejoin:round;stroke-miterlimit:10;stroke-opacity:1;stroke-width:2;"/>
        </g>
      </defs>
      <use xlink:href="#3"/>
      <g id="5">
        <title>Group</title>
        <g id="6">
          <title>Group</title>
          <defs>
            <title>Shape 124</title>
            <g id="7">
              <defs>
                <path id="8" d="M149.5,148.8 C149.5,148.8,149.5,153.3,149.5,153.3"/>
              </defs>
              <use xlink:href="#8" style="fill:none;opacity:1;stroke:#65f7cf;stroke-linecap:butt;stroke-linejoin:round;stroke-miterlimit:4;stroke-opacity:1;stroke-width:2;"/>
            </g>
          </defs>
          <use xlink:href="#7"/>
          <defs>
            <title>Shape 125</title>
            <g id="9">
              <defs>
                <path id="10" d="M149.5,159.7 C149.5,169.4,149.5,179.1,149.5,188.8 C149.5,192.8,152.7,196,156.7,196 C163.7,196,170.7,196,177.7,196"/>
              </defs>
              <use xlink:href="#10" style="fill:none;opacity:1;stroke:#65f7cf;stroke-dasharray:9.6985, 6.4656;stroke-dashoffset:0;stroke-linecap:butt;stroke-linejoin:round;stroke-miterlimit:4;stroke-opacity:1;stroke-width:2;"/>
            </g>
          </defs>
          <use xlink:href="#9"/>
          <defs>
            <title>Shape 126</title>
            <g id="11">
              <defs>
                <path id="12" d="M181,196 C181,196,185.5,196,185.5,196"/>
              </defs>
              <use xlink:href="#12" style="fill:none;opacity:1;stroke:#65f7cf;stroke-linecap:butt;stroke-linejoin:round;stroke-miterlimit:4;stroke-opacity:1;stroke-width:2;"/>
            </g>
          </defs>
          <use xlink:href="#11"/>
        </g>
      </g>
      <g id="13">
        <title>Group</title>
        <g id="14">
          <title>Group</title>
          <defs>
            <title>Shape 127</title>
            <g id="15">
              <defs>
                <path id="16" d="M205.6,71.2 C205.6,71.2,205.6,75.7,205.6,75.7"/>
              </defs>
              <use xlink:href="#16" style="fill:none;opacity:1;stroke:#65f7cf;stroke-linecap:butt;stroke-linejoin:round;stroke-miterlimit:4;stroke-opacity:1;stroke-width:2;"/>
            </g>
          </defs>
          <use xlink:href="#15"/>
          <defs>
            <title>Shape 128</title>
            <g id="17">
              <defs>
                <path id="18" d="M205.6,81.7 C205.6,87.1667,205.6,92.6333,205.6,98.1 C205.6,102.1,208.8,105.3,212.8,105.3 C212.8,105.3,249,105.3,249,105.3 C253,105.3,256.2,108.5,256.2,112.5 C256.2,116.6,256.2,120.7,256.2,124.8"/>
              </defs>
              <use xlink:href="#18" style="fill:none;opacity:1;stroke:#65f7cf;stroke-dasharray:9.0578, 6.0385;stroke-dashoffset:0;stroke-linecap:butt;stroke-linejoin:round;stroke-miterlimit:4;stroke-opacity:1;stroke-width:2;"/>
            </g>
          </defs>
          <use xlink:href="#17"/>
          <defs>
            <title>Shape 129</title>
            <g id="19">
              <defs>
                <path id="20" d="M256.2,127.9 C256.2,127.9,256.2,132.4,256.2,132.4"/>
              </defs>
              <use xlink:href="#20" style="fill:none;opacity:1;stroke:#65f7cf;stroke-linecap:butt;stroke-linejoin:round;stroke-miterlimit:4;stroke-opacity:1;stroke-width:2;"/>
            </g>
          </defs>
          <use xlink:href="#19"/>
        </g>
      </g>
      <g id="21">
        <title>Group</title>
        <defs>
          <title>Shape 130</title>
          <g id="22">
            <defs>
              <path id="23" d="M297.5,80.7 C296.6,80.7,295.7,80.8,294.8,80.9 C290.1,75,282.8,71.2,274.7,71.2 C263.7,71.2,254.4,78.1,250.7,87.7 C249.3,87.4,247.9,87.2,246.5,87.2 C238.2,87.2,231.3,92.9,229.4,100.5 C223.7,100.9,219.1,105.7,219.1,111.5 C219.1,117.6,224.1,122.6,230.2,122.6 C252.667,122.6,275.133,122.6,297.6,122.6 C309.2,122.6,318.6,113.2,318.6,101.6 C318.5,90.1,309.1,80.7,297.5,80.7 z"/>
            </defs>
            <use xlink:href="#23" style="fill:#e3f3f7;fill-opacity:1;fill-rule:evenodd;opacity:1;stroke:none;"/>
          </g>
        </defs>
        <use xlink:href="#22"/>
      </g>
      <g id="24">
        <title>Group</title>
        <defs>
          <title>Shape 131</title>
          <g id="25">
            <defs>
              <path id="26" d="M333.4,244.4 C333.4,244.4,179,244.4,179,244.4 C176.4,244.4,174.3,242.3,174.3,239.7 C174.3,206.967,174.3,174.233,174.3,141.5 C174.3,138.9,176.4,136.8,179,136.8 C230.467,136.8,281.933,136.8,333.4,136.8 C336,136.8,338.1,138.9,338.1,141.5 C338.1,174.233,338.1,206.967,338.1,239.7 C338.1,242.3,336,244.4,333.4,244.4 z"/>
            </defs>
            <use xlink:href="#26" style="fill:#000000;fill-opacity:1;fill-rule:evenodd;opacity:1;stroke:none;"/>
          </g>
        </defs>
        <use xlink:href="#25"/>
      </g>
      <defs>
        <title>Shape 132</title>
        <g id="27">
          <defs>
            <path id="28" d="M205.5,57.6 C205.3,57.6,205,57.7,204.8,57.8 C201.567,59.3333,198.333,60.8667,195.1,62.4 C194.6,62.6,194.2,63.1,194.1,63.6 C193.3,67.0667,192.5,70.5333,191.7,74 C191.6,74.5,191.7,75,192,75.4 C192,75.5,192.1,75.5,192.1,75.5 C194.333,78.2667,196.567,81.0333,198.8,83.8 C199.2,84.2,199.7,84.5,200.3,84.5 C203.9,84.5,207.5,84.5,211.1,84.5 C211.7,84.5,212.2,84.2,212.6,83.8 C214.833,81.0333,217.067,78.2667,219.3,75.5 C219.7,75.1,219.8,74.5,219.7,73.9 C218.9,70.4333,218.1,66.9667,217.3,63.5 C217.2,63,216.8,62.5,216.3,62.3 C213.067,60.7667,209.833,59.2333,206.6,57.7 C206.1,57.7,205.8,57.6,205.5,57.6 z"/>
          </defs>
          <use xlink:href="#28" style="fill:#326ce4;fill-opacity:1;fill-rule:evenodd;opacity:1;stroke:none;"/>
        </g>
      </defs>
      <use xlink:href="#27"/>
      <defs>
        <title>Shape 133</title>
        <g id="29">
          <defs>
            <path id="30" d="M149.4,135.2 C149.2,135.2,148.9,135.3,148.7,135.4 C145.467,136.933,142.233,138.467,139,140 C138.5,140.2,138.1,140.7,138,141.2 C137.2,144.667,136.4,148.133,135.6,151.6 C135.5,152.1,135.6,152.6,135.9,153 C135.9,153.1,136,153.1,136,153.1 C138.233,155.867,140.467,158.633,142.7,161.4 C143.1,161.8,143.6,162.1,144.2,162.1 C147.8,162.1,151.4,162.1,155,162.1 C155.6,162.1,156.1,161.8,156.5,161.4 C158.733,158.633,160.967,155.867,163.2,153.1 C163.6,152.7,163.7,152.1,163.6,151.5 C162.8,148.033,162,144.567,161.2,141.1 C161.1,140.6,160.7,140.1,160.2,139.9 C156.967,138.367,153.733,136.833,150.5,135.3 C150,135.3,149.7,135.2,149.4,135.2 z"/>
          </defs>
          <use xlink:href="#30" style="fill:#326ce4;fill-opacity:1;fill-rule:evenodd;opacity:1;stroke:none;"/>
        </g>
      </defs>
      <use xlink:href="#29"/>
      <defs>
        <title>Shape 134</title>
        <g id="31">
          <defs>
            <path id="32" d="M387.4,202.1 C387.2,202.1,386.9,202.2,386.7,202.3 C383.467,203.833,380.233,205.367,377,206.9 C376.5,207.1,376.1,207.6,376,208.1 C375.2,211.567,374.4,215.033,373.6,218.5 C373.5,219,373.6,219.5,373.9,219.9 C373.9,220,374,220,374,220 C376.233,222.767,378.467,225.533,380.7,228.3 C381.1,228.7,381.6,229,382.2,229 C385.8,229,389.4,229,393,229 C393.6,229,394.1,228.7,394.5,228.3 C396.733,225.533,398.967,222.767,401.2,220 C401.6,219.6,401.7,219,401.6,218.4 C400.8,214.933,400,211.467,399.2,208 C399.1,207.5,398.7,207,398.2,206.8 C394.967,205.267,391.733,203.733,388.5,202.2 C388,202.2,387.7,202.1,387.4,202.1 z"/>
          </defs>
          <use xlink:href="#32" style="fill:#326ce4;fill-opacity:1;fill-rule:evenodd;opacity:1;stroke:none;"/>
        </g>
      </defs>
      <use xlink:href="#31"/>
      <g id="33">
        <title>Group</title>
        <g id="34">
          <title>Group</title>
          <g id="35">
            <title>Group</title>
            <g id="36">
              <title>Group</title>
              <linearGradient x1="385.823" y1="167.94" x2="338.763" y2="138.467" gradientUnits="userSpaceOnUse" id="39">
                <stop offset="0.5274" style="stop-color:#3cd2f5;stop-opacity:1;"/>
                <stop offset="1" style="stop-color:#a9ecff;stop-opacity:1;"/>
              </linearGradient>
              <defs>
                <title>Shape 135</title>
                <g id="37">
                  <defs>
                    <path id="38" d="M387.5,110.4 C370.733,119.867,353.967,129.333,337.2,138.8 C337.133,157.867,337.067,176.933,337,196 C353.767,186.5,370.533,177,387.3,167.5 C387.3,167.5,387.5,110.4,387.5,110.4"/>
                  </defs>
                  <use xlink:href="#38" style="fill:url(#39);fill-opacity:1;fill-rule:evenodd;opacity:1;stroke:none;"/>
                </g>
              </defs>
              <use xlink:href="#37"/>
            </g>
          </g>
        </g>
        <g id="40">
          <title>Group</title>
          <g id="41">
            <title>Group</title>
            <g id="42">
              <title>Group</title>
              <linearGradient x1="286.993" y1="152.959" x2="337.164" y2="153.105" gradientUnits="userSpaceOnUse" id="45">
                <stop style="stop-color:#54ff84;stop-opacity:1;"/>
                <stop offset="1" style="stop-color:#aef356;stop-opacity:1;"/>
              </linearGradient>
              <defs>
                <title>Shape 136</title>
                <g id="43">
                  <defs>
                    <path id="44" d="M337.2,138.8 C320.5,129.233,303.8,119.667,287.1,110.1 C287.033,129.167,286.967,148.233,286.9,167.3 C303.6,176.867,320.3,186.433,337,196 C337,196,337.2,138.8,337.2,138.8"/>
                  </defs>
                  <use xlink:href="#44" style="fill:url(#45);fill-opacity:1;fill-rule:evenodd;opacity:1;stroke:none;"/>
                </g>
              </defs>
              <use xlink:href="#43"/>
            </g>
          </g>
        </g>
        <g id="46">
          <title>Group</title>
          <g id="47">
            <title>Group</title>
            <g id="48">
              <title>Group</title>
              <linearGradient x1="338.29" y1="81.6826" x2="336.374" y2="138.806" gradientUnits="userSpaceOnUse" id="51">
                <stop offset="0.0024966" style="stop-color:#3d50ff;stop-opacity:1;"/>
                <stop offset="0.4062" style="stop-color:#3d96ff;stop-opacity:1;"/>
                <stop offset="1" style="stop-color:#e0d0ff;stop-opacity:1;"/>
              </linearGradient>
              <defs>
                <title>Shape 137</title>
                <g id="49">
                  <defs>
                    <path id="50" d="M337.2,138.8 C320.5,129.233,303.8,119.667,287.1,110.1 C303.867,100.633,320.633,91.1667,337.4,81.7 C354.1,91.2667,370.8,100.833,387.5,110.4 C387.5,110.4,337.2,138.8,337.2,138.8"/>
                  </defs>
                  <use xlink:href="#50" style="fill:url(#51);fill-opacity:1;fill-rule:evenodd;opacity:1;stroke:none;"/>
                </g>
              </defs>
              <use xlink:href="#49"/>
            </g>
          </g>
        </g>
        <g id="52">
          <title>Group</title>
          <g id="53">
            <title>Group</title>
            <g id="54">
              <title>Group</title>
              <defs>
                <title>Shape 138</title>
                <g id="55">
                  <defs>
                    <path id="56" d="M337.3,110.3 C345.633,115.1,353.967,119.9,362.3,124.7 C362.267,134.233,362.233,143.767,362.2,153.3 C353.833,158.033,345.467,162.767,337.1,167.5 C328.767,162.7,320.433,157.9,312.1,153.1 C312.133,143.567,312.167,134.033,312.2,124.5 C312.2,124.5,337.3,110.3,337.3,110.3 z"/>
                  </defs>
                  <use xlink:href="#56" style="fill:#ffffff;fill-opacity:0.8538;fill-rule:evenodd;opacity:1;stroke:none;"/>
                </g>
              </defs>
              <use xlink:href="#55"/>
            </g>
          </g>
        </g>
        <g id="57">
          <title>Group</title>
          <g id="58">
            <title>Group</title>
            <g id="59">
              <title>Group</title>
              <defs>
                <title>Shape 139</title>
                <g id="60">
                  <defs>
                    <path id="61" d="M312.1,153.1 C312.1,151.933,312.1,150.767,312.1,149.6 C312.1,149.6,287,163.6,287,163.6 C287,164.833,287,166.067,287,167.3 C288.033,167.9,289.067,168.5,290.1,169.1 C298.567,164.4,307.033,159.7,315.5,155 C315.5,155,312.1,153.1,312.1,153.1 z"/>
                  </defs>
                  <use xlink:href="#61" style="fill:#ffffff;fill-opacity:0.8955;fill-rule:evenodd;opacity:1;stroke:none;"/>
                </g>
              </defs>
              <use xlink:href="#60"/>
            </g>
          </g>
        </g>
        <g id="62">
          <title>Group</title>
          <g id="63">
            <title>Group</title>
            <g id="64">
              <title>Group</title>
              <defs>
                <title>Shape 140</title>
                <g id="65">
                  <defs>
                    <path id="66" d="M337.3,110.3 C338.367,110.9,339.433,111.5,340.5,112.1 C340.533,102.567,340.567,93.0333,340.6,83.5 C339.533,82.9,338.467,82.3,337.4,81.7 C336.333,82.3,335.267,82.9,334.2,83.5 C334.167,93.0333,334.133,102.567,334.1,112.1 C334.1,112.1,337.3,110.3,337.3,110.3 z"/>
                  </defs>
                  <use xlink:href="#66" style="fill:#ffffff;fill-opacity:0.8955;fill-rule:evenodd;opacity:1;stroke:none;"/>
                </g>
              </defs>
              <use xlink:href="#65"/>
            </g>
          </g>
        </g>
        <g id="67">
          <title>Group</title>
          <g id="68">
            <title>Group</title>
            <g id="69">
              <title>Group</title>
              <defs>
                <title>Shape 141</title>
                <g id="70">
                  <defs>
                    <path id="71" d="M362.3,153.2 C362.3,152.033,362.3,150.867,362.3,149.7 C370.633,154.5,378.967,159.3,387.3,164.1 C387.3,165.267,387.3,166.433,387.3,167.6 C386.233,168.2,385.167,168.8,384.1,169.4 C384.1,169.4,359.1,155,359.1,155 C359.1,155,362.3,153.2,362.3,153.2 z"/>
                  </defs>
                  <use xlink:href="#71" style="fill:#ffffff;fill-opacity:0.8955;fill-rule:evenodd;opacity:1;stroke:none;"/>
                </g>
              </defs>
              <use xlink:href="#70"/>
            </g>
          </g>
        </g>
      </g>
      <g id="72">
        <title>Group</title>
        <g id="73">
          <title>Group</title>
          <defs>
            <title>Shape 142</title>
            <g id="74">
              <defs>
                <path id="75" d="M339,239.9 C339,239.9,184.6,239.9,184.6,239.9 C182,239.9,179.9,237.8,179.9,235.2 C179.9,235.2,179.9,137,179.9,137 C179.9,134.4,182,132.3,184.6,132.3 C184.6,132.3,339,132.3,339,132.3 C341.6,132.3,343.7,134.4,343.7,137 C343.7,169.733,343.7,202.467,343.7,235.2 C343.7,237.7,341.6,239.9,339,239.9 z"/>
              </defs>
              <use xlink:href="#75" style="fill:#3d95ff;fill-opacity:1;fill-rule:evenodd;opacity:1;stroke:none;"/>
            </g>
          </defs>
          <use xlink:href="#74"/>
        </g>
        <g id="76">
          <title>Group</title>
          <defs>
            <title>Shape 143</title>
            <g id="77">
              <defs>
                <path id="78" d="M336.2,233.8 C336.2,233.8,187.5,233.8,187.5,233.8 C186.9,233.8,186.4,233.3,186.4,232.7 C186.4,201.567,186.4,170.433,186.4,139.3 C186.4,138.7,186.9,138.2,187.5,138.2 C237.067,138.2,286.633,138.2,336.2,138.2 C336.8,138.2,337.3,138.7,337.3,139.3 C337.3,170.433,337.3,201.567,337.3,232.7 C337.2,233.3,336.8,233.8,336.2,233.8 z"/>
              </defs>
              <use xlink:href="#78" style="fill:#ebf1ff;fill-opacity:1;fill-rule:evenodd;opacity:1;stroke:none;"/>
            </g>
          </defs>
          <use xlink:href="#77"/>
        </g>
        <g id="79">
          <title>Group</title>
          <defs>
            <title>Shape 144</title>
            <g id="80">
              <defs>
                <path id="81" d="M263.3,191.3 C263.3,191.3,263.3,224.7,263.3,224.7"/>
              </defs>
              <use xlink:href="#81" style="fill:none;opacity:1;stroke:#d2d7e1;stroke-linecap:butt;stroke-linejoin:miter;stroke-miterlimit:10;stroke-opacity:1;stroke-width:2;"/>
            </g>
          </defs>
          <use xlink:href="#80"/>
          <defs>
            <title>Shape 145</title>
            <g id="82">
              <defs>
                <path id="83" d="M263.3,200.3 C263.3,200.3,263.3,207.8,263.3,207.8"/>
              </defs>
              <use xlink:href="#83" style="fill:#e8f8fc;fill-opacity:1;fill-rule:evenodd;opacity:1;stroke:none;"/>
              <use xlink:href="#83" style="fill:none;opacity:1;stroke:#3cd2f6;stroke-linecap:round;stroke-linejoin:miter;stroke-miterlimit:10;stroke-opacity:1;stroke-width:4;"/>
            </g>
          </defs>
          <use xlink:href="#82"/>
        </g>
        <g id="84">
          <title>Group</title>
          <defs>
            <title>Shape 146</title>
            <g id="85">
              <defs>
                <path id="86" d="M282.2,191.3 C282.2,191.3,282.2,224.7,282.2,224.7"/>
              </defs>
              <use xlink:href="#86" style="fill:none;opacity:1;stroke:#d2d7e1;stroke-linecap:butt;stroke-linejoin:miter;stroke-miterlimit:10;stroke-opacity:1;stroke-width:2;"/>
            </g>
          </defs>
          <use xlink:href="#85"/>
          <defs>
            <title>Shape 147</title>
            <g id="87">
              <defs>
                <path id="88" d="M282.2,195.2 C282.2,195.2,282.2,202.7,282.2,202.7"/>
              </defs>
              <use xlink:href="#88" style="fill:#e8f8fc;fill-opacity:1;fill-rule:evenodd;opacity:1;stroke:none;"/>
              <use xlink:href="#88" style="fill:none;opacity:1;stroke:#3cd2f6;stroke-linecap:round;stroke-linejoin:miter;stroke-miterlimit:10;stroke-opacity:1;stroke-width:4;"/>
            </g>
          </defs>
          <use xlink:href="#87"/>
        </g>
        <g id="89">
          <title>Group</title>
          <defs>
            <title>Shape 148</title>
            <g id="90">
              <defs>
                <path id="91" d="M301.1,191.3 C301.1,191.3,301.1,224.7,301.1,224.7"/>
              </defs>
              <use xlink:href="#91" style="fill:none;opacity:1;stroke:#d2d7e1;stroke-linecap:butt;stroke-linejoin:miter;stroke-miterlimit:10;stroke-opacity:1;stroke-width:2;"/>
            </g>
          </defs>
          <use xlink:href="#90"/>
          <defs>
            <title>Shape 149</title>
            <g id="92">
              <defs>
                <path id="93" d="M301.1,191.3 C301.1,191.3,301.1,198.8,301.1,198.8"/>
              </defs>
              <use xlink:href="#93" style="fill:#e8f8fc;fill-opacity:1;fill-rule:evenodd;opacity:1;stroke:none;"/>
              <use xlink:href="#93" style="fill:none;opacity:1;stroke:#3cd2f6;stroke-linecap:round;stroke-linejoin:miter;stroke-miterlimit:10;stroke-opacity:1;stroke-width:4;"/>
            </g>
          </defs>
          <use xlink:href="#92"/>
        </g>
        <g id="94">
          <title>Group</title>
          <defs>
            <title>Shape 150</title>
            <g id="95">
              <defs>
                <path id="96" d="M320,191.3 C320,191.3,320,224.7,320,224.7"/>
              </defs>
              <use xlink:href="#96" style="fill:none;opacity:1;stroke:#d2d7e1;stroke-linecap:butt;stroke-linejoin:miter;stroke-miterlimit:10;stroke-opacity:1;stroke-width:2;"/>
            </g>
          </defs>
          <use xlink:href="#95"/>
          <defs>
            <title>Shape 151</title>
            <g id="97">
              <defs>
                <path id="98" d="M320,207 C320,207,320,214.6,320,214.6"/>
              </defs>
              <use xlink:href="#98" style="fill:#e8f8fc;fill-opacity:1;fill-rule:evenodd;opacity:1;stroke:none;"/>
              <use xlink:href="#98" style="fill:none;opacity:1;stroke:#3cd2f6;stroke-linecap:round;stroke-linejoin:miter;stroke-miterlimit:10;stroke-opacity:1;stroke-width:4;"/>
            </g>
          </defs>
          <use xlink:href="#97"/>
        </g>
        <g id="99">
          <title>Group</title>
          <defs>
            <title>Shape 152</title>
            <g id="100">
              <defs>
                <path id="101" d="M323,154.6 C323,158.3,320,161.3,316.3,161.3 C312.6,161.3,309.6,158.3,309.6,154.6 C309.6,150.9,312.6,147.9,316.3,147.9 C320,147.9,323,150.9,323,154.6"/>
              </defs>
              <use xlink:href="#101" style="fill:#ebf1ff;fill-opacity:1;fill-rule:evenodd;opacity:1;stroke:none;"/>
              <use xlink:href="#101" style="fill:none;opacity:1;stroke:#d2d7e1;stroke-linecap:butt;stroke-linejoin:miter;stroke-miterlimit:10;stroke-opacity:1;stroke-width:2;"/>
            </g>
          </defs>
          <use xlink:href="#100"/>
          <defs>
            <title>Shape 153</title>
            <g id="102">
              <defs>
                <path id="103" d="M318.4,154.6 C318.4,155.76,317.46,156.7,316.3,156.7 C315.14,156.7,314.2,155.76,314.2,154.6 C314.2,153.44,315.14,152.5,316.3,152.5 C317.46,152.5,318.4,153.44,318.4,154.6"/>
              </defs>
              <use xlink:href="#103" style="fill:#326ce4;fill-opacity:1;fill-rule:evenodd;opacity:1;stroke:none;"/>
            </g>
          </defs>
          <use xlink:href="#102"/>
          <defs>
            <title>Shape 154</title>
            <g id="104">
              <defs>
                <path id="105" d="M316.3,154.6 C316.3,154.6,317.6,151.5,317.6,151.5"/>
              </defs>
              <use xlink:href="#105" style="fill:none;opacity:1;stroke:#326ce4;stroke-linecap:round;stroke-linejoin:miter;stroke-miterlimit:10;stroke-opacity:1;stroke-width:2;"/>
            </g>
          </defs>
          <use xlink:href="#104"/>
        </g>
        <g id="106">
          <title>Group</title>
          <defs>
            <title>Shape 155</title>
            <g id="107">
              <defs>
                <path id="108" d="M299.1,154.6 C299.1,158.3,296.1,161.3,292.4,161.3 C288.7,161.3,285.7,158.3,285.7,154.6 C285.7,150.9,288.7,147.9,292.4,147.9 C296.1,147.9,299.1,150.9,299.1,154.6"/>
              </defs>
              <use xlink:href="#108" style="fill:#ebf1ff;fill-opacity:1;fill-rule:evenodd;opacity:1;stroke:none;"/>
              <use xlink:href="#108" style="fill:none;opacity:1;stroke:#d2d7e1;stroke-linecap:butt;stroke-linejoin:miter;stroke-miterlimit:10;stroke-opacity:1;stroke-width:2;"/>
            </g>
          </defs>
          <use xlink:href="#107"/>
          <defs>
            <title>Shape 156</title>
            <g id="109">
              <defs>
                <path id="110" d="M294.5,154.6 C294.5,155.76,293.56,156.7,292.4,156.7 C291.24,156.7,290.3,155.76,290.3,154.6 C290.3,153.44,291.24,152.5,292.4,152.5 C293.56,152.5,294.5,153.44,294.5,154.6"/>
              </defs>
              <use xlink:href="#110" style="fill:#326ce4;fill-opacity:1;fill-rule:evenodd;opacity:1;stroke:none;"/>
            </g>
          </defs>
          <use xlink:href="#109"/>
          <defs>
            <title>Shape 157</title>
            <g id="111">
              <defs>
                <path id="112" d="M292.4,154.6 C292.4,154.6,290.2,157.1,290.2,157.1"/>
              </defs>
              <use xlink:href="#112" style="fill:none;opacity:1;stroke:#326ce4;stroke-linecap:round;stroke-linejoin:miter;stroke-miterlimit:10;stroke-opacity:1;stroke-width:2;"/>
            </g>
          </defs>
          <use xlink:href="#111"/>
        </g>
        <g id="113">
          <title>Group</title>
          <defs>
            <title>Shape 158</title>
            <g id="114">
              <defs>
                <path id="115" d="M275.2,154.6 C275.2,158.3,272.2,161.3,268.5,161.3 C264.8,161.3,261.8,158.3,261.8,154.6 C261.8,150.9,264.8,147.9,268.5,147.9 C272.2,147.9,275.2,150.9,275.2,154.6"/>
              </defs>
              <use xlink:href="#115" style="fill:#ebf1ff;fill-opacity:1;fill-rule:evenodd;opacity:1;stroke:none;"/>
              <use xlink:href="#115" style="fill:none;opacity:1;stroke:#d2d7e1;stroke-linecap:butt;stroke-linejoin:miter;stroke-miterlimit:10;stroke-opacity:1;stroke-width:2;"/>
            </g>
          </defs>
          <use xlink:href="#114"/>
          <defs>
            <title>Shape 159</title>
            <g id="116">
              <defs>
                <path id="117" d="M270.6,154.6 C270.6,155.76,269.66,156.7,268.5,156.7 C267.34,156.7,266.4,155.76,266.4,154.6 C266.4,153.44,267.34,152.5,268.5,152.5 C269.66,152.5,270.6,153.44,270.6,154.6"/>
              </defs>
              <use xlink:href="#117" style="fill:#326ce4;fill-opacity:1;fill-rule:evenodd;opacity:1;stroke:none;"/>
            </g>
          </defs>
          <use xlink:href="#116"/>
          <defs>
            <title>Shape 160</title>
            <g id="118">
              <defs>
                <path id="119" d="M268.5,154.6 C268.5,154.6,268.5,157.9,268.5,157.9"/>
              </defs>
              <use xlink:href="#119" style="fill:none;opacity:1;stroke:#326ce4;stroke-linecap:round;stroke-linejoin:miter;stroke-miterlimit:10;stroke-opacity:1;stroke-width:2;"/>
            </g>
          </defs>
          <use xlink:href="#118"/>
        </g>
        <g id="120">
          <title>Group</title>
          <defs>
            <title>Shape 161</title>
            <g id="121">
              <defs>
                <path id="122" d="M323,176.3 C323,180,320,183,316.3,183 C312.6,183,309.6,180,309.6,176.3 C309.6,172.6,312.6,169.6,316.3,169.6 C320,169.6,323,172.6,323,176.3"/>
              </defs>
              <use xlink:href="#122" style="fill:#ebf1ff;fill-opacity:1;fill-rule:evenodd;opacity:1;stroke:none;"/>
              <use xlink:href="#122" style="fill:none;opacity:1;stroke:#d2d7e1;stroke-linecap:butt;stroke-linejoin:miter;stroke-miterlimit:10;stroke-opacity:1;stroke-width:2;"/>
            </g>
          </defs>
          <use xlink:href="#121"/>
          <defs>
            <title>Shape 162</title>
            <g id="123">
              <defs>
                <path id="124" d="M318.4,176.3 C318.4,177.46,317.46,178.4,316.3,178.4 C315.14,178.4,314.2,177.46,314.2,176.3 C314.2,175.14,315.14,174.2,316.3,174.2 C317.46,174.2,318.4,175.14,318.4,176.3"/>
              </defs>
              <use xlink:href="#124" style="fill:#326ce4;fill-opacity:1;fill-rule:evenodd;opacity:1;stroke:none;"/>
            </g>
          </defs>
          <use xlink:href="#123"/>
          <defs>
            <title>Shape 163</title>
            <g id="125">
              <defs>
                <path id="126" d="M316.3,176.3 C316.3,176.3,319.6,175.6,319.6,175.6"/>
              </defs>
              <use xlink:href="#126" style="fill:none;opacity:1;stroke:#326ce4;stroke-linecap:round;stroke-linejoin:miter;stroke-miterlimit:10;stroke-opacity:1;stroke-width:2;"/>
            </g>
          </defs>
          <use xlink:href="#125"/>
        </g>
        <g id="127">
          <title>Group</title>
          <defs>
            <title>Shape 164</title>
            <g id="128">
              <defs>
                <path id="129" d="M299.1,176.3 C299.1,180,296.1,183,292.4,183 C288.7,183,285.7,180,285.7,176.3 C285.7,172.6,288.7,169.6,292.4,169.6 C296.1,169.6,299.1,172.6,299.1,176.3"/>
              </defs>
              <use xlink:href="#129" style="fill:#ebf1ff;fill-opacity:1;fill-rule:evenodd;opacity:1;stroke:none;"/>
              <use xlink:href="#129" style="fill:none;opacity:1;stroke:#d2d7e1;stroke-linecap:butt;stroke-linejoin:miter;stroke-miterlimit:10;stroke-opacity:1;stroke-width:2;"/>
            </g>
          </defs>
          <use xlink:href="#128"/>
          <defs>
            <title>Shape 165</title>
            <g id="130">
              <defs>
                <path id="131" d="M294.5,176.3 C294.5,177.46,293.56,178.4,292.4,178.4 C291.24,178.4,290.3,177.46,290.3,176.3 C290.3,175.14,291.24,174.2,292.4,174.2 C293.56,174.2,294.5,175.14,294.5,176.3"/>
              </defs>
              <use xlink:href="#131" style="fill:#326ce4;fill-opacity:1;fill-rule:evenodd;opacity:1;stroke:none;"/>
            </g>
          </defs>
          <use xlink:href="#130"/>
          <defs>
            <title>Shape 166</title>
            <g id="132">
              <defs>
                <path id="133" d="M292.4,176.3 C292.4,176.3,289.5,174.8,289.5,174.8"/>
              </defs>
              <use xlink:href="#133" style="fill:none;opacity:1;stroke:#326ce4;stroke-linecap:round;stroke-linejoin:miter;stroke-miterlimit:10;stroke-opacity:1;stroke-width:2;"/>
            </g>
          </defs>
          <use xlink:href="#132"/>
        </g>
        <g id="134">
          <title>Group</title>
          <defs>
            <title>Shape 167</title>
            <g id="135">
              <defs>
                <path id="136" d="M275.2,176.3 C275.2,180,272.2,183,268.5,183 C264.8,183,261.8,180,261.8,176.3 C261.8,172.6,264.8,169.6,268.5,169.6 C272.2,169.6,275.2,172.6,275.2,176.3"/>
              </defs>
              <use xlink:href="#136" style="fill:#ebf1ff;fill-opacity:1;fill-rule:evenodd;opacity:1;stroke:none;"/>
              <use xlink:href="#136" style="fill:none;opacity:1;stroke:#d2d7e1;stroke-linecap:butt;stroke-linejoin:miter;stroke-miterlimit:10;stroke-opacity:1;stroke-width:2;"/>
            </g>
          </defs>
          <use xlink:href="#135"/>
          <defs>
            <title>Shape 168</title>
            <g id="137">
              <defs>
                <path id="138" d="M270.6,176.3 C270.6,177.46,269.66,178.4,268.5,178.4 C267.34,178.4,266.4,177.46,266.4,176.3 C266.4,175.14,267.34,174.2,268.5,174.2 C269.66,174.2,270.6,175.14,270.6,176.3"/>
              </defs>
              <use xlink:href="#138" style="fill:#326ce4;fill-opacity:1;fill-rule:evenodd;opacity:1;stroke:none;"/>
            </g>
          </defs>
          <use xlink:href="#137"/>
          <defs>
            <title>Shape 169</title>
            <g id="139">
              <defs>
                <path id="140" d="M268.5,176.3 C268.5,176.3,269.1,179.6,269.1,179.6"/>
              </defs>
              <use xlink:href="#140" style="fill:none;opacity:1;stroke:#326ce4;stroke-linecap:round;stroke-linejoin:miter;stroke-miterlimit:10;stroke-opacity:1;stroke-width:2;"/>
            </g>
          </defs>
          <use xlink:href="#139"/>
        </g>
        <g id="141">
          <title>Group</title>
          <defs>
            <title>Shape 170</title>
            <g id="142">
              <defs>
                <path id="143" d="M244.2,146.9 C246.2,146.9,248.2,146.9,250.2,146.9 C250.2,149.933,250.2,152.967,250.2,156 C248.2,156,246.2,156,244.2,156 C244.2,152.967,244.2,149.933,244.2,146.9 z"/>
              </defs>
              <use xlink:href="#143" style="fill:#d2d7e1;fill-opacity:1;fill-rule:evenodd;opacity:1;stroke:none;"/>
            </g>
          </defs>
          <use xlink:href="#142"/>
          <defs>
            <title>Shape 171</title>
            <g id="144">
              <defs>
                <path id="145" d="M244.2,160.7 C246.2,160.7,248.2,160.7,250.2,160.7 C250.2,163.733,250.2,166.767,250.2,169.8 C248.2,169.8,246.2,169.8,244.2,169.8 C244.2,166.767,244.2,163.733,244.2,160.7 z"/>
              </defs>
              <use xlink:href="#145" style="fill:#d2d7e1;fill-opacity:1;fill-rule:evenodd;opacity:1;stroke:none;"/>
            </g>
          </defs>
          <use xlink:href="#144"/>
          <defs>
            <title>Shape 172</title>
            <g id="146">
              <defs>
                <path id="147" d="M244.2,174.4 C246.2,174.4,248.2,174.4,250.2,174.4 C250.2,177.433,250.2,180.467,250.2,183.5 C248.2,183.5,246.2,183.5,244.2,183.5 C244.2,180.467,244.2,177.433,244.2,174.4 z"/>
              </defs>
              <use xlink:href="#147" style="fill:#d2d7e1;fill-opacity:1;fill-rule:evenodd;opacity:1;stroke:none;"/>
            </g>
          </defs>
          <use xlink:href="#146"/>
          <defs>
            <title>Shape 173</title>
            <g id="148">
              <defs>
                <path id="149" d="M244.2,188.2 C246.2,188.2,248.2,188.2,250.2,188.2 C250.2,191.233,250.2,194.267,250.2,197.3 C248.2,197.3,246.2,197.3,244.2,197.3 C244.2,194.267,244.2,191.233,244.2,188.2 z"/>
              </defs>
              <use xlink:href="#149" style="fill:#d2d7e1;fill-opacity:1;fill-rule:evenodd;opacity:1;stroke:none;"/>
            </g>
          </defs>
          <use xlink:href="#148"/>
          <defs>
            <title>Shape 174</title>
            <g id="150">
              <defs>
                <path id="151" d="M244.2,201.9 C246.2,201.9,248.2,201.9,250.2,201.9 C250.2,204.933,250.2,207.967,250.2,211 C248.2,211,246.2,211,244.2,211 C244.2,207.967,244.2,204.933,244.2,201.9 z"/>
              </defs>
              <use xlink:href="#151" style="fill:#d2d7e1;fill-opacity:1;fill-rule:evenodd;opacity:1;stroke:none;"/>
            </g>
          </defs>
          <use xlink:href="#150"/>
          <defs>
            <title>Shape 175</title>
            <g id="152">
              <defs>
                <path id="153" d="M244.2,215.7 C246.2,215.7,248.2,215.7,250.2,215.7 C250.2,218.733,250.2,221.767,250.2,224.8 C248.2,224.8,246.2,224.8,244.2,224.8 C244.2,221.767,244.2,218.733,244.2,215.7 z"/>
              </defs>
              <use xlink:href="#153" style="fill:#d2d7e1;fill-opacity:1;fill-rule:evenodd;opacity:1;stroke:none;"/>
            </g>
          </defs>
          <use xlink:href="#152"/>
          <defs>
            <title>Shape 176</title>
            <g id="154">
              <defs>
                <path id="155" d="M234.9,146.9 C236.9,146.9,238.9,146.9,240.9,146.9 C240.9,149.933,240.9,152.967,240.9,156 C238.9,156,236.9,156,234.9,156 C234.9,152.967,234.9,149.933,234.9,146.9 z"/>
              </defs>
              <use xlink:href="#155" style="fill:#d2d7e1;fill-opacity:1;fill-rule:evenodd;opacity:1;stroke:none;"/>
            </g>
          </defs>
          <use xlink:href="#154"/>
          <defs>
            <title>Shape 177</title>
            <g id="156">
              <defs>
                <path id="157" d="M234.9,160.7 C236.9,160.7,238.9,160.7,240.9,160.7 C240.9,163.733,240.9,166.767,240.9,169.8 C238.9,169.8,236.9,169.8,234.9,169.8 C234.9,166.767,234.9,163.733,234.9,160.7 z"/>
              </defs>
              <use xlink:href="#157" style="fill:#d2d7e1;fill-opacity:1;fill-rule:evenodd;opacity:1;stroke:none;"/>
            </g>
          </defs>
          <use xlink:href="#156"/>
          <defs>
            <title>Shape 178</title>
            <g id="158">
              <defs>
                <path id="159" d="M234.9,174.4 C236.9,174.4,238.9,174.4,240.9,174.4 C240.9,177.433,240.9,180.467,240.9,183.5 C238.9,183.5,236.9,183.5,234.9,183.5 C234.9,180.467,234.9,177.433,234.9,174.4 z"/>
              </defs>
              <use xlink:href="#159" style="fill:#d2d7e1;fill-opacity:1;fill-rule:evenodd;opacity:1;stroke:none;"/>
            </g>
          </defs>
          <use xlink:href="#158"/>
          <defs>
            <title>Shape 179</title>
            <g id="160">
              <defs>
                <path id="161" d="M234.9,188.2 C236.9,188.2,238.9,188.2,240.9,188.2 C240.9,191.233,240.9,194.267,240.9,197.3 C238.9,197.3,236.9,197.3,234.9,197.3 C234.9,194.267,234.9,191.233,234.9,188.2 z"/>
              </defs>
              <use xlink:href="#161" style="fill:#d2d7e1;fill-opacity:1;fill-rule:evenodd;opacity:1;stroke:none;"/>
            </g>
          </defs>
          <use xlink:href="#160"/>
          <defs>
            <title>Shape 180</title>
            <g id="162">
              <defs>
                <path id="163" d="M234.9,201.9 C236.9,201.9,238.9,201.9,240.9,201.9 C240.9,204.933,240.9,207.967,240.9,211 C238.9,211,236.9,211,234.9,211 C234.9,207.967,234.9,204.933,234.9,201.9 z"/>
              </defs>
              <use xlink:href="#163" style="fill:#d2d7e1;fill-opacity:1;fill-rule:evenodd;opacity:1;stroke:none;"/>
            </g>
          </defs>
          <use xlink:href="#162"/>
          <defs>
            <title>Shape 181</title>
            <g id="164">
              <defs>
                <path id="165" d="M234.9,215.7 C236.9,215.7,238.9,215.7,240.9,215.7 C240.9,218.733,240.9,221.767,240.9,224.8 C238.9,224.8,236.9,224.8,234.9,224.8 C234.9,221.767,234.9,218.733,234.9,215.7 z"/>
              </defs>
              <use xlink:href="#165" style="fill:#d2d7e1;fill-opacity:1;fill-rule:evenodd;opacity:1;stroke:none;"/>
            </g>
          </defs>
          <use xlink:href="#164"/>
        </g>
        <g id="166">
          <title>Group</title>
          <defs>
            <title>Shape 182</title>
            <g id="167">
              <defs>
                <path id="168" d="M198.5,196.2 C200.5,196.2,202.5,196.2,204.5,196.2 C204.5,205.7,204.5,215.2,204.5,224.7 C202.5,224.7,200.5,224.7,198.5,224.7 C198.5,215.2,198.5,205.7,198.5,196.2 z"/>
              </defs>
              <use xlink:href="#168" style="fill:#3d96ff;fill-opacity:1;fill-rule:evenodd;opacity:1;stroke:none;"/>
            </g>
          </defs>
          <use xlink:href="#167"/>
        </g>
        <g id="169">
          <title>Group</title>
          <defs>
            <title>Shape 183</title>
            <g id="170">
              <defs>
                <path id="171" d="M208.8,186 C210.8,186,212.8,186,214.8,186 C214.8,198.9,214.8,211.8,214.8,224.7 C212.8,224.7,210.8,224.7,208.8,224.7 C208.8,211.8,208.8,198.9,208.8,186 z"/>
              </defs>
              <use xlink:href="#171" style="fill:#d2d7e1;fill-opacity:1;fill-rule:evenodd;opacity:1;stroke:none;"/>
            </g>
          </defs>
          <use xlink:href="#170"/>
        </g>
        <g id="172">
          <title>Group</title>
          <defs>
            <title>Shape 184</title>
            <g id="173">
              <defs>
                <path id="174" d="M219.1,174.4 C221.1,174.4,223.1,174.4,225.1,174.4 C225.1,191.167,225.1,207.933,225.1,224.7 C223.1,224.7,221.1,224.7,219.1,224.7 C219.1,207.933,219.1,191.167,219.1,174.4 z"/>
              </defs>
              <use xlink:href="#174" style="fill:#3cd2f6;fill-opacity:1;fill-rule:evenodd;opacity:1;stroke:none;"/>
            </g>
          </defs>
          <use xlink:href="#173"/>
        </g>
        <g id="175">
          <title>Group</title>
          <defs>
            <title>Shape 185</title>
            <g id="176">
              <defs>
                <path id="177" d="M219,156.6 C221.4,158.5,223,161.5,223,164.9"/>
              </defs>
              <use xlink:href="#177" style="fill:none;opacity:1;stroke:#3cd2f6;stroke-linecap:butt;stroke-linejoin:miter;stroke-miterlimit:10;stroke-opacity:1;stroke-width:2;"/>
            </g>
          </defs>
          <use xlink:href="#176"/>
          <defs>
            <title>Shape 186</title>
            <g id="178">
              <defs>
                <path id="179" d="M208.3,155 C209.5,154.5,210.9,154.2,212.3,154.2 C213.7,154.2,215,154.5,216.2,155"/>
              </defs>
              <use xlink:href="#179" style="fill:none;opacity:1;stroke:#d2d7e1;stroke-linecap:butt;stroke-linejoin:miter;stroke-miterlimit:10;stroke-opacity:1;stroke-width:2;"/>
            </g>
          </defs>
          <use xlink:href="#178"/>
          <defs>
            <title>Shape 187</title>
            <g id="180">
              <defs>
                <path id="181" d="M201.7,164.9 C201.7,161.6,203.2,158.6,205.6,156.7"/>
              </defs>
              <use xlink:href="#181" style="fill:none;opacity:1;stroke:#3d96ff;stroke-linecap:butt;stroke-linejoin:miter;stroke-miterlimit:10;stroke-opacity:1;stroke-width:2;"/>
            </g>
          </defs>
          <use xlink:href="#180"/>
          <defs>
            <title>Shape 188</title>
            <g id="182">
              <defs>
                <path id="183" d="M209,164.9 C209,163.1,210.5,161.6,212.3,161.6 C214.1,161.6,215.6,163.1,215.6,164.9"/>
              </defs>
              <use xlink:href="#183" style="fill:#326ce4;fill-opacity:1;fill-rule:evenodd;opacity:1;stroke:none;"/>
            </g>
          </defs>
          <use xlink:href="#182"/>
          <defs>
            <title>Shape 189</title>
            <g id="184">
              <defs>
                <path id="185" d="M213.5,163.4 C213.5,163.4,216.6,159.6,216.6,159.6"/>
              </defs>
              <use xlink:href="#185" style="fill:none;opacity:1;stroke:#326ce4;stroke-linecap:round;stroke-linejoin:miter;stroke-miterlimit:10;stroke-opacity:1;stroke-width:2;"/>
            </g>
          </defs>
          <use xlink:href="#184"/>
        </g>
        <g id="186">
          <title>Group</title>
          <g id="187">
            <title>Group</title>
            <g id="188">
              <title>Group</title>
              <defs>
                <title>Shape 190</title>
                <g id="189">
                  <defs>
                    <path id="190" d="M185.2,136.2 C185.2,136.973,184.573,137.6,183.8,137.6 C183.027,137.6,182.4,136.973,182.4,136.2 C182.4,135.427,183.027,134.8,183.8,134.8 C184.573,134.8,185.2,135.427,185.2,136.2"/>
                  </defs>
                  <use xlink:href="#190" style="fill:#ebf1ff;fill-opacity:1;fill-rule:evenodd;opacity:1;stroke:none;"/>
                </g>
              </defs>
              <use xlink:href="#189"/>
            </g>
            <g id="191">
              <title>Group</title>
              <defs>
                <title>Shape 191</title>
                <g id="192">
                  <defs>
                    <path id="193" d="M185.3,235.7 C185.3,236.473,184.673,237.1,183.9,237.1 C183.127,237.1,182.5,236.473,182.5,235.7 C182.5,234.927,183.127,234.3,183.9,234.3 C184.673,234.3,185.3,234.927,185.3,235.7"/>
                  </defs>
                  <use xlink:href="#193" style="fill:#ebf1ff;fill-opacity:1;fill-rule:evenodd;opacity:1;stroke:none;"/>
                </g>
              </defs>
              <use xlink:href="#192"/>
            </g>
            <g id="194">
              <title>Group</title>
              <defs>
                <title>Shape 192</title>
                <g id="195">
                  <defs>
                    <path id="196" d="M184.5,186.1 C184.5,186.873,183.873,187.5,183.1,187.5 C182.327,187.5,181.7,186.873,181.7,186.1 C181.7,185.327,182.327,184.7,183.1,184.7 C183.873,184.7,184.5,185.327,184.5,186.1"/>
                  </defs>
                  <use xlink:href="#196" style="fill:#ebf1ff;fill-opacity:1;fill-rule:evenodd;opacity:1;stroke:none;"/>
                </g>
              </defs>
              <use xlink:href="#195"/>
            </g>
          </g>
          <g id="197">
            <title>Group</title>
            <g id="198">
              <title>Group</title>
              <defs>
                <title>Shape 193</title>
                <g id="199">
                  <defs>
                    <path id="200" d="M341.2,136.1 C341.2,136.873,340.573,137.5,339.8,137.5 C339.027,137.5,338.4,136.873,338.4,136.1 C338.4,135.327,339.027,134.7,339.8,134.7 C340.573,134.7,341.2,135.327,341.2,136.1"/>
                  </defs>
                  <use xlink:href="#200" style="fill:#ebf1ff;fill-opacity:1;fill-rule:evenodd;opacity:1;stroke:none;"/>
                </g>
              </defs>
              <use xlink:href="#199"/>
            </g>
            <g id="201">
              <title>Group</title>
              <defs>
                <title>Shape 194</title>
                <g id="202">
                  <defs>
                    <path id="203" d="M341.3,235.8 C341.3,236.573,340.673,237.2,339.9,237.2 C339.127,237.2,338.5,236.573,338.5,235.8 C338.5,235.027,339.127,234.4,339.9,234.4 C340.673,234.4,341.3,235.027,341.3,235.8"/>
                  </defs>
                  <use xlink:href="#203" style="fill:#ebf1ff;fill-opacity:1;fill-rule:evenodd;opacity:1;stroke:none;"/>
                </g>
              </defs>
              <use xlink:href="#202"/>
            </g>
            <g id="204">
              <title>Group</title>
              <defs>
                <title>Shape 195</title>
                <g id="205">
                  <defs>
                    <path id="206" d="M341.9,186.1 C341.9,186.873,341.273,187.5,340.5,187.5 C339.727,187.5,339.1,186.873,339.1,186.1 C339.1,185.327,339.727,184.7,340.5,184.7 C341.273,184.7,341.9,185.327,341.9,186.1"/>
                  </defs>
                  <use xlink:href="#206" style="fill:#ebf1ff;fill-opacity:1;fill-rule:evenodd;opacity:1;stroke:none;"/>
                </g>
              </defs>
              <use xlink:href="#205"/>
            </g>
          </g>
        </g>
      </g>
    </g>
  </g>
</svg>
